<svg id="Body" xmlns="http://www.w3.org/2000/svg" viewBox="0 0 1440 1440"><g id="B_RH_C" data-name="B + RH C"><path d="M974.46,1158.58c-2-21-5-44.33-9.22-69.86-4.25-36.34-26.4-95.91-44.06-139.11,0,0-1.28-4.81-8.53-15.61l-10.54-25.06c7.12,7.26,29.82,41.22,29.82,41.22C973.08,1018.1,1034.51,1142.73,974.46,1158.58Z" style="fill:#bbbcbe"/><path d="M978.38,1235.1c0,44.94-4.65,67.87-4.65,67.87-1.51,14.89-5.56,45.38-13.66,48.86-2.62,1.12-9.41,3.09-18.68,5.22-1.45-13.08-11.14-23-22.32-22.38-11.69.61-20.56,12.42-19.84,26.38-.72-14-10.79-24.78-22.48-24.17s-20.56,12.41-19.83,26.38c0,.8.11,1.58.21,2.36-9-.75-17.1-2.37-23.59-5.2,0,0-8.87-1.69-6.73-42.79,0-21.31,1.24-34.86-60-34.86S716,1326.5,716,1326.5c4.66,40.88-3.77,41.84-3.77,41.84-7.32,3.78-16.92,6.1-27.59,7.38.13-.91.23-1.84.27-2.78.73-14-8.15-25.77-19.84-26.38s-21.75,10.21-22.47,24.18c.72-14-8.15-25.77-19.84-26.38s-21.74,10.22-22.47,24.17a26.54,26.54,0,0,0,0,3.09,116.93,116.93,0,0,1-14.86-3.28c-9.95-3.5-16.47-46.21-17.65-54.5,0,0-6.32-54.1-6.13-98.39,0-116.1,69.16-324.89,79.6-355.74l237.13-7.23,23.76,56.46L912.65,934c7.25,10.8,8.53,15.61,8.53,15.61,17.66,43.2,39.81,102.77,44.06,139.11,4.22,25.53,7.19,48.83,9.22,69.86C977.38,1188.76,978.38,1214.28,978.38,1235.1Z" style="fill:#bbbcbe"/><ellipse cx="769.91" cy="1132.69" rx="132.63" ry="148.42" style="fill:#f4c1d9"/><path d="M912.11,932.68q-6.47,2.12-13.5,4.22a646.72,646.72,0,0,1-89.14,19.3,604.82,604.82,0,0,1-99.66,9.2h-.3c-4.47.17-9,.23-13.5.23A382,382,0,0,1,643.19,962c-.28,0-.56-.06-.81-.11-2.31-.29-3.5-.49-3.5-.49q-7.68-1.17-15.26-2.62-6.27-1.2-12.45-2.61c10-34.5,19.14-63.37,25-81.15,2.25-6.87,4-12.08,5.1-15.33l237.12-7.22,23.76,56.45Z" style="fill:#818385"/><path d="M684.88,1372.94c0,.94-.14,1.87-.27,2.78-13.09,1.57-27.78,1.57-41.79.75a29.31,29.31,0,0,1-.25-5.73c.72-14,10.79-24.79,22.47-24.18S685.61,1359,684.88,1372.94Z" style="fill:#fff"/><path d="M642.57,1370.74a30.86,30.86,0,0,1-.84,5.68,391.66,391.66,0,0,1-41.47-4.8,26.54,26.54,0,0,1,0-3.09c.73-14,10.79-24.78,22.47-24.17S643.29,1356.77,642.57,1370.74Z" style="fill:#fff"/><path d="M899.21,1364.32c-14.28,1.64-29.09,2.39-42.08,1.3-.1-.78-.17-1.56-.21-2.36-.73-14,8.15-25.77,19.83-26.38s21.76,10.21,22.48,24.17A25.45,25.45,0,0,1,899.21,1364.32Z" style="fill:#fff"/><path d="M941.39,1357.05a389.36,389.36,0,0,1-41.81,7.23,31,31,0,0,1-.35-3.23c-.72-14,8.15-25.77,19.84-26.38C930.25,1334.09,939.94,1344,941.39,1357.05Z" style="fill:#fff"/><path d="M877,1366a169.85,169.85,0,0,1-19.82-.4,1.5,1.5,0,0,1,0-.2A193.35,193.35,0,0,0,877,1366Z" style="fill:#818385"/><path d="M941.4,1357.06c-2.44.57-5.06,1.14-7.82,1.71,2.77-.61,5.38-1.23,7.8-1.83A.5.5,0,0,1,941.4,1357.06Z" style="fill:#818385"/><path d="M912.1,932.67q-6.45,2.13-13.49,4.22a646.58,646.58,0,0,1-89.14,19.31,605.91,605.91,0,0,1-99.66,9.2h-.3c-4.48.16-9,.23-13.5.23A383.61,383.61,0,0,1,643.19,962l-.81-.11c-2.31-.3-3.5-.5-3.5-.5q-7.68-1.15-15.26-2.61L636.13,875c2.25-6.87,4-12.09,5.1-15.33l237.12-7.23,23.76,56.45Z" style="fill:#818385"/><path d="M684.89,1372.94c0,.74-.11,1.48-.21,2.19-4.32.69-9.13,1.28-14.39,1.7-9,.36-18.39.17-27.47-.35a29.45,29.45,0,0,1-.25-5.74A30.59,30.59,0,0,1,643,1367a216.21,216.21,0,0,0,41.28-1.76A30.28,30.28,0,0,1,684.89,1372.94Z" style="fill:#a1a3a6"/><path d="M642.57,1370.74a30.86,30.86,0,0,1-.84,5.68,389.35,389.35,0,0,1-41.47-4.8c0-1,0-2,0-3.09a29.59,29.59,0,0,1,1.08-6.55,307,307,0,0,0,41.18,5A28.24,28.24,0,0,1,642.57,1370.74Z" style="fill:#a1a3a6"/><path d="M643,1367a30.59,30.59,0,0,0-.44,3.77,28.24,28.24,0,0,0-.05-3.8Z" style="fill:#a1a3a6"/><path d="M577.56,1356.49s9.26,2.77,23.78,5.49a29.59,29.59,0,0,0-1.08,6.55c0,.93-.09,2.17,0,3.15q-8.9-1.86-18.46-4.43Z" style="fill:#818385"/><path d="M717,1356.49l-3.25,10.76s-10,4.86-29,7.88c.1-.71.17-1.45.21-2.19a30.28,30.28,0,0,0-.6-7.73A137.37,137.37,0,0,0,717,1356.49Z" style="fill:#818385"/><path d="M899.22,1364.32c-7.21.83-14.56,1.43-21.74,1.68l-.53,0a193.35,193.35,0,0,1-19.84-.6c-.08-.71-.15-1.43-.19-2.16a29.6,29.6,0,0,1,.83-8.75,223.76,223.76,0,0,0,40.21-.7,30.39,30.39,0,0,1,1.28,7.24A29.66,29.66,0,0,1,899.22,1364.32Z" style="fill:#a1a3a6"/><path d="M856.92,1363.26c0,.73.11,1.45.19,2.16a136.3,136.3,0,0,1-25.21-4.37L828,1349.46s10.71,3.6,29.71,5A29.6,29.6,0,0,0,856.92,1363.26Z" style="fill:#818385"/><path d="M941.38,1356.94c-2.42.6-5,1.22-7.8,1.83l-.18,0c-9.92,2-21.67,4.07-33.82,5.47a28.25,28.25,0,0,1-.34-3.23,28.86,28.86,0,0,1,.54-7.43,268.73,268.73,0,0,0,38.32-7.18A28.78,28.78,0,0,1,941.38,1356.94Z" style="fill:#a1a3a6"/><path d="M899.24,1361.05a30.39,30.39,0,0,0-1.28-7.24c.6,0,1.21-.12,1.82-.19A28.86,28.86,0,0,0,899.24,1361.05Z" style="fill:#818385"/><path d="M899.58,1364.28c12.15-1.4,23.9-3.42,33.82-5.47a293.64,293.64,0,0,1-55.92,7.19c7.18-.25,14.53-.85,21.74-1.68a29.66,29.66,0,0,0,0-3.27A28.25,28.25,0,0,0,899.58,1364.28Z" style="fill:#818385"/><path d="M968.09,1336.85l-7.38,14.64s-7.43,2.52-19.33,5.45a28.78,28.78,0,0,0-3.28-10.5A301.86,301.86,0,0,0,968.09,1336.85Z" style="fill:#818385"/></g><g id="Body_Right_hand" data-name="Body + Right hand"><path d="M971.48,1162.46a18.23,18.23,0,0,1-2.23-6.15c0-.28-.09-.57-.12-.84l-.06-.6L969,1154l-.17-1.68-.72-6.7q-.74-6.69-1.57-13.39-1.66-13.37-3.67-26.71c-.67-4.47-1.35-8.84-2.09-13.38-.18-1.12-.38-2.29-.54-3.39l-.46-3.3c-.16-1.1-.3-2.2-.48-3.3l-.59-3.25c-1.59-8.67-3.67-17.34-6.07-25.94s-5-17.18-7.78-25.71-5.72-17-8.77-25.46c-6.11-16.91-12.65-33.69-19.44-50.36l-.2-.6c0,.13,0-.09-.06-.17l-.15-.39-.35-.85c-.25-.59-.53-1.19-.83-1.8-.59-1.22-1.25-2.45-1.95-3.67-1.38-2.44-2.91-4.86-4.51-7.25h0a4.73,4.73,0,0,1-.44-.83l-10.54-25.06-.07-.17a4.87,4.87,0,0,1,8.09-5.16l1.71,1.88,1.51,1.82c1,1.21,1.91,2.42,2.85,3.63q2.75,3.63,5.38,7.27,5.27,7.3,10.33,14.69l5.05,7.39L935,945.9l.63.93.35.53c.14.21.22.35.32.52l1.2,2c3.11,5.18,6.11,10.3,9.09,15.51,11.85,20.79,22.91,42,32.67,64,4.87,11,9.4,22.12,13.36,33.51a239,239,0,0,1,9.61,35.1,127.58,127.58,0,0,1,2.11,18.42,71.82,71.82,0,0,1-1.7,19,44.71,44.71,0,0,1-3.44,9.38,35.54,35.54,0,0,1-5.89,8.43,33.29,33.29,0,0,1-8.21,6.29,24.32,24.32,0,0,1-2.28,1.15l-1.15.55-1.18.45-1.18.45-.3.11-.14.06-.22.07a12.46,12.46,0,0,1-1.34.35,12.59,12.59,0,0,1-5.54-.17Zm5.7-7.89a1.66,1.66,0,0,0-1.25-1.38.53.53,0,0,0-.27,0l.38-.15.9-.35.91-.34.86-.42a17.78,17.78,0,0,0,1.69-.85,23.91,23.91,0,0,0,5.91-4.52,29.76,29.76,0,0,0,6.94-13.48,61.79,61.79,0,0,0,1.41-16.41,116.39,116.39,0,0,0-2-17,229.65,229.65,0,0,0-9.25-33.66c-3.86-11.07-8.3-22-13.09-32.75-9.6-21.54-20.55-42.54-32.28-63.07-2.92-5.12-5.94-10.26-9-15.27L928,953.1c-.09-.15-.19-.33-.26-.43l-.27-.4-.62-.91-2.49-3.68-5-7.33c-3.37-4.88-6.76-9.73-10.21-14.5q-2.6-3.58-5.24-7.06c-.88-1.15-1.77-2.3-2.66-3.39l-1.34-1.62-1.28-1.41,8-5.34,10.56,25.06-.45-.83c1.71,2.55,3.36,5.15,4.91,7.87.78,1.36,1.52,2.76,2.24,4.21.35.72.7,1.47,1,2.24l.5,1.22.24.65c.09.27.14.4.28.89l-.2-.59c6.85,16.77,13.45,33.65,19.63,50.72,3.08,8.53,6.08,17.1,8.89,25.75s5.5,17.35,7.94,26.15,4.6,17.7,6.28,26.8l.62,3.41c.19,1.13.33,2.27.5,3.4l.48,3.41c.16,1.14.35,2.19.53,3.3.71,4.37,1.43,8.92,2.1,13.39q2,13.45,3.72,27,.86,6.75,1.6,13.52l.73,6.77.18,1.69.08.85,0,.21v0h0a2.05,2.05,0,0,0-1.68.36Z" style="fill:#231f20"/><path d="M983.38,1235.1l-.06,8.58-.18,8.58c-.18,5.73-.4,11.45-.76,17.18s-.79,11.45-1.38,17.18c-.3,2.86-.62,5.73-1,8.6-.19,1.43-.4,2.87-.61,4.31s-.45,2.84-.76,4.43l.08-.49c-.61,6-1.36,12-2.32,17.94a156.17,156.17,0,0,1-3.82,18,55.08,55.08,0,0,1-3.4,9.18,21.41,21.41,0,0,1-3.13,4.83c-.37.41-.81.84-1.24,1.24l-.78.61a6.39,6.39,0,0,1-.88.58c-.32.18-.66.36-1,.52s-.46.19-.7.29c-.41.17-.82.32-1.21.45-3.09,1.08-6,1.87-8.93,2.66s-5.86,1.48-8.8,2.16a5,5,0,0,1-6.08-4.31v0a22.73,22.73,0,0,0-5.85-13.07,16,16,0,0,0-5.55-3.87,13.06,13.06,0,0,0-6.34-.91,15,15,0,0,0-10.85,7.08,23.66,23.66,0,0,0-3.61,14l-10,.52a23.29,23.29,0,0,0-5.57-14.14,16.36,16.36,0,0,0-5.8-4.24,13.33,13.33,0,0,0-6.7-1,13.73,13.73,0,0,0-6.36,2.49,17.84,17.84,0,0,0-4.86,5.47,24,24,0,0,0-2.86,15.06,5,5,0,0,1-4.31,5.58,5.08,5.08,0,0,1-1,0h0a105.58,105.58,0,0,1-12.61-1.76,64.49,64.49,0,0,1-12.57-3.83l1.06.32a5,5,0,0,1-.78-.21l-.34-.13c-.22-.09-.44-.19-.65-.3s-.57-.34-.85-.53a12,12,0,0,1-1.28-1.06,13.73,13.73,0,0,1-1.62-2c-.21-.33-.45-.67-.62-1l-.49-.94c-.16-.31-.34-.64-.46-.94l-.37-.91a34.32,34.32,0,0,1-1.21-3.58c-.32-1.17-.55-2.32-.82-3.48a97.4,97.4,0,0,1-1.47-13.48c0-2.21-.16-4.43-.15-6.62s0-4.41.09-6.54l.23-6.4v-3.08c0-1,0-2.08,0-3.09-.1-4-.48-7.8-1.78-10.59a11.85,11.85,0,0,0-2.6-3.67,16.49,16.49,0,0,0-4.07-2.82c-.76-.44-1.64-.76-2.46-1.14s-1.74-.68-2.68-.94-1.84-.58-2.81-.8l-1.43-.36-1.47-.31a112.59,112.59,0,0,0-12.12-1.73c-8.24-.73-16.74-1-25.09-.89-8.17.13-16.32,1-23.68,3.53s-13.76,6.76-17.35,13c-.49.75-.84,1.58-1.27,2.36s-.73,1.65-1,2.52a26.41,26.41,0,0,0-1.3,5.31,33.23,33.23,0,0,0-.37,5.56c0,.93.07,1.86.17,2.78,0,.46.1.91.16,1.35l.11.65.1.51.07.4a.69.69,0,0,1,0,.2c.36,3.66.79,7.3,1,11l.2,2.77.1,2.79.11,2.79v2.83a74.12,74.12,0,0,1-.78,11.56,28.85,28.85,0,0,1-.59,3c-.13.52-.23,1-.39,1.56l-.54,1.61a14.49,14.49,0,0,1-.71,1.68,11.58,11.58,0,0,1-1,1.78l-.29.45-.39.49-.41.49a5.38,5.38,0,0,1-.48.49l-.59.51-.3.24c-.12.09-.27.18-.41.27a7.43,7.43,0,0,1-.9.49c-.21.1-.43.18-.65.26s-.16.06-.39.12a6.53,6.53,0,0,1-.77.14l1.73-.52a68,68,0,0,1-14.56,5.27,120.11,120.11,0,0,1-14.73,2.63,5,5,0,0,1-5.56-4.35,5.31,5.31,0,0,1,0-1.26v0a24.2,24.2,0,0,0-2.69-15.18,18.23,18.23,0,0,0-4.82-5.57,13.45,13.45,0,0,0-6.37-2.6,14.41,14.41,0,0,0-12.59,5.11,23.2,23.2,0,0,0-5.63,14.21l-10-.52a23.2,23.2,0,0,0-4.15-14.76,14.42,14.42,0,0,0-12.06-6.35c-4.59.06-9.05,2.92-12,7.11a24.29,24.29,0,0,0-4.14,14.85v.08a5,5,0,0,1-4.78,5.2,4.83,4.83,0,0,1-1.08-.07c-2.81-.49-5.61-1-8.44-1.62-1.42-.3-2.84-.63-4.3-1-.74-.19-1.48-.39-2.29-.65l-.64-.21-1-.43c-.31-.15-.64-.31-.93-.48l-.74-.52-.73-.54c-.21-.18-.39-.37-.58-.55a12.23,12.23,0,0,1-1.07-1.11l-.9-1.11-.75-1.09c-.51-.73-.88-1.43-1.31-2.16s-.76-1.42-1.08-2.13a73.25,73.25,0,0,1-3.28-8.41c-1.82-5.59-3.21-11.16-4.44-16.74s-2.25-11.17-3.17-16.78l-.66-4.22-.32-2.17-.25-2.19-.89-8.41c-.57-5.6-1.08-11.2-1.57-16.81q-1.46-16.82-2.39-33.7c-.61-11.25-1-22.54-1.07-33.85l0-4.24.08-4.26c.07-2.85,0-5.69.2-8.53l.42-8.5c.13-2.84.41-5.65.61-8.48,1.75-22.59,5.1-44.92,9-67.11s8.64-44.2,13.76-66.1,10.68-43.68,16.61-65.35,12.15-43.26,18.68-64.76,13.31-42.89,20.5-64.21a5,5,0,0,1,4.56-3.4h0l237.13-7.23a5,5,0,0,1,4.76,3.06l34.3,81.52-.46-.85c1.71,2.55,3.36,5.16,4.91,7.88q1.17,2,2.24,4.21c.36.73.7,1.48,1,2.25.17.4.33.79.49,1.22l.25.65c.09.28.14.41.28.9l-.2-.6c9.27,22.7,18.08,45.61,26,68.91,3.94,11.65,7.64,23.4,10.87,35.34l1.21,4.48L965,1061c.36,1.51.75,3,1.09,4.52l1,4.56c.71,3,1.22,6.13,1.79,9.2.31,1.54.49,3.08.71,4.61l.66,4.6,1.44,9,1.38,9.11q1.34,9.11,2.53,18.24,2.37,18.27,4.07,36.63c2.26,24.47,3.57,49.06,3.56,73.69Zm-9.82,0c0-24.27-1.37-48.57-3.66-72.78q-1.7-18.16-4.1-36.26-1.18-9-2.54-18.07l-1.38-9-1.48-9.11-.64-4.49c-.22-1.48-.4-3-.7-4.44-.55-2.94-1-5.87-1.73-8.8l-1-4.4c-.33-1.46-.72-2.92-1.07-4.38l-1.09-4.39-1.19-4.37c-3.18-11.66-6.83-23.24-10.71-34.75-7.8-23-16.55-45.77-25.76-68.33l-.2-.61c0,.14,0-.08-.06-.16l-.15-.39-.34-.85c-.26-.59-.53-1.19-.83-1.8-.6-1.21-1.25-2.44-2-3.65-1.39-2.45-2.92-4.87-4.52-7.25a7.8,7.8,0,0,1-.46-.85l-34.3-81.52,4.76,3.06-237.13,7.23,4.59-3.4q-10.71,31.76-20.41,63.92T607,989.71q-8.85,32.35-16.53,65c-5.08,21.76-9.76,43.61-13.65,65.57s-7.17,44-8.88,66.14c-.19,2.77-.48,5.53-.59,8.3l-.42,8.29c-.14,2.76-.12,5.52-.19,8.28l-.08,4.14,0,4.17c.05,11.11.46,22.23,1.05,33.36s1.42,22.26,2.37,33.38q.72,8.34,1.56,16.67l.88,8.31.22,2,.3,2,.64,4.09c.89,5.45,1.9,10.88,3.07,16.25s2.51,10.68,4.17,15.75a63.89,63.89,0,0,0,2.81,7.25c.26.57.55,1.07.82,1.62s.57,1,.87,1.43a7.12,7.12,0,0,0,1.55,1.82l.1.1a0,0,0,0,0,0,0v0l.36.12c.52.17,1.14.34,1.75.5,1.25.32,2.56.62,3.88.9,2.65.57,5.36,1.08,8.07,1.55l-5.85,5.21a36.16,36.16,0,0,1,1.21-11,32.48,32.48,0,0,1,4.74-10.16,28.11,28.11,0,0,1,8.37-7.9,23.17,23.17,0,0,1,23.12-.7,25.75,25.75,0,0,1,8.77,7.68,33.24,33.24,0,0,1,6.08,21.21,5,5,0,0,1-10-.5v0a33.26,33.26,0,0,1,8.2-20.4,25.86,25.86,0,0,1,9.45-6.74,23.29,23.29,0,0,1,11.86-1.58,23.56,23.56,0,0,1,11,4.48,28,28,0,0,1,7.56,8.65,34.22,34.22,0,0,1,3.92,21.52l-5.55-5.66a110.36,110.36,0,0,0,13.5-2.4,58,58,0,0,0,12.39-4.46l1.73-.52a4.23,4.23,0,0,0-.62.11l-.23.06-.33.13a2.35,2.35,0,0,0-.32.16l-.11.09,0,0-.07.06s0,0,0,0l0,0,0,0,.07-.13a2.59,2.59,0,0,0,.31-.59,5.2,5.2,0,0,0,.34-.81l.32-1c.1-.34.18-.72.27-1.08a21,21,0,0,0,.43-2.28,63.74,63.74,0,0,0,.66-10v-2.59l-.1-2.62-.1-2.62-.18-2.63c-.21-3.51-.62-7-1-10.56l.1.6c-.1-.47-.15-.73-.21-1.07l-.15-.93c-.1-.62-.17-1.22-.23-1.83-.13-1.2-.19-2.41-.21-3.61a42.66,42.66,0,0,1,.47-7.22,36.9,36.9,0,0,1,1.74-7.11c.37-1.18.89-2.3,1.37-3.44a37.24,37.24,0,0,1,6.21-9.25c.88-.86,1.72-1.78,2.66-2.57a34.69,34.69,0,0,1,2.87-2.29,48.41,48.41,0,0,1,12.7-6.48c8.86-3,17.93-3.92,26.8-4.07s17.35.16,26.14.93a122.33,122.33,0,0,1,13.24,1.9l1.67.35,1.68.42c1.11.26,2.23.61,3.35,1s2.25.79,3.37,1.19,2.24.93,3.35,1.55a26.26,26.26,0,0,1,6.4,4.49,22.21,22.21,0,0,1,4.76,6.72,28.33,28.33,0,0,1,2.13,7.48,57.85,57.85,0,0,1,.55,7c0,1.13,0,2.23,0,3.32v3.33l-.23,6.41c-.09,2.14-.05,4.18-.09,6.28s.1,4.13.14,6.2a88.74,88.74,0,0,0,1.29,12c.22.92.41,1.87.65,2.76a24.21,24.21,0,0,0,.83,2.49l.23.58c.08.19.17.32.25.49l.24.49c.08.15.17.24.25.37a3.89,3.89,0,0,0,.36.49s0,0-.05,0a.52.52,0,0,0-.18-.1,1.43,1.43,0,0,0-.28-.13l-.15-.06a4.25,4.25,0,0,0-.59-.15l1,.33a54.4,54.4,0,0,0,10.6,3.21,96.69,96.69,0,0,0,11.41,1.58l-5.37,5.61a34,34,0,0,1,4.16-21.37,28,28,0,0,1,7.63-8.51,23.73,23.73,0,0,1,11-4.32,23.39,23.39,0,0,1,11.77,1.68,26.24,26.24,0,0,1,9.35,6.77,33.23,33.23,0,0,1,8.11,20.3h0a5,5,0,0,1-10,.55v0a33.48,33.48,0,0,1,5.25-20,27.09,27.09,0,0,1,7.63-7.72,23.22,23.22,0,0,1,21.68-2.2,25.93,25.93,0,0,1,9,6.22,32.72,32.72,0,0,1,8.56,18.88l-6.09-4.32c2.85-.66,5.69-1.34,8.49-2.08s5.63-1.53,8.13-2.41l.88-.32.33-.14h0s0,0,0,0l.1-.06.33-.33a12.11,12.11,0,0,0,1.65-2.65,45.72,45.72,0,0,0,2.75-7.5,147.16,147.16,0,0,0,3.56-16.81c.92-5.74,1.64-11.55,2.24-17.36,0-.16,0-.3.06-.45v0c.23-1.19.46-2.63.67-4s.4-2.74.58-4.12c.37-2.75.68-5.53,1-8.31.57-5.56,1-11.16,1.34-16.76s.57-11.22.74-16.85l.18-8.44.06-8.44Z" style="fill:#231f20"/><path d="M689.88,1373.2l-.31,3.21a4.75,4.75,0,0,1-4.17,4.25l-.19,0A203.13,203.13,0,0,1,663.8,1382c-7.12.09-14.21-.12-21.27-.52a5,5,0,0,1-4.66-4.3,34.43,34.43,0,0,1-.33-5.74c0-1,.13-1.91.21-2.86a24.93,24.93,0,0,1,.42-2.84,33.36,33.36,0,0,1,4.06-10.81,28.75,28.75,0,0,1,7.94-8.78,24.34,24.34,0,0,1,11.46-4.44,22.58,22.58,0,0,1,12.26,2,26.11,26.11,0,0,1,9.41,7.61,31.59,31.59,0,0,1,6.39,21.83Zm-9.81-.51c.08-5.52-1.42-11.08-4.66-15.18s-7.93-6.48-12.7-5.87a14.42,14.42,0,0,0-6.72,2.63,18.9,18.9,0,0,0-5.17,5.76,23.46,23.46,0,0,0-2.83,7.56,17.6,17.6,0,0,0-.3,2c-.05.68-.15,1.37-.16,2.06a25.33,25.33,0,0,0,.24,4.08l-4.66-4.29c6.86.4,13.73.59,20.56.51a190.67,190.67,0,0,0,20.35-1.24l-4.36,4.28.23-2.35Z" style="fill:#231f20"/><path d="M647.56,1371a35.74,35.74,0,0,1-1,6.63h0a5,5,0,0,1-5.16,3.77,396.3,396.3,0,0,1-42-4.87h-.09a4.88,4.88,0,0,1-4-4.63,36.16,36.16,0,0,1,1.21-11,32.48,32.48,0,0,1,4.74-10.16,28.11,28.11,0,0,1,8.37-7.9,23.17,23.17,0,0,1,23.12-.7,25.75,25.75,0,0,1,8.77,7.68,32,32,0,0,1,5.9,21.2Zm-9.8-.52a24.6,24.6,0,0,0-4.34-14.76,14.42,14.42,0,0,0-12.06-6.35c-4.59.06-9.05,2.92-12,7.11a24.29,24.29,0,0,0-4.14,14.85l-4.13-4.64a384.31,384.31,0,0,0,40.91,4.74l-5.15,3.78a25.69,25.69,0,0,0,.7-4.74Z" style="fill:#231f20"/><path d="M646,1380.2a7.65,7.65,0,0,1-1.79.88,7.86,7.86,0,0,1-2.7.34,5,5,0,0,1-4.74-5.3,6.14,6.14,0,0,1,.12-.86l0-.06a26.41,26.41,0,0,0,.68-4.74l10,.55c0,.79-.06,1.58,0,2.38,0,.4,0,.8.07,1.19q0,.3,0,.6c0,.1,0,.21,0,.31s0,.07,0,.17l0,.27a5.66,5.66,0,0,1,0,.58,5.13,5.13,0,0,1-.21,1.2,5.63,5.63,0,0,1-1.08,2Zm-7.11-6.54a4,4,0,0,0-.71,1.22,4.8,4.8,0,0,0-.24,1c0,.16,0,.33,0,.48v.23c0,.08,0,.17,0,.13s-.07-.27-.1-.41a7.94,7.94,0,0,1-.13-.83q-.07-.84-.12-1.68a29.14,29.14,0,0,1,0-3.37h0a5,5,0,0,1,10,.56,33.46,33.46,0,0,1-1,6.62l-4.59-6.21a2.91,2.91,0,0,0-1.61.4,3.13,3.13,0,0,0-1.25,1.28Z" style="fill:#231f20"/><path d="M902.58,1367.9a15.37,15.37,0,0,1-5.38,1.67l-2.74.28q-2.67.26-5.34.48c-3.57.28-7.14.5-10.73.64a180.68,180.68,0,0,1-21.68-.37,5,5,0,0,1-4.54-4.34v0a33.63,33.63,0,0,1,4.66-22.21,27.45,27.45,0,0,1,8.42-8.51,23,23,0,0,1,11.82-3.64,23.86,23.86,0,0,1,12,3,27.07,27.07,0,0,1,8.9,8,31.88,31.88,0,0,1,5,10.45,24.16,24.16,0,0,1,.64,2.8,24.82,24.82,0,0,1,.38,2.84l.11,1.42a12.2,12.2,0,0,1,0,2.24,16.19,16.19,0,0,1-1.37,5.11Zm-7-6.93a1.28,1.28,0,0,0-1.24.2c-.09.07,0,.3-.1-.22l-.12-1a17.17,17.17,0,0,0-.33-2,16.49,16.49,0,0,0-.48-2,23.2,23.2,0,0,0-3.47-7.22,17.3,17.3,0,0,0-5.65-5.09,13.8,13.8,0,0,0-6.9-1.72c-4.76,0-9.24,3.06-12.05,7.49a23.64,23.64,0,0,0-3.2,15.63l-4.54-4.37A169.91,169.91,0,0,0,878,1361c3.43-.13,6.87-.34,10.31-.61,1.72-.14,3.44-.29,5.16-.46l2.51-.25c-.19,0-.56.53-.39,1.21Z" style="fill:#231f20"/><path d="M945.23,1360.11a12.84,12.84,0,0,1-2.69,1.6,14.23,14.23,0,0,1-2.65.81l-2.63.57-5.26,1.1q-5.26,1.05-10.56,2-10.59,1.83-21.29,3.09h0a4.93,4.93,0,0,1-5.45-4.15,34.35,34.35,0,0,1,3.35-21.27,28.13,28.13,0,0,1,7.09-8.73,23.92,23.92,0,0,1,10.52-5,22.62,22.62,0,0,1,11.74.79,25.92,25.92,0,0,1,9.76,6,29.53,29.53,0,0,1,6.34,9.09c.35.85.71,1.69,1,2.55s.55,1.74.79,2.61l.3,1.33.14.67.07.33c0,.11,0,.18.08.48a12.71,12.71,0,0,1,.08,3,14.07,14.07,0,0,1-.62,2.83Zm-7.9-5.81a1.54,1.54,0,0,0-.83.49,1,1,0,0,0-.28.73c0,.1,0,0,0-.1l-.07-.23-.12-.47-.24-.94c-.19-.62-.42-1.22-.62-1.83s-.5-1.18-.74-1.77a20.94,20.94,0,0,0-4.28-6.11c-3.5-3.41-8.16-5.11-12.6-4.17s-8.36,4.16-10.69,8.61a24.44,24.44,0,0,0-2.32,15l-5.5-4.16c6.92-.8,13.84-1.81,20.72-3q5.16-.9,10.3-1.93l5.13-1.06,2.56-.56c.72-.17.11-.06-.06.22a1.6,1.6,0,0,0-.35,1.18Z" style="fill:#231f20"/><path d="M895.55,1367.48a18.2,18.2,0,0,1-.9-2.73,16.45,16.45,0,0,1-.44-3.43,5,5,0,0,1,10-.77l0,.23c.06.45.11.89.14,1.34l.06.68a2.56,2.56,0,0,1,0,.68l-.34,2a4.52,4.52,0,0,1-4.16,3.76,5.67,5.67,0,0,1-2.25-.31,5.35,5.35,0,0,1-1.88-1.15Zm7-6.66a4,4,0,0,0-1.46-1.13,4.22,4.22,0,0,0-1.88-.35l-4.5,5.75a6,6,0,0,1-.16-.94l-.11-.94q-.12-.95-.21-1.89l10-.54a1.18,1.18,0,0,0-.45-.16,2.09,2.09,0,0,0-1.09.13Z" style="fill:#231f20"/></g></svg>