<svg id="R_EAR_ASSET" data-name="R EAR ASSET" xmlns="http://www.w3.org/2000/svg" viewBox="0 0 1440 1440"><g id="Blocky"><g id="Layer_136" data-name="Layer 136"><rect x="930.37" y="520.36" width="29.79" height="59.58" transform="translate(-43.88 83.48) rotate(-4.94)" style="fill:#bbbcbe"/><rect x="956.2" y="488.16" width="29.8" height="29.8" transform="translate(-39.73 85.53) rotate(-4.94)" style="fill:#bbbcbe"/><rect x="983.09" y="450.78" width="148.96" height="29.8" transform="translate(-36.19 92.84) rotate(-4.94)" style="fill:#bbbcbe"/><rect x="1134.3" y="472.76" width="29.79" height="29.8" transform="translate(-37.74 100.82) rotate(-4.94)" style="fill:#bbbcbe"/><rect x="1172.95" y="499.61" width="29.8" height="178.75" transform="translate(-46.33 104.52) rotate(-4.94)" style="fill:#bbbcbe"/><rect x="1152.26" y="680.54" width="29.79" height="29.79" transform="translate(-55.57 103.14) rotate(-4.94)" style="fill:#bbbcbe"/><rect x="1126.43" y="712.73" width="29.79" height="59.58" transform="translate(-59.73 101.09) rotate(-4.94)" style="fill:#bbbcbe"/><rect x="1041.12" y="777.28" width="89.38" height="29.8" transform="translate(-64.21 96.49) rotate(-4.94)" style="fill:#bbbcbe"/><rect x="976.73" y="725.62" width="29.8" height="29.79" transform="translate(-60.11 88.18) rotate(-4.94)" style="fill:#bbbcbe"/><rect x="944.49" y="698.5" width="29.79" height="29.8" transform="translate(-57.89 85.3) rotate(-4.94)" style="fill:#bbbcbe"/><rect x="939.35" y="639.13" width="29.79" height="29.8" transform="translate(-52.8 84.64) rotate(-4.94)" style="fill:#bbbcbe"/><rect x="966.47" y="606.89" width="29.79" height="29.79" transform="translate(-49.92 86.86) rotate(-4.94)" style="fill:#bbbcbe"/><rect x="993.52" y="573.36" width="59.59" height="29.79" transform="translate(-46.87 90.35) rotate(-4.94)" style="fill:#bbbcbe"/><rect x="1008.98" y="752.73" width="29.79" height="29.79" transform="translate(-62.33 91.06) rotate(-4.94)" style="fill:#bbbcbe"/><rect x="1152.31" y="681.82" width="0.01" height="29.79" transform="translate(-55.74 101.86) rotate(-4.94)" style="fill:#bbbcbe"/><rect x="984.39" y="480.52" width="148.95" height="0.01" transform="translate(-37.46 93.01) rotate(-4.94)" style="fill:#bbbcbe"/><rect x="993.54" y="573.36" width="59.57" height="29.79" transform="translate(-46.87 90.35) rotate(-4.94)" style="fill:#bbbcbe"/><rect x="1152.26" y="680.54" width="29.79" height="29.79" transform="translate(-55.57 103.14) rotate(-4.94)" style="fill:#bbbcbe"/><polygon points="965.24 608.23 967.81 637.91 997.49 635.35 994.92 605.66 1054.28 600.53 1051.71 570.85 992.35 575.99 994.91 605.67 965.24 608.23" style="fill:#bbbcbe"/><polygon points="932.99 581.12 938.13 640.47 967.81 637.9 965.24 608.23 994.91 605.67 992.35 575.99 1051.71 570.85 1054.28 600.53 994.92 605.66 997.49 635.35 967.81 637.91 970.37 667.59 940.69 670.16 943.26 699.84 972.94 697.27 975.51 726.96 1005.2 724.39 1007.76 754.07 1037.43 751.51 1040 781.19 1129.05 773.49 1123.92 714.13 1153.6 711.56 1151.03 681.88 1180.71 679.31 1165.31 501.23 1135.64 503.79 1133.07 474.1 1133.06 474.1 1133.06 474.11 984.66 486.94 987.23 516.62 957.54 519.19 962.67 578.55 932.99 581.12" style="fill:#f4c1d9"/><polygon points="1005.19 724.39 1010.32 783.75 1040 781.19 1037.43 751.51 1007.76 754.07 1005.2 724.39 1005.19 724.39" style="fill:#bbbcbe"/><rect x="941.92" y="668.82" width="29.79" height="29.79" transform="translate(-55.35 84.97) rotate(-4.94)" style="fill:#bbbcbe"/></g><g id="Layer_137" data-name="Layer 137"><polyline points="957.54 519.19 927.86 521.76 933 581.12" style="fill:none;stroke:#231f20;stroke-linecap:round;stroke-linejoin:round;stroke-width:10px"/><polyline points="984.66 486.94 954.98 489.51 957.54 519.19" style="fill:none;stroke:#231f20;stroke-linecap:round;stroke-linejoin:round;stroke-width:10px"/><polyline points="1133.07 474.11 1130.5 444.42 982.09 457.25 984.66 486.94" style="fill:none;stroke:#231f20;stroke-linecap:round;stroke-linejoin:round;stroke-width:10px"/><polyline points="1165.32 501.22 1162.75 471.54 1133.07 474.11" style="fill:none;stroke:#231f20;stroke-linecap:round;stroke-linejoin:round;stroke-width:10px"/><polyline points="1180.71 679.31 1210.4 676.75 1195 498.66 1165.31 501.22" style="fill:none;stroke:#231f20;stroke-linecap:round;stroke-linejoin:round;stroke-width:10px"/><polyline points="1153.6 711.56 1183.28 708.99 1180.71 679.31" style="fill:none;stroke:#231f20;stroke-linecap:round;stroke-linejoin:round;stroke-width:10px"/><polyline points="1129.05 773.49 1158.73 770.92 1153.6 711.56" style="fill:none;stroke:#231f20;stroke-linecap:round;stroke-linejoin:round;stroke-width:10px"/><polyline points="1040 781.18 1042.57 810.87 1131.62 803.17 1129.05 773.49" style="fill:none;stroke:#231f20;stroke-linecap:round;stroke-linejoin:round;stroke-width:10px"/><polyline points="975.51 726.96 978.08 756.64 1007.76 754.07" style="fill:none;stroke:#231f20;stroke-linecap:round;stroke-linejoin:round;stroke-width:10px"/><polyline points="943.26 699.84 945.83 729.52 975.51 726.96" style="fill:none;stroke:#231f20;stroke-linecap:round;stroke-linejoin:round;stroke-width:10px"/><polyline points="967.81 637.91 938.13 640.47 940.7 670.16" style="fill:none;stroke:#231f20;stroke-linecap:round;stroke-linejoin:round;stroke-width:10px"/><polyline points="994.92 605.67 965.24 608.24 967.81 637.91" style="fill:none;stroke:#231f20;stroke-linecap:round;stroke-linejoin:round;stroke-width:10px"/><polyline points="1051.72 570.86 992.35 575.99 994.92 605.67" style="fill:none;stroke:#231f20;stroke-linecap:round;stroke-linejoin:round;stroke-width:10px"/><polyline points="1007.75 754.07 1010.32 783.75 1040 781.19" style="fill:none;stroke:#231f20;stroke-linecap:round;stroke-linejoin:round;stroke-width:10px"/><line x1="940.7" y1="670.16" x2="943.26" y2="699.84" style="fill:none;stroke:#231f20;stroke-linecap:round;stroke-linejoin:round;stroke-width:10px"/></g></g></svg>