<svg id="R_EAR_ASSET" data-name="R EAR ASSET" xmlns="http://www.w3.org/2000/svg" viewBox="0 0 1440 1440"><g id="Dumbo"><g id="Layer_122" data-name="Layer 122"><path d="M861.45,492.71s-5.38-119.11,149.68-145,180.54,166.56,140.27,243-22.1,93.8-15.89,128c9.6,52.91-37.41,190.67-186.3,63.64" style="fill:#bbbcbe"/><path d="M1151.4,590.7q-4.17,7.92-7.54,15c31.32-83.14-.22-254.56-147.1-230C927.27,387.32,890,417.64,870.05,447.58,883.81,411,919.39,363,1011.13,347.69,1166.19,321.78,1191.67,514.25,1151.4,590.7Z" style="fill:#e1e1e1"/><path d="M885,534.84s-3.81-84.13,105.71-102.42,127.51,117.63,99.06,171.63-15.6,66.24-11.22,90.38c6.79,37.37-26.42,134.66-131.58,45" style="fill:#f4c1d9"/><path d="M1089.74,604.05c-28.44,54-15.6,66.24-11.22,90.38,4.56,25.11-8.94,77.29-50.21,81.59,22.86-17,30.24-52.9,26.69-72.43-4.38-24.14-17.22-36.39,11.23-90.38s10.44-189.93-99.07-171.64A194.15,194.15,0,0,0,943.53,447c12.74-6.3,28.26-11.42,47.15-14.57C1100.19,414.12,1118.19,550.05,1089.74,604.05Z" style="fill:#b7819a"/></g><g id="Layer_119" data-name="Layer 119"><path d="M861.45,492.71s-5.38-119.11,149.68-145,180.54,166.56,140.27,243-22.1,93.8-15.89,128c9.6,52.91-37.41,190.67-186.3,63.64" style="fill:none;stroke:#231f20;stroke-linecap:round;stroke-linejoin:round;stroke-width:10px"/><path d="M885,534.84s-3.81-84.13,105.71-102.42,127.51,117.63,99.06,171.63-15.6,66.24-11.22,90.38c6.79,37.37-26.42,134.66-131.58,45" style="fill:none;stroke:#231f20;stroke-linecap:round;stroke-linejoin:round;stroke-width:10px"/></g></g></svg>