<svg id="R_EAR_ASSET" data-name="R EAR ASSET" xmlns="http://www.w3.org/2000/svg" viewBox="0 0 1440 1440"><g id="Floppy"><g id="Layer_113" data-name="Layer 113"><path d="M1174.26,642.92c-113.21,160.74-146.82,234.9-179.84,215-7.79-4.7-20-20-34.44-42.19C913.23,744,843.07,600.5,823.89,514.53a57.93,57.93,0,0,1-2.9-14.35c-.8-10.47.91-24.6,12.76-35.09,21.29-18.84,144-166.33,255.48-89.9S1287.47,482.17,1174.26,642.92Z" style="fill:#bbbcbe"/><path d="M1174.26,642.92c-73.23,104-113.15,171.72-141.15,201.22,26.47-36.38,62.63-93.94,117.49-171.82,113.2-160.75,26.48-191.3-85-267.73-97.35-66.71-203.2,37.2-242.69,77.22a36.9,36.9,0,0,1,10.88-16.72c21.29-18.84,144-166.33,255.48-89.9S1287.47,482.17,1174.26,642.92Z" style="fill:#e1e1e1"/><path d="M1073.26,655.22C1013.64,739.89,982.11,794,960,815.76,913.23,744,843.07,600.5,823.89,514.53a57.93,57.93,0,0,1-2.9-14.35c34.43-34.31,112.94-105,185.44-55.37C1094.08,504.87,1162.23,528.89,1073.26,655.22Z" style="fill:#f4c1d9"/><path d="M1077.26,653.22C1017.64,737.89,986.11,792,964,813.76q-4.28-6.56-8.78-13.86c19.88-28.6,46.16-69.57,83.42-122.48,89-126.33,20.82-150.35-66.83-210.41-36.51-25-74.56-19.5-107.72-3.47,39.67-30.24,94.54-56.23,146.36-20.73C1098.08,502.87,1166.24,526.89,1077.26,653.22Z" style="fill:#b7819a"/></g><g id="Layer_110" data-name="Layer 110"><path d="M1174.26,642.92c-113.21,160.74-146.82,234.9-179.84,215-7.79-4.7-20-20-34.44-42.19C913.23,744,843.07,600.5,823.89,514.53a57.93,57.93,0,0,1-2.9-14.35c-.8-10.47.91-24.6,12.76-35.09,21.29-18.84,144-166.33,255.48-89.9S1287.47,482.17,1174.26,642.92Z" style="fill:none;stroke:#231f20;stroke-linecap:round;stroke-linejoin:round;stroke-width:10.2629px"/><path d="M1073.26,655.22C1013.64,739.89,982.11,794,960,815.76,913.23,744,843.07,600.5,823.89,514.53a57.93,57.93,0,0,1-2.9-14.35c34.43-34.31,112.94-105,185.44-55.37C1094.08,504.87,1162.23,528.89,1073.26,655.22Z" style="fill:none;stroke:#231f20;stroke-linecap:round;stroke-linejoin:round;stroke-width:10.2629px"/></g></g></svg>