<svg id="R_EAR_ASSET" data-name="R EAR ASSET" xmlns="http://www.w3.org/2000/svg" viewBox="0 0 1440 1440"><g id="Folded_over" data-name="Folded over"><g id="Layer_128" data-name="Layer 128"><path d="M903.9,681.35c118.9,135.32,236.2,116.21,252.87,109.54,12.94-5.17,7.4-92.48-9.46-189.91-14-47-45.76-119.45-102.35-96.32a85.4,85.4,0,0,1-14.88,4.54c-51.1,10.68-106.61-24.9-121-45.39C941,534.89,903.9,681.35,903.9,681.35Z" style="fill:#bbbcbe"/><path d="M1152.11,786.23c-15.29,6.12-115.19,22.69-223.34-78.93,97.85,76.87,183.54,62.39,197.6,56.77,12.94-5.18,7.4-92.49-9.46-189.91-6.89-23.23-18.13-52.65-34.56-73.69,31,15.14,50.27,62,60.29,95.85C1159.51,693.75,1165.05,781.06,1152.11,786.23Z" style="fill:#818385"/><path d="M910.68,467.71q-.79-2-1.65-3.9l.19.26C909.7,465.22,910.19,466.43,910.68,467.71Z" style="fill:#b7819a"/><path d="M913.89,476.84c-1-3.21-2.09-6.19-3.12-8.9C911.92,470.8,913,473.77,913.89,476.84Z" style="fill:#b7819a"/><path d="M917,487.07l-.51-.41q-1.17-5.06-2.64-9.82C914.94,480,916,483.45,917,487.07Z" style="fill:#b7819a"/><path d="M905.55,456.56a19,19,0,0,0,3.48,7.25c14.44,20.49,70,56.07,121,45.39a85.4,85.4,0,0,0,14.88-4.54c56.59-23.13,88.39,49.28,102.35,96.32-4.85-28-10.62-56.81-17.16-84.76C1100.86,391,869,399.4,869,399.4S902.29,437.63,905.55,456.56Z" style="fill:#bbbcbe"/><path d="M1147.31,601a312.14,312.14,0,0,0-13.74-37.72c-2.06-9.78-4.22-19.53-6.48-29.18-24.41-104.32-189.32-115.9-243.74-116.86C875.69,407.06,869,399.4,869,399.4s231.83-8.42,261.12,116.82C1136.69,544.17,1142.46,573,1147.31,601Z" style="fill:#e1e1e1"/><path d="M905.55,456.56c19.72,33.31,46.53,201.34,46.53,201.34s97.29,75.87,119.48,50.57c19.25-22-28.54-162.57-41.48-199.27C947.34,522.31,905.55,456.56,905.55,456.56Z" style="fill:#f4c1d9"/><path d="M910.68,467.71q-.79-2-1.65-3.9l.19.26C909.7,465.22,910.19,466.43,910.68,467.71Z" style="fill:#b7819a"/><path d="M917,487.07l-.51-.41q-1.17-5.06-2.64-9.82C914.94,480,916,483.45,917,487.07Z" style="fill:#b7819a"/><path d="M1147.42,601.6,1137,604.05c-8.29-28-31.8-93-70.84-93a45.18,45.18,0,0,0-17.06,3.64,95.49,95.49,0,0,1-15.39,4.81c-1.37-4-2.58-7.43-3.58-10.27a85.4,85.4,0,0,0,14.88-4.54c56.59-23.13,88.39,49.28,102.35,96.32C1147.35,601.19,1147.38,601.39,1147.42,601.6Z" style="fill:#818385"/><path d="M1033.66,519.47l-1.38.3a105.86,105.86,0,0,1-21.63,2.19h0c-35.68,0-71.58-17.3-93.6-34.89-1-3.62-2.1-7-3.15-10.23s-2-6-3.12-8.9l-.09-.23c-.49-1.28-1-2.49-1.46-3.64,5.2,7.26,15.47,16.35,28.82,24.61a122.17,122.17,0,0,0,62.08,22h0a99.54,99.54,0,0,0,29.94-1.44C1031.08,512,1032.29,515.49,1033.66,519.47Z" style="fill:#b7819a"/><path d="M913.89,476.84c-1-3.21-2.09-6.19-3.12-8.9C911.92,470.8,913,473.77,913.89,476.84Z" style="fill:#b7819a"/><path d="M1076.56,708.47c-5.07,5.78-14.07,6.28-24.92,3.6a13.86,13.86,0,0,0,5-3.6c19-21.64-27.14-158.43-40.88-197.57a136.54,136.54,0,0,0,19.32-1.7C1048,545.9,1095.81,686.51,1076.56,708.47Z" style="fill:#b7819a"/></g><g id="Layer_129" data-name="Layer 129"><path d="M952.08,657.9s97.29,75.87,119.48,50.57c19.25-22-28.54-162.57-41.48-199.27" style="fill:none;stroke:#231f20;stroke-linecap:round;stroke-linejoin:round;stroke-width:10px"/><path d="M903.9,681.35c118.9,135.32,236.2,116.21,252.87,109.54,12.94-5.17,7.4-92.48-9.46-189.91-14-47-45.76-119.45-102.35-96.32a85.4,85.4,0,0,1-14.88,4.54c-51.1,10.68-106.61-24.9-121-45.39" style="fill:none;stroke:#231f20;stroke-linecap:round;stroke-linejoin:round;stroke-width:10px"/><path d="M905.55,456.56a19,19,0,0,0,3.48,7.25c14.44,20.49,70,56.07,121,45.39a85.4,85.4,0,0,0,14.88-4.54c56.59-23.13,88.39,49.28,102.35,96.32-4.85-28-10.62-56.81-17.16-84.76C1100.86,391,869,399.4,869,399.4S902.29,437.63,905.55,456.56Z" style="fill:none;stroke:#231f20;stroke-linecap:round;stroke-linejoin:round;stroke-width:10px"/></g></g></svg>