<svg id="R_EAR_ASSET" data-name="R EAR ASSET" xmlns="http://www.w3.org/2000/svg" viewBox="0 0 1440 1440"><g id="Normal"><g id="RE_C" data-name="RE C"><path d="M899.58,436.11c19.58-39.75,60.25-78.65,143.88-51,33.06,10.93,55.22,29.59,70.12,52.81h0c21,28.52,63.32,96.47,74.52,194.53,8.63,75.51-8.68,128.53-30.8,163.17-15.47,24.23-33.31,39.45-46.26,47.06l0,0a90.44,90.44,0,0,1-42,9s-13.48-.76-23.44-5.18" style="fill:#bbbcbe"/><path d="M1157.31,795.62c-15.47,24.22-33.31,39.45-46.25,47.06l0,0a90.4,90.4,0,0,1-42,9s-13.49-.76-23.44-5.18l-146-410.38c1.44-2.92,3-5.82,4.65-8.7l141.31,397.3c10,4.42,23.44,5.18,23.44,5.18a90.28,90.28,0,0,0,42-9l0,0c12.94-7.6,30.78-22.83,46.25-47.06,16.94-26.51,31.06-63.81,32.87-113.72C1192.27,721.12,1176.63,765.37,1157.31,795.62Z" style="fill:#818385"/><path d="M1190.07,684.57q-.52-11.88-2-24.58c-11.2-98-53.49-166-74.52-194.52h0c-14.89-23.22-37.06-41.88-70.12-52.81-76-25.1-116.48,4.7-137.94,40.16l-5.94-16.69c19.59-39.75,60.26-78.66,143.88-51,33.06,10.93,55.23,29.58,70.12,52.8h0c21,28.53,63.32,96.48,74.52,194.53A326.74,326.74,0,0,1,1190.07,684.57Z" style="fill:#e1e1e1"/><path d="M937.16,466c17.61-13,43.3-18.7,80.64-6.35,26.17,8.65,43,23.91,54,42.83h0s0,0,0,.07l0,0c2.14,3.58,41.26,70.57,41.26,172.79a403.76,403.76,0,0,1-3.52,53.07c-.41,26.58-16.79,55.53-43.49,67.76" style="fill:#231f20"/><path d="M1066.1,796.29c26.7-12.23,43.08-41.18,43.49-67.76a403.76,403.76,0,0,0,3.52-53.07c0-102.22-39.12-169.21-41.26-172.79l0,0s0-.05,0-.07h0c-10.9-18.92-27.78-34.18-54-42.83-37.34-12.35-63-6.62-80.64,6.35" style="fill:#f4c1d9"/><path d="M1113.11,675.46a405.31,405.31,0,0,1-3.51,53.07c-.34,21.73-11.35,45.05-29.95,59.52,10.68-13.58,16.78-30.53,17-46.6a403.62,403.62,0,0,0,3.5-53.07c0-102.22-39.11-169.21-41.25-172.79l0,0a.08.08,0,0,1,0-.07h0c-10.9-18.92-27.79-34.18-53.95-42.83-28-9.26-49.46-8.35-65.87-1.83l-1.84-4.73c17.6-13,43.29-18.7,80.64-6.35,26.16,8.64,43,23.91,53.94,42.82h0s0,0,0,.07l0,0C1074,506.26,1113.11,573.24,1113.11,675.46Z" style="fill:#b7819a"/></g><g id="Right_Ear_Outline" data-name="Right Ear Outline"><path d="M899.58,436.11c19.58-39.75,60.25-78.65,143.88-51,33.06,10.93,55.22,29.59,70.12,52.81h0c21,28.52,63.32,96.47,74.52,194.53,8.63,75.51-8.68,128.53-30.8,163.17-15.47,24.23-33.31,39.45-46.26,47.06l0,0a90.44,90.44,0,0,1-42,9s-13.48-.76-23.44-5.18" style="fill:none;stroke:#231f20;stroke-linecap:round;stroke-linejoin:round;stroke-width:10px"/><path d="M937.16,466c17.61-13,43.3-18.7,80.64-6.35,26.17,8.65,43,23.91,54,42.83h0s0,0,0,.07l0,0c2.14,3.58,41.26,70.57,41.26,172.79a403.76,403.76,0,0,1-3.52,53.07c-.41,26.58-16.79,55.53-43.49,67.76" style="fill:none;stroke:#231f20;stroke-linecap:round;stroke-linejoin:round;stroke-width:10px"/><path d="M1066.1,796.29c26.7-12.23,43.08-41.18,43.49-67.76a403.76,403.76,0,0,0,3.52-53.07c0-102.22-39.12-169.21-41.26-172.79l0,0s0-.05,0-.07h0c-10.9-18.92-27.78-34.18-54-42.83-37.34-12.35-63-6.62-80.64,6.35" style="fill:none;stroke:#231f20;stroke-linecap:round;stroke-linejoin:round;stroke-width:10px"/><path d="M937.16,466s-18.48,21.46-20.47,46.42-14,187.68,85.85,264.54c0,0,31.28,25.61,63.56,19.3" style="fill:none;stroke:#231f20;stroke-linecap:round;stroke-linejoin:round;stroke-width:10px"/><path d="M899.57,436.11S851,553.65,894.72,691.36C932.66,811,1045.54,846.49,1045.54,846.49" style="fill:none;stroke:#231f20;stroke-linecap:round;stroke-linejoin:round;stroke-width:10px"/></g></g></svg>