<svg id="R_EAR_ASSET" data-name="R EAR ASSET" xmlns="http://www.w3.org/2000/svg" viewBox="0 0 1440 1440"><g id="Small_Ears" data-name="Small Ears"><g id="Layer_90" data-name="Layer 90"><path d="M946.83,458.63c11.47-23.28,35.28-46.06,84.25-29.88,19.36,6.4,32.34,17.33,41.06,30.92h0c12.32,16.7,37.08,56.49,43.64,113.9,5,44.22-5.08,75.26-18,95.55-9.06,14.18-15.51,23.1-23.09,27.55h0A52.82,52.82,0,0,1,1050,702s-7.89-.44-13.72-3" style="fill:#bbbcbe"/><path d="M1097.75,669.13c-9.06,14.19-15.5,23.1-23.09,27.55l0,0A53,53,0,0,1,1050,702s-7.9-.45-13.73-3L946.83,458.63c.85-1.71,1.75-3.41,2.73-5.09l82.74,232.63c5.83,2.59,13.72,3,13.72,3a52.82,52.82,0,0,0,24.62-5.26h0c7.58-4.45,18-13.37,27.09-27.56,9.91-15.52,18.18-37.36,19.24-66.59C1118.22,625.51,1109.06,651.42,1097.75,669.13Z" style="fill:#818385"/><path d="M1116.93,604.11c-.21-4.64-.58-9.43-1.15-14.4-6.56-57.41-31.32-97.2-43.63-113.9h0c-8.72-13.6-21.7-24.52-41.06-30.92-44.47-14.7-68.2,2.75-80.77,23.51l-3.48-9.77c11.47-23.28,35.29-46.06,84.25-29.88,19.36,6.4,32.34,17.33,41.06,30.92h0c12.31,16.7,37.07,56.49,43.63,113.9A192.13,192.13,0,0,1,1116.93,604.11Z" style="fill:#e1e1e1"/><path d="M968.84,476.15c10.31-7.59,25.35-10.95,47.22-3.72,15.32,5.06,25.2,14,31.59,25.08h0s0,0,0,0v0c1.26,2.09,24.16,41.32,24.16,101.17a238.25,238.25,0,0,1-2,31.08c-.25,15.56-9.84,32.51-25.47,39.67" style="fill:#231f20"/><path d="M1044.34,669.52c15.63-7.16,25.22-24.11,25.47-39.67a238.25,238.25,0,0,0,2-31.08c0-59.85-22.9-99.08-24.16-101.17v0s0,0,0,0h0c-6.39-11.08-16.27-20-31.59-25.08-21.87-7.23-36.91-3.87-47.22,3.72" style="fill:#f4c1d9"/><path d="M1071.86,598.77a236.4,236.4,0,0,1-2,31.08,46.41,46.41,0,0,1-17.54,34.85,46.18,46.18,0,0,0,10-27.29,236.33,236.33,0,0,0,2.06-31.07c0-59.86-22.91-99.08-24.16-101.18l0,0,0,0h0c-6.38-11.07-16.27-20-31.59-25.07-16.4-5.43-29-4.89-38.57-1.08l-1.08-2.77c10.31-7.59,25.35-10.95,47.22-3.72,15.32,5.07,25.21,14,31.59,25.08h0l0,.05,0,0C1049,499.7,1071.86,538.92,1071.86,598.77Z" style="fill:#b7819a"/></g><g id="Layer_91" data-name="Layer 91"><path d="M946.83,458.63c11.47-23.28,35.28-46.06,84.25-29.88,19.36,6.4,32.34,17.33,41.06,30.92h0c12.32,16.7,37.08,56.49,43.64,113.9,5,44.22-5.08,75.26-18,95.55-9.06,14.18-15.51,23.1-23.09,27.55h0A52.82,52.82,0,0,1,1050,702s-7.89-.44-13.72-3" style="fill:none;stroke:#231f20;stroke-linecap:round;stroke-linejoin:round;stroke-width:10px"/><path d="M968.84,476.15c10.31-7.59,25.35-10.95,47.22-3.72,15.32,5.06,25.2,14,31.59,25.08h0s0,0,0,0v0c1.26,2.09,24.16,41.32,24.16,101.17a238.25,238.25,0,0,1-2,31.08c-.25,15.56-9.84,32.51-25.47,39.67" style="fill:none;stroke:#231f20;stroke-linecap:round;stroke-linejoin:round;stroke-width:10px"/><path d="M1044.34,669.52c15.63-7.16,25.22-24.11,25.47-39.67a238.25,238.25,0,0,0,2-31.08c0-59.85-22.9-99.08-24.16-101.17v0s0,0,0,0h0c-6.39-11.08-16.27-20-31.59-25.08-21.87-7.23-36.91-3.87-47.22,3.72" style="fill:none;stroke:#231f20;stroke-linecap:round;stroke-linejoin:round;stroke-width:10px"/><path d="M968.84,476.15s-10.82,12.57-12,27.18-8.18,109.89,50.27,154.9c0,0,18.32,15,37.22,11.3" style="fill:none;stroke:#231f20;stroke-linecap:round;stroke-linejoin:round;stroke-width:10px"/><path d="M946.83,458.63S918.41,527.45,944,608.08c22.21,70,92.31,90.84,92.31,90.84" style="fill:none;stroke:#231f20;stroke-linecap:round;stroke-linejoin:round;stroke-width:10px"/></g></g></svg>