<svg id="HAT_ASSETS" data-name="HAT ASSETS" xmlns="http://www.w3.org/2000/svg" viewBox="0 0 1440 1440"><g id="Baseball_Cap" data-name="Baseball Cap"><g id="Layer_96" data-name="Layer 96"><line x1="583.03" y1="416.9" x2="583.01" y2="416.9" style="fill:#fff"/><path d="M730.11,377.52a863.41,863.41,0,0,1-139.33,23.76C571.87,371.71,568.11,290.8,573.72,272c5.13-17.19,22.93-39.14,22.93-39.14,3.76-.88,7.61-1.62,11.51-2.23a163.36,163.36,0,0,1,16.76-1.73c1.53-.08,3-.13,4.56-.16,3.8-.08,7.55-.05,11.26.13,0,0,37.15,13.06,54.83,35.47C708.78,281.1,728.55,317.55,730.11,377.52Z" style="fill:#d82121"/><path d="M590.78,401.28h0c-8.21.72-15.8,1.24-22.71,1.65-5.57.33-10.69.56-15.32.73s-8.54.28-12.08.34c-11.29.2-17.54,0-17.54,0a139.93,139.93,0,0,1-11.4-27,165.07,165.07,0,0,1-7-46.93c0-2.34.06-4.29.11-5.75l0-.61a3,3,0,0,0,0-.42,2,2,0,0,0,0-.33,2,2,0,0,1,0-.34.34.34,0,0,0,0-.1v0a1,1,0,0,0,0-.17.32.32,0,0,1,0-.14,1.08,1.08,0,0,1,0-.18.33.33,0,0,1,0-.14,0,0,0,0,0,0,0v-.08a0,0,0,0,0,0,0s0-.07,0-.1a.32.32,0,0,1,0-.13.65.65,0,0,0,0-.14c0-.12,0-.18,0-.18,3.92-41.3,41.2-76.49,91.62-88.23,0,0-17.8,21.95-22.93,39.14C568.11,290.8,571.87,371.71,590.78,401.28Z" style="fill:#fff"/><path d="M504.71,330.12V330c0-1.93,0-3.84.11-5.75" style="fill:#fff"/><path d="M504.92,322.55a2,2,0,0,0,0,.34" style="fill:#fff"/><path d="M730.11,377.52c-1.56-60-21.33-96.42-34.54-113.17-17.68-22.41-54.83-35.47-54.83-35.47,46.71,2.19,86.45,24.52,104.26,56.53h0c6.29,8.88,13.37,33,18.39,52.63,4,15.48,6.64,28.1,6.64,28.1Q749.69,372.51,730.11,377.52Z" style="fill:#fff"/><path d="M590.78,398.28h0c-8.21.72-15.8,1.24-22.71,1.65-5.57.33-10.69.56-15.32.73s-8.54.28-12.08.34c-11.29.2-17.54,0-17.54,0a136.36,136.36,0,0,1-6.23-12.78c3.14,0,7.76,0,13.7-.1,3.75-.08,8-.19,12.77-.37s10.3-.44,16.19-.78c7.3-.42,15.33-1,24-1.71h0l.88-.08A71.09,71.09,0,0,0,590.78,398.28Z" style="fill:#c1c1c1"/><path d="M770,363.15q-20.34,6.36-39.92,11.37-.18-6.76-.65-13.12l1.41-.34q17.89-4.43,36.48-9.81C769,358.44,770,363.15,770,363.15Z" style="fill:#c1c1c1"/><path d="M505,321.28a2,2,0,0,0,0,.27" style="fill:#fff"/><path d="M505,321.68a.41.41,0,0,1,0,.11" style="fill:#fff"/><path d="M505,321.93c0,.14,0,.3,0,.49" style="fill:#fff"/><path d="M504.9,322.89c0,.1,0,.21,0,.33" style="fill:#fff"/><path d="M830.23,402c-16,0-35.39-1.19-50.87,4.08-24.59,8.37-114.93,45.64-166.5,32.35a229.35,229.35,0,0,1-29.1-20.9c4.39,1.59,8.9,3,13.51,4.35,51.28,14.5,143.25-23.47,168.1-31.92,12-4.1,26.39-4.31,39.69-4.18C814.13,391.18,823.29,396.93,830.23,402Z" style="fill:#d82121"/><path d="M841,416.1c-11.83,6.45-40.6-2-60.88,6.24s-95.33,45.33-137.49,30.36a165,165,0,0,1-29.73-14.26c51.57,13.29,141.91-24,166.5-32.35,15.48-5.27,34.92-4.11,50.87-4.08C839.3,408.64,844.58,414.12,841,416.1Z" style="fill:#fff"/><path d="M805.06,385.79c-13.3-.13-27.68.08-39.69,4.18-24.85,8.45-116.82,46.42-168.1,31.92-4.61-1.3-9.12-2.76-13.51-4.35l-.75-.64a193.45,193.45,0,0,1-15-14c6.91-.41,14.5-.93,22.71-1.65h0a863.41,863.41,0,0,0,139.33-23.76q19.54-5,39.92-11.37S787.38,375.27,805.06,385.79Z" style="fill:#fff"/><path d="M642,441.23c-10.48.26-20.34-.54-29.09-2.79a229.35,229.35,0,0,1-29.1-20.9c4.39,1.59,8.9,3,13.51,4.35a81.54,81.54,0,0,0,11.62,2.34c1.91,1.23,3.87,2.46,5.88,3.67A168.18,168.18,0,0,0,642,441.23Z" style="fill:#8c2121"/><path d="M841,416.1c-11.83,6.45-40.6-2-60.88,6.24s-95.33,45.33-137.49,30.36a165,165,0,0,1-29.73-14.26c8.75,2.25,18.61,3.05,29.09,2.79.84.32,1.7.63,2.55.93C686.66,457.13,761.71,420,782,411.8c17.48-7.09,41.27-1.8,55.08-4.34C841.62,411.54,843.52,414.7,841,416.1Z" style="fill:#c1c1c1"/><path d="M608.89,424.23a81.54,81.54,0,0,1-11.62-2.34c-4.61-1.3-9.12-2.76-13.51-4.35l-.75-.64a193.45,193.45,0,0,1-15-14c3.8-.23,7.81-.48,12-.79,1.47,1.31,3.09,2.73,4.84,4.21l.75.65A234,234,0,0,0,608.89,424.23Z" style="fill:#c1c1c1"/><path d="M629.48,228.75a7.83,7.83,0,0,0,.37-2.78c-.26-5.12-5.56-9-11.85-8.71s-11.16,4.74-10.9,9.86a7.46,7.46,0,0,0,1.06,3.52" style="fill:#d82121"/><path d="M730.3,374.55a876.75,876.75,0,0,1-140.45,23.76,70.46,70.46,0,0,1-6.39-13.13,978.1,978.1,0,0,0,146.19-23.75Q730.12,367.79,730.3,374.55Z" style="fill:#8c2121"/></g><g id="Layer_97" data-name="Layer 97"><line x1="583.03" y1="416.9" x2="583.01" y2="416.9" style="fill:none;stroke:#231f20;stroke-linecap:round;stroke-linejoin:round;stroke-width:10px"/><path d="M504.71,330.12V330c0-2.27,0-4.53.16-6.76a1.42,1.42,0,0,0,0-.35,4.92,4.92,0,0,1,.06-.64.22.22,0,0,1,0-.14,2,2,0,0,1,0-.35,1.32,1.32,0,0,1,0-.34c0-.21,0-.32,0-.32,3.92-41.3,41.2-76.49,91.63-88.23q5.64-1.32,11.5-2.23a160.33,160.33,0,0,1,16.76-1.73c1.53-.08,3-.13,4.56-.16,3.8-.09,7.55-.05,11.26.14,46.71,2.17,86.46,24.51,104.26,56.53" style="fill:none;stroke:#231f20;stroke-linecap:round;stroke-linejoin:round;stroke-width:10px"/><path d="M505,321.1s0,.06,0,.18a1.84,1.84,0,0,0,0,.26s0,.06,0,.1a0,0,0,0,1,0,0,2.36,2.36,0,0,1,0,.25c0,.15,0,.33,0,.53v.1a1.88,1.88,0,0,0,0,.34c0,.1,0,.21,0,.33a3,3,0,0,1,0,.42c-.07,1.52-.14,3.67-.14,6.36a165,165,0,0,0,7,46.92A140,140,0,0,0,523.12,404s6.25.22,17.54,0c3.54-.07,7.58-.17,12.08-.34,10.37-.39,23.2-1.1,38-2.38A855.38,855.38,0,0,0,770,366.15s-2.68-12.63-6.64-28.1c-5-19.6-12.1-43.76-18.39-52.63h0" style="fill:none;stroke:#231f20;stroke-linecap:round;stroke-linejoin:round;stroke-width:10px"/><path d="M770,366.15s17.35,9.12,35,19.64c9.07,5.38,18.23,11.14,25.17,16.21,9.07,6.64,14.35,12.12,10.73,14.1-11.83,6.44-40.6-2-60.88,6.24s-95.33,45.32-137.49,30.36a165,165,0,0,1-29.73-14.26,229.35,229.35,0,0,1-29.1-20.9l-.75-.65a191,191,0,0,1-15-13.94" style="fill:none;stroke:#231f20;stroke-linecap:round;stroke-linejoin:round;stroke-width:10px"/><path d="M629.48,228.75a7.83,7.83,0,0,0,.37-2.78c-.26-5.12-5.56-9-11.85-8.71s-11.16,4.74-10.9,9.86a7.46,7.46,0,0,0,1.06,3.52" style="fill:none;stroke:#231f20;stroke-linecap:round;stroke-linejoin:round;stroke-width:10px"/></g></g></svg>