<svg id="HAT_ASSETS" data-name="HAT ASSETS" xmlns="http://www.w3.org/2000/svg" viewBox="0 0 1440 1440"><g id="Snow"><g id="Layer_86" data-name="Layer 86"><path d="M769.51,366.89c-32.83-9.53-65.76-8.06-126.4-2.15-64.33,6.28-142,46.47-142,46.47-16.91-10.64-9.1-38.7-9.1-38.7,2.35-1.52,4.64-3,6.9-4.42,52.24-33,82.31-41.94,140.17-49.94,52.27-7.24,94.24-7.56,117,.47a43.94,43.94,0,0,1,9.17,4.33C784.44,335.25,769.51,366.89,769.51,366.89Z" style="fill:#9cceff"/><path d="M774.38,350.83a68.16,68.16,0,0,1-4.87,16.06c-32.83-9.53-65.76-8.06-126.4-2.15-64.33,6.28-142,46.47-142,46.47-5.82-3.66-8.71-9.39-10-15.33,8.75-4.2,85.71-40.43,150.06-46.53C705,343.3,739.88,341.7,774.38,350.83Z" style="fill:#7692ff"/><path d="M756.11,318.62c-22.75-8-64.72-7.71-117-.47-57.86,8-87.93,17-140.17,49.94,0-5.86,1.84-116.92,82.88-145.22l.49-.18a111.81,111.81,0,0,1,10.86-3.11,137.41,137.41,0,0,1,41.53-3.33C706.27,221.59,754.28,284.17,756.11,318.62Z" style="fill:#9cceff"/><path d="M756.11,318.62c-1.25-.44-2.57-.86-3.94-1.25-13-34.8-56.75-80.52-117.46-85.05a137.41,137.41,0,0,0-41.53,3.33,111.82,111.82,0,0,0-10.86,3.12l-.49.17C518.36,261.1,503.5,334,500,367.42l-1.07.67c0-5.86,1.84-116.92,82.88-145.22l.49-.18a111.81,111.81,0,0,1,10.86-3.11,137.41,137.41,0,0,1,41.53-3.33C706.27,221.59,754.28,284.17,756.11,318.62Z" style="fill:#cbe4f7"/><path d="M756.11,318.62c0,.28,0,.56,0,.84" style="fill:#231f20"/><path d="M635.21,210.93a18.19,18.19,0,0,1-.5,5.32,137.41,137.41,0,0,0-41.53,3.33,111.81,111.81,0,0,0-10.86,3.11l-.49.18a18.91,18.91,0,0,1-2.87-9.06c-.65-12.53,11.43-23.33,27-24.13S634.57,198.39,635.21,210.93Z" style="fill:#9cceff"/></g><g id="Layer_87" data-name="Layer 87"><path d="M769.51,366.89c-32.84-9.53-65.77-8.07-126.4-2.15-64.33,6.28-142,46.47-142,46.47-16.91-10.64-9.1-38.7-9.1-38.7,56.59-36.63,86.71-46,147.07-54.37s107-7.48,126.16,4.81S769.51,366.89,769.51,366.89Z" style="fill:none;stroke:#231f20;stroke-linecap:round;stroke-linejoin:round;stroke-width:10px"/><path d="M499,368.09c0-5.87,1.85-117.37,83.37-145.4a111.81,111.81,0,0,1,10.86-3.11c94-21.84,160.76,58.28,162.93,99" style="fill:none;stroke:#231f20;stroke-linecap:round;stroke-linejoin:round;stroke-width:10px"/><path d="M581.83,222.87a18.91,18.91,0,0,1-2.87-9.06c-.65-12.53,11.43-23.33,27-24.13s28.64,8.71,29.28,21.25a18.19,18.19,0,0,1-.5,5.32" style="fill:none;stroke:#231f20;stroke-linecap:round;stroke-linejoin:round;stroke-width:10px"/><path d="M517.92,356.62s7.42,23.7,8.19,42.85" style="fill:none;stroke:#231f20;stroke-linecap:round;stroke-linejoin:round;stroke-width:10px"/><path d="M557.14,337.38s11.86,24.3,10.33,45" style="fill:none;stroke:#231f20;stroke-linecap:round;stroke-linejoin:round;stroke-width:10px"/><path d="M599.82,324.76s13.6,17.81,9.9,46.9" style="fill:none;stroke:#231f20;stroke-linecap:round;stroke-linejoin:round;stroke-width:10px"/><path d="M645.91,317.23s12.71,27.95,6.32,47.18" style="fill:none;stroke:#231f20;stroke-linecap:round;stroke-linejoin:round;stroke-width:10px"/><path d="M691.82,313.48s10.45,31.36,3.43,48.08" style="fill:none;stroke:#231f20;stroke-linecap:round;stroke-linejoin:round;stroke-width:10px"/><path d="M735.55,314.14s8.14,27.64-.95,47.42" style="fill:none;stroke:#231f20;stroke-linecap:round;stroke-linejoin:round;stroke-width:10px"/></g></g></svg>