<svg id="HAT_ASSETS" data-name="HAT ASSETS" xmlns="http://www.w3.org/2000/svg" viewBox="0 0 1440 1440"><g id="Candle"><g id="Layer_76" data-name="Layer 76"><path d="M636.84,153.71c-1.64,4.81-6,9.11-11.43,11.81a23.33,23.33,0,0,1-8.46,2.32,40.77,40.77,0,0,1-11.69-.9,47.75,47.75,0,0,1-6.61-1.85c-4.53-1.63-8.65-4.07-11.14-7.47-4.57-6.26-2.45-13.92.89-20.22,16.16-30.53,15.74-22.81,11.92-35.46-1-3.39,4.31-.29,5.52.49a78.11,78.11,0,0,1,14.6,12.68,79.27,79.27,0,0,1,13.67,19C637.09,140.29,639.05,147.23,636.84,153.71Z" style="fill:#ef7430"/><path d="M636.84,153.71c-1.64,4.81-6,9.11-11.43,11.81a23.33,23.33,0,0,1-8.46,2.32,40.77,40.77,0,0,1-11.69-.9,47.75,47.75,0,0,1-6.61-1.85,25.82,25.82,0,0,1-9.63-5.72,47.75,47.75,0,0,0,5.41,1.44,40.77,40.77,0,0,0,11.69.9,23.33,23.33,0,0,0,8.46-2.32c5.39-2.7,9.79-7,11.43-11.81,2.21-6.48.25-13.42-2.73-19.55a79.27,79.27,0,0,0-13.67-19,95.53,95.53,0,0,0-8.94-8.53c1.19-.41,4.28,1.41,5.17,2a78.11,78.11,0,0,1,14.6,12.68,79.27,79.27,0,0,1,13.67,19C637.09,140.29,639.05,147.23,636.84,153.71Z" style="fill:#d35a1e"/><path d="M650.36,226.47c11.87-2.9,19.94-6.65,20.88-10.08" style="fill:#ffffe9"/><path d="M583.09,226.3a2.55,2.55,0,0,1-.47-1.07" style="fill:#ffffe9"/><path d="M583.11,226.32c2.44,3.2,12.4,5,25.79,5,1.1,0,2.21,0,3.35,0" style="fill:#ffffe9"/><path d="M658.21,389.18c-24.49,2.73-45.18.5-46.21-5,0-.28,0-.58,0-.87h0c.39-87.71-24.93-148.1-28.89-157l0,0c-.26-.59-.43-1-.47-1.07s0,0,0,0c-1-5.45,17.79-12.06,42-14.83l.48-.06,1.15-.11c24-2.54,44.05-.31,45.05,5.11a2.08,2.08,0,0,1-.08,1.1c-.55,9-3.12,72.69,29.18,157.09l0,0,.29.77C701.73,379.78,682.72,386.44,658.21,389.18Z" style="fill:#ffffe9"/><path d="M610,231.34H608.9c-13.39,0-23.35-1.82-25.79-5" style="fill:#ffffe9"/><path d="M650.36,226.47c11.87-2.9,19.94-6.65,20.88-10.08" style="fill:#ffffe9"/><line x1="626.06" y1="217.96" x2="621.03" y2="190.92" style="fill:#ffffe9"/></g><g id="Candle-2" data-name="Candle"><path d="M617,167.84a40.84,40.84,0,0,1-11.7-.9,48.14,48.14,0,0,1-6.61-1.85c-4.53-1.63-8.65-4.07-11.13-7.47-4.58-6.26-2.46-13.92.88-20.22,16.16-30.53,15.74-22.81,11.92-35.46-1-3.39,4.31-.29,5.53.49a78.37,78.37,0,0,1,14.59,12.68,79.27,79.27,0,0,1,13.67,19c3,6.13,4.94,13.07,2.73,19.55-1.64,4.81-6,9.11-11.42,11.81A23.38,23.38,0,0,1,617,167.84Z" style="fill:none;stroke:#231f20;stroke-linecap:round;stroke-linejoin:round;stroke-width:10px"/><path d="M612.25,231.3c-15.06.33-26.5-1.52-29.14-5l0,0a2.55,2.55,0,0,1-.47-1.07.1.1,0,0,1,0,0c-1-5.49,18-12.15,42.52-14.89l1.15-.11c24-2.54,44.05-.31,45.05,5.11a2,2,0,0,1-.08,1.1c-.94,3.43-9,7.18-20.88,10.08" style="fill:none;stroke:#231f20;stroke-linecap:round;stroke-linejoin:round;stroke-width:10px"/><path d="M583.11,226.32l0,0-.47-1.07a.1.1,0,0,1,0,0" style="fill:none;stroke:#231f20;stroke-linecap:round;stroke-linejoin:round;stroke-width:10px"/><path d="M650.36,226.47c11.87-2.9,19.94-6.65,20.88-10.08-.55,9-3.12,72.69,29.18,157.09l0,0c.09.26.19.51.28.77,1,5.5-18,12.16-42.52,14.9s-45.18.5-46.21-5c0-.28,0-.58,0-.87h0c.39-87.71-24.93-148.1-28.89-157,2.51,3.29,12.94,5.12,26.87,5" style="fill:none;stroke:#231f20;stroke-linecap:round;stroke-linejoin:round;stroke-width:10px"/><line x1="626.06" y1="217.96" x2="621.03" y2="190.92" style="fill:none;stroke:#231f20;stroke-linecap:round;stroke-linejoin:round;stroke-width:10px"/></g></g></svg>