<svg id="HAT_ASSETS" data-name="HAT ASSETS" xmlns="http://www.w3.org/2000/svg" viewBox="0 0 1440 1440"><g id="Chef_Hat" data-name="Chef Hat"><g id="Layer_34" data-name="Layer 34"><path d="M709.86,287c-.47,0-1,.07-1.42.1.69,5.31,1.52,10.75,2.52,16.27a328.89,328.89,0,0,0,11,43.75c-4.34,3.08-11.36,6.26-20.38,9.29a273.28,273.28,0,0,1-30.71,8.11c-9.42,2-19.64,3.73-30.35,5.16s-21,2.42-30.64,3a273.08,273.08,0,0,1-31.77.25c-9.5-.56-17.12-1.78-22.1-3.61a330.65,330.65,0,0,0-.86-45.1q-.75-8.4-1.85-16.37l-1.4.28c-1.17.22-2.36.42-3.55.58-2.08.27-4.16.45-6.22.53a64.79,64.79,0,1,1,8.08-128.69A64.78,64.78,0,0,1,678,163.5a64.86,64.86,0,0,1,87,34.77,64.83,64.83,0,0,1-45.37,87.27c-2,.47-4.07.85-6.14,1.12C712.25,286.82,711.05,286.94,709.86,287Z" style="fill:#fff"/><path d="M711.1,386.3c-15.76,5.94-39.49,11.54-66.32,15.13s-51.2,4.41-68,2.82c-13.85-1.31-22.52-4.28-23.11-8.72l.24-2c.92-7.45,1.66-15.55,2.1-24.22,5,1.83,12.6,3,22.1,3.61a273.08,273.08,0,0,0,31.77-.25c9.61-.57,19.92-1.56,30.64-3s20.93-3.19,30.35-5.16a273.28,273.28,0,0,0,30.71-8.11c9-3,16-6.21,20.38-9.29,2.69,8.26,5.54,15.88,8.39,22.82.25.61.5,1.21.76,1.82C731.72,376.24,724.13,381.39,711.1,386.3Z" style="fill:#fff"/><path d="M711.1,386.3c-15.76,5.94-39.49,11.54-66.32,15.13s-51.2,4.41-68,2.82c-13.85-1.31-22.52-4.28-23.11-8.72l.24-2c.28-2.27.54-4.61.78-7,2.73,3.25,10.64,5.47,22.09,6.55,16.78,1.59,41.15.76,68-2.82s50.56-9.19,66.32-15.13c8.3-3.13,14.4-6.36,17.57-9.43.56,1.44,1.13,2.86,1.7,4.24.25.61.5,1.21.76,1.82C731.72,376.24,724.13,381.39,711.1,386.3Z" style="fill:#b2b2b2"/><path d="M731.13,371.8c-.26-.61-.51-1.21-.76-1.82A4,4,0,0,1,731.13,371.8Z" style="fill:#fff"/><path d="M553.93,393.57l-.24,2A4.06,4.06,0,0,1,553.93,393.57Z" style="fill:#fff"/><path d="M553.93,393.57l-.24,2A4.06,4.06,0,0,1,553.93,393.57Z" style="fill:#fff"/><path d="M731.13,371.8c-.26-.61-.51-1.21-.76-1.82A4,4,0,0,1,731.13,371.8Z" style="fill:#fff"/><line x1="609.89" y1="372.71" x2="610.59" y2="404.36" style="fill:#fff"/><line x1="678.54" y1="395.27" x2="670.89" y2="364.56" style="fill:#fff"/></g><g id="Chef_Hat-2" data-name="Chef Hat"><path d="M769.07,213.87a64.79,64.79,0,0,1-49.48,71.67q-3,.7-6.14,1.12c-1.2.16-2.4.29-3.59.38l-1.42.1q1,8,2.52,16.28a330.67,330.67,0,0,0,11,43.74c-11.81,8.4-43.53,17.48-81.44,22.55s-70.93,4.64-84.51-.36a330.62,330.62,0,0,0-.86-45.1q-.75-8.4-1.85-16.37l-1.4.28c-1.17.22-2.36.41-3.55.57-2.09.28-4.15.46-6.22.53a64.78,64.78,0,1,1,8.09-128.68A64.78,64.78,0,0,1,678,163.5a64.76,64.76,0,0,1,91.1,50.37Z" style="fill:none;stroke:#231f20;stroke-linecap:round;stroke-linejoin:round;stroke-width:7.10279285907745px"/><path d="M731.12,371.8c1.31,9.82-37.34,23.08-86.34,29.63s-89.78,3.91-91.09-5.9c.08-.65.16-1.31.25-2,.91-7.44,1.66-15.55,2.09-24.22,13.58,5,46.59,5.43,84.51.36s69.63-14.15,81.44-22.55c2.69,8.26,5.54,15.88,8.38,22.82C730.62,370.59,730.87,371.2,731.12,371.8Z" style="fill:none;stroke:#231f20;stroke-linecap:round;stroke-linejoin:round;stroke-width:7.10279285907745px"/><path d="M556,369.35a330.62,330.62,0,0,0-.86-45.1q-.75-8.4-1.85-16.37l-1.4.28" style="fill:none;stroke:#231f20;stroke-linecap:round;stroke-linejoin:round;stroke-width:7.10279285907745px"/><path d="M709.86,287l-1.42.1q1,8,2.52,16.28a330.67,330.67,0,0,0,11,43.74" style="fill:none;stroke:#231f20;stroke-linecap:round;stroke-linejoin:round;stroke-width:7.10279285907745px"/><path d="M731.12,371.8c-.25-.6-.5-1.21-.76-1.82A3.91,3.91,0,0,1,731.12,371.8Z" style="fill:none;stroke:#231f20;stroke-linecap:round;stroke-linejoin:round;stroke-width:7.10279285907745px"/><path d="M553.94,393.57c-.09.65-.17,1.31-.25,2A4,4,0,0,1,553.94,393.57Z" style="fill:none;stroke:#231f20;stroke-linecap:round;stroke-linejoin:round;stroke-width:7.10279285907745px"/><path d="M553.69,395.53a4,4,0,0,1,.25-2C553.85,394.22,553.77,394.88,553.69,395.53Z" style="fill:none;stroke:#231f20;stroke-linecap:round;stroke-linejoin:round;stroke-width:7.10279285907745px"/><path d="M731.12,371.8c-.25-.6-.5-1.21-.76-1.82A3.91,3.91,0,0,1,731.12,371.8Z" style="fill:none;stroke:#231f20;stroke-linecap:round;stroke-linejoin:round;stroke-width:7.10279285907745px"/><line x1="640.54" y1="369.71" x2="644.78" y2="401.43" style="fill:none;stroke:#231f20;stroke-linecap:round;stroke-linejoin:round;stroke-width:7.10279285907745px"/><line x1="578.13" y1="372.96" x2="576.8" y2="404.25" style="fill:none;stroke:#231f20;stroke-linecap:round;stroke-linejoin:round;stroke-width:7.10279285907745px"/><line x1="609.89" y1="372.71" x2="610.59" y2="404.36" style="fill:none;stroke:#231f20;stroke-linecap:round;stroke-linejoin:round;stroke-width:7.10279285907745px"/><line x1="701.6" y1="356.45" x2="711.1" y2="386.3" style="fill:none;stroke:#231f20;stroke-linecap:round;stroke-linejoin:round;stroke-width:7.10279285907745px"/><line x1="678.54" y1="395.27" x2="670.89" y2="364.56" style="fill:none;stroke:#231f20;stroke-linecap:round;stroke-linejoin:round;stroke-width:7.10279285907745px"/></g></g></svg>