<svg id="HAT_ASSETS" data-name="HAT ASSETS" xmlns="http://www.w3.org/2000/svg" viewBox="0 0 1440 1440"><g id="Cowboy"><g id="Layer_77" data-name="Layer 77"><path d="M644.22,256.11a81.55,81.55,0,0,1,7.61,4.42c29.71,19.33,41.49,13.2,41.49,13.2" style="fill:none;stroke:#231f20;stroke-linecap:round;stroke-linejoin:round;stroke-width:10px"/><path d="M644.22,256.11a81.55,81.55,0,0,1,7.61,4.42c29.71,19.33,41.49,13.2,41.49,13.2" style="fill:#994f17"/><path d="M754.14,371.33c-1,2.72-4.32,5.33-4.32,5.33S724.28,405,670.36,403.94a286.56,286.56,0,0,1-48.55-5.08s-31.6-5.31-65.18-25.67c1.63-7,3.67-15.31,4.79-19.79,0,0,55.81,22.18,109.74,23.24,53.11,1,77.9-22.5,78.65-23.22C752.2,363.93,754.14,371.33,754.14,371.33Z" style="fill:#cea284"/><path d="M796,467.17l-.07,0-.37.14c-.64.25-2,.73-4,1.36,0,0-130,52.73-240.35-7.7C450.09,405.6,470.4,359.07,471.06,357.6a.06.06,0,0,0,0,0c.5-1.76,1.76-3.27,3-5.09,18.55-27.63,55.39-13.3,80.22,24.67.32.41.69.9,1.12,1.49.36-1.66.77-3.51,1.22-5.44,33.58,20.36,65.18,25.67,65.18,25.67a286.56,286.56,0,0,0,48.55,5.08c53.92,1.06,79.46-27.28,79.46-27.28s3.27-2.61,4.32-5.33c0,0-1.94-7.4-4.33-17.91-1.74-7.71-3.72-17.1-5.32-26.49,0,0,64.23-3.34,91.81,55S796,467.17,796,467.17Z" style="fill:#994f17"/><path d="M842.82,411.34c-1.91,38-46.83,55.83-46.83,55.83l-.07,0-.37.14c-.64.25-2,.73-4,1.36,0,0-130,52.73-240.35-7.7C450.09,405.6,470.4,359.07,471.06,357.6a.06.06,0,0,0,0,0,16.73,16.73,0,0,1,2.66-4.61c.8,18.08,13.37,51.67,82.19,89.37,110.32,60.43,240.35,7.7,240.35,7.7,2-.62,3.37-1.11,4-1.36l.38-.13.06,0S830.87,436.56,842.82,411.34Z" style="fill:#72340a"/><path d="M749.82,353.4v0" style="fill:#994f17"/><path d="M749.81,353.42c-.75.72-25.54,24.26-78.65,23.22-53.93-1.06-109.74-23.24-109.74-23.24.52-2,.83-3.28.83-3.28s12.73-59.41,25.22-79.7c11.4-18.49,30.86-27.56,56.75-14.31h0c6.39-.63,30.71-2.91,53.79-3.13,26.89-.23,41.5,26.17,43.62,52.57.53,6.59,1.57,14,2.84,21.38C746.09,336.32,748.07,345.71,749.81,353.42Z" style="fill:#994f17"/><path d="M738.41,288.32c-7.68-13.6-20.25-23.33-37.67-23.18-24.55.21-50.43,2.49-57.23,3.13h0C616,255,595.24,264.08,583.12,282.58a72,72,0,0,0-5.08,9.5c3-8.69,6.23-16.46,9.43-21.66,11.4-18.49,30.86-27.56,56.75-14.31h0c6.39-.63,30.71-2.91,53.79-3.13C719,252.8,732.47,268.78,738.41,288.32Z" style="fill:#d16d2a"/></g><g id="Layer_78" data-name="Layer 78"><path d="M556.63,373.19c1.63-7,3.67-15.31,4.79-19.79l.83-3.28s12.73-59.41,25.22-79.7c11.4-18.49,30.86-27.56,56.75-14.31a81.55,81.55,0,0,1,7.61,4.42c29.71,19.33,41.49,13.2,41.49,13.2" style="fill:none;stroke:#231f20;stroke-linecap:round;stroke-linejoin:round;stroke-width:10px"/><path d="M555.41,378.63c4.51,6.23,14.57,21.88,32.26,32.74" style="fill:none;stroke:#231f20;stroke-linecap:round;stroke-linejoin:round;stroke-width:10px"/><path d="M796,467.17l-.07,0-.37.14c-.64.25-2,.73-4,1.36,0,0-130,52.73-240.35-7.7C450.09,405.6,470.4,359.07,471.06,357.6a.06.06,0,0,0,0,0c.5-1.76,1.76-3.27,3-5.09,18.55-27.63,55.39-13.3,80.22,24.67.32.41.69.9,1.12,1.49.36-1.66.77-3.51,1.22-5.44,33.58,20.36,65.18,25.67,65.18,25.67a286.56,286.56,0,0,0,48.55,5.08c53.92,1.06,79.46-20.51,79.46-20.51s4.43-4.05,5.48-6.76c0,0-3.1-12.74-5.49-23.25-1.74-7.71-3.72-17.1-5.32-26.49,0,0,64.23-3.34,91.81,55S796,467.17,796,467.17Z" style="fill:none;stroke:#231f20;stroke-linecap:round;stroke-linejoin:round;stroke-width:10px"/><path d="M561.42,353.4s55.81,22.18,109.74,23.24c53.11,1,77.9-22.5,78.65-23.22v0" style="fill:none;stroke:#231f20;stroke-linecap:round;stroke-linejoin:round;stroke-width:10px"/><path d="M644.22,256.11h0c6.39-.63,30.71-2.91,53.79-3.13,26.89-.23,41.5,26.17,43.62,52.57.53,6.59,1.57,14,2.84,21.38" style="fill:none;stroke:#231f20;stroke-linecap:round;stroke-linejoin:round;stroke-width:10px"/><circle cx="740.15" cy="374.81" r="3.48" style="fill:#231f20"/><circle cx="715.45" cy="384.81" r="3.48" style="fill:#231f20"/><circle cx="687.08" cy="389.78" r="3.48" style="fill:#231f20"/><circle cx="656.31" cy="389.78" r="3.48" style="fill:#231f20"/><circle cx="626.52" cy="385.35" r="3.48" style="fill:#231f20"/><circle cx="597.88" cy="378.38" r="3.48" style="fill:#231f20"/><circle cx="573.98" cy="370.15" r="3.48" style="fill:#231f20"/><line x1="754.14" y1="371.33" x2="757.51" y2="386.92" style="fill:none;stroke:#231f20;stroke-linecap:round;stroke-linejoin:round;stroke-width:10px"/></g></g></svg>