<svg id="HAT_ASSETS" data-name="HAT ASSETS" xmlns="http://www.w3.org/2000/svg" viewBox="0 0 1440 1440"><g id="Party_Hat" data-name="Party Hat"><g id="Layer_30" data-name="Layer 30"><path d="M621,125.15a372,372,0,0,1-38.47,18.2l7.46-42c1.25.12,2.63,1.13,3.89,1s2.91.39,4.22.19,1.15-5.86,2.4-6.17,4.52,4.72,5.73,4.3l.06,0Z" style="fill:#d60000"/><path d="M654.57,181c-20.15,13.29-48.07,27.84-86,40.54l13.9-78.21A372,372,0,0,0,621,125.15Z" style="fill:#fffb1a"/><path d="M655.18,404.08c-63.75,9.67-117,9.36-118.87-.7l.41-2.28h0l5-28.21C650.54,348,700,306.09,718,286.53l47.94,79.75v0l0,0,1.22,2C769.07,378.4,718.94,394.4,655.18,404.08Z" style="fill:#d60000"/><path d="M655.18,404.08c-63.75,9.67-117,9.36-118.87-.7l.41-2.28h0l1-5.54c9,7.86,58.76,7.41,117.48-1.5,53.61-8.13,97.58-20.73,109.09-30.52l1.66,2.76v0l0,0,1.22,2C769.07,378.4,718.94,394.4,655.18,404.08Z" style="fill:#f75757"/><path d="M767.17,368.34a3.7,3.7,0,0,0-1.22-2" style="fill:#d60000"/><path d="M536.31,403.38a3.47,3.47,0,0,1,.41-2.28" style="fill:#d60000"/><path d="M629.93,77a28.27,28.27,0,0,1-.78,3.54c-.46,1-4.25,1-4.84,2s1.9,3.58,1.2,4.52a38.83,38.83,0,0,1-2.86,2.71c-.81.87-3.85.19-4.77,1s-1.21,2.2-2.23,2.92-.48,3.52-1.57,4.15-2.9.77-4.06,1.3-2.53,1.16-3.74,1.58l-.06,0c-1.21.42-4.47-4.6-5.73-4.3s-1.11,6-2.4,6.17-2.93-.27-4.22-.19-2.64-.93-3.89-1h-.16c-1.31,0-2.12-3.23-3.39-3.38s-2.37,0-3.63-.24-3.21,1.66-4.43,1.28-1.36-2.63-2.52-3.12-3.39.8-4.48.21S570,94,569,93.31s-4.64,1-5.57.27,1.68-4.37.85-5.23-5.81.9-6.54,0-1.21-2.27-1.82-3.25,2.87-3.63,2.39-4.68-4.1-1.15-4.44-2.22-2.36-2-2.57-3.17,5.67-2.91,5.59-4-5.43-2.16-5.36-3.26,2-2.29,2.18-3.38-.53-2.52-.2-3.6A32.74,32.74,0,0,1,555,57.44c.46-1,2.32-1.72,2.91-2.72s-1.09-3.29-.39-4.24,6.66,1.26,7.47.38-.63-3.28.29-4.09,2.15-1.27,3.17-2,2.57-.65,3.66-1.28,1.17-2.63,2.33-3.16,3.19.73,4.41.31,2-1.62,3.27-1.93,2.47-.41,3.78-.61,2.6.9,3.89.82,2.39-.23,3.69-.19,2.17,1.32,3.45,1.47,3-2.12,4.22-1.85,3.11-.91,4.32-.53,2,1.77,3.16,2.26,3.29-.29,4.4.29-.61,4.45.42,5.14a29.23,29.23,0,0,1,2.61,2.1,30,30,0,0,1,2.3,2.35c.81.85,2.25,1,3,2s6.4-.6,7,.38-1.69,3.32-1.23,4.36-.18,2.39.17,3.48-.46,2.25-.25,3.37-1.3,2.17-1.23,3.27,2.69,2,2.62,3.12a27.55,27.55,0,0,1-.2,3.29C628,74.31,630.27,75.91,629.93,77Z" style="fill:#fffb1a"/><path d="M620,90.27a3.69,3.69,0,0,0-2.13.46c-.92.8-1.21,2.2-2.23,2.92s-.48,3.52-1.57,4.15-2.9.77-4.06,1.3-2.53,1.16-3.74,1.58l-.06,0c-1.21.42-4.47-4.6-5.73-4.3s-1.11,6-2.4,6.17-2.93-.27-4.22-.19-2.64-.93-3.89-1h-.16c-1.31,0-2.12-3.23-3.39-3.38s-2.37,0-3.63-.24-3.21,1.66-4.43,1.28-1.36-2.63-2.52-3.12-3.39.8-4.48.21S570,94,569,93.31s-4.64,1-5.57.27,1.68-4.37.85-5.23-5.81.9-6.54,0-1.21-2.27-1.82-3.25,2.87-3.63,2.39-4.68-4.1-1.15-4.44-2.22-2.36-2-2.57-3.17,5.67-2.91,5.59-4-5.43-2.16-5.36-3.26,2-2.29,2.18-3.38-.53-2.52-.2-3.6A32.74,32.74,0,0,1,555,57.44c.46-1,2.32-1.72,2.91-2.72s-1.09-3.29-.39-4.24,6.66,1.26,7.47.38-.63-3.28.29-4.09,2.15-1.27,3.17-2,2.57-.65,3.66-1.28a2.64,2.64,0,0,0,1-1.24c.2,1.07.94,2.44.51,3.16-.59,1-2.44,1.67-2.91,2.72a35.1,35.1,0,0,0-1.51,3.31c-.33,1.08.4,2.48.2,3.6s-2.12,2.26-2.18,3.38,5.29,2.14,5.37,3.26-5.8,2.91-5.59,4,2.23,2.1,2.56,3.17,4,1.19,4.44,2.22-3,3.7-2.38,4.68A35.55,35.55,0,0,0,573.38,79c.72.93,5.71-.82,6.53,0s-1.77,4.46-.84,5.23,4.55-1,5.57-.27,1.3,2.17,2.4,2.76,3.32-.7,4.48-.21,1.31,2.74,2.52,3.12,3.17-1.54,4.44-1.28,2.33.08,3.62.24S604.19,92,605.49,92h.17c1.25.12,2.62,1.13,3.89,1s2.9.39,4.21.19,1.15-5.86,2.4-6.17C617,86.91,618.62,88.92,620,90.27Z" style="fill:#fffb84"/><path d="M573.73,41a10.73,10.73,0,0,0-.68,1.31,1.38,1.38,0,0,1,.12-1.08A.81.81,0,0,1,573.73,41Z" style="fill:#fffb84"/><path d="M687,235c-23.33,19-64.35,44.18-132,62.92l13.57-76.39c37.88-12.7,65.8-27.25,86-40.54Z" style="fill:#d60000"/><path d="M718,286.53c-18,19.56-67.45,61.49-176.26,86.34L555,298h0C622.68,279.21,663.7,254,687,235Z" style="fill:#fffb1a"/><path d="M609.9,106.7a7.92,7.92,0,0,0-1.08,0c-1.27.07-2.64-.93-3.89-1L599.55,136q-8.1,3.75-17,7.4l7.46-42c1.25.12,2.63,1.13,3.89,1s2.91.39,4.22.19,1.15-5.86,2.4-6.17,4.52,4.72,5.73,4.3l.06,0Z" style="fill:#f75757"/><path d="M599.55,136l-2.08,11.69-12.08,67.94q-8,3-16.77,6l13.9-78.21Q591.45,139.72,599.55,136Z" style="fill:#fffb84"/><path d="M551.66,405.39l-.41,2.28a4.1,4.1,0,0,0,1.65,2.4c-10-1.2-16-3.43-16.59-6.69l.41-2.28h0l5-28.21q8.44-1.94,16.41-4l-1.47,8.27-5,28.22h0Z" style="fill:#f75757"/><path d="M585.39,215.58l-1.83,10.27-11.93,67.22q-8,2.51-16.58,4.88l13.57-76.39Q577.35,218.64,585.39,215.58Z" style="fill:#f75757"/><path d="M571.63,293.07,570,302.24h0l-11.84,66.64q-8,2.06-16.41,4L555,298h0Q563.63,295.58,571.63,293.07Z" style="fill:#fffb84"/></g><g id="Party_Hat-2" data-name="Party Hat"><polyline points="536.31 403.38 536.72 401.08 541.73 372.87 555.04 297.95 555.05 297.95 568.62 221.56 582.52 143.35 589.98 101.33 582.52 143.35 568.62 221.56 555.05 297.95 555.04 297.95 541.73 372.87 536.72 401.08" style="fill:none;stroke:#231f20;stroke-linecap:round;stroke-linejoin:round;stroke-width:9.79762050346956px"/><polyline points="767.17 368.34 765.93 366.29 717.99 286.53 687.03 235.03 654.57 181.02 606.28 100.68 654.57 181.02 687.03 235.03 717.99 286.53 765.93 366.29" style="fill:none;stroke:#231f20;stroke-linecap:round;stroke-linejoin:round;stroke-width:9.79762050346956px"/><path d="M536.72,401.08h0a3.5,3.5,0,0,0-.41,2.29c1.91,10.06,55.12,10.37,118.87.7s113.89-25.68,112-35.74a3.72,3.72,0,0,0-1.24-2v0" style="fill:none;stroke:#231f20;stroke-linecap:round;stroke-linejoin:round;stroke-width:9.79762050346956px"/><path d="M627,63.51c.21,1.11-1.3,2.18-1.22,3.28s2.68,2,2.62,3.12a25.73,25.73,0,0,1-.22,3.29c-.2,1.11,2.11,2.71,1.78,3.79a34.65,34.65,0,0,1-.78,3.53c-.47,1-4.25,1-4.84,2s1.89,3.57,1.18,4.52-2,1.81-2.84,2.69-3.86.21-4.78,1-1.21,2.2-2.22,2.92-.49,3.52-1.58,4.15-2.9.77-4.06,1.3-2.57,1.18-3.8,1.6-4.46-4.6-5.73-4.29-1.1,6-2.4,6.17-2.92-.28-4.21-.2-2.76-1-4.06-1.06-2.11-3.23-3.39-3.38a36.07,36.07,0,0,1-3.63-.24c-1.26-.27-3.21,1.66-4.43,1.28s-1.36-2.63-2.52-3.12-3.39.8-4.48.21S570,94,569,93.32s-4.64,1-5.56.26,1.67-4.37.84-5.22-5.82.89-6.53,0a33.32,33.32,0,0,1-1.82-3.25c-.6-1,2.85-3.64,2.38-4.68s-4.1-1.14-4.45-2.23-2.35-2-2.56-3.15,5.66-2.91,5.59-4-5.43-2.17-5.37-3.27,2-2.29,2.18-3.38-.52-2.53-.19-3.6A34,34,0,0,1,555,57.44c.47-1,2.32-1.72,2.91-2.72s-1.09-3.29-.39-4.23,6.66,1.24,7.47.37-.63-3.28.29-4.09,2.16-1.27,3.17-2,2.57-.65,3.66-1.28,1.17-2.63,2.33-3.16,3.18.73,4.41.31,2-1.62,3.26-1.93,2.49-.42,3.79-.61,2.6.9,3.89.82,2.39-.23,3.68-.19,2.18,1.32,3.46,1.47,3-2.12,4.21-1.85,3.11-.91,4.33-.53,2,1.77,3.16,2.26,3.3-.3,4.39.29-.59,4.45.42,5.14A26.22,26.22,0,0,1,618.33,50c.83.85,2.26,1,3,2s6.39-.6,7,.39-1.7,3.32-1.23,4.36-.18,2.38.16,3.46S626.77,62.4,627,63.51Z" style="fill:none;stroke:#231f20;stroke-linecap:round;stroke-linejoin:round;stroke-width:9.79762050346956px"/><path d="M582.52,143.34A368.82,368.82,0,0,0,621,125.14" style="fill:none;stroke:#231f20;stroke-linecap:round;stroke-linejoin:round;stroke-width:9.79762050346956px"/><path d="M568.62,221.57c37.89-12.72,65.8-27.26,86-40.55" style="fill:none;stroke:#231f20;stroke-linecap:round;stroke-linejoin:round;stroke-width:9.79762050346956px"/><path d="M687,235c-23.32,19-64.36,44.17-132,62.91h0" style="fill:none;stroke:#231f20;stroke-linecap:round;stroke-linejoin:round;stroke-width:9.79762050346956px"/><path d="M541.73,372.87C650.54,348,700,306.08,718,286.53" style="fill:none;stroke:#231f20;stroke-linecap:round;stroke-linejoin:round;stroke-width:9.79762050346956px"/></g></g></svg>