<svg id="HAT_ASSETS" data-name="HAT ASSETS" xmlns="http://www.w3.org/2000/svg" viewBox="0 0 1440 1440"><g id="Parrell_Hat" data-name="Parrell Hat"><g id="Layer_105" data-name="Layer 105"><path d="M548.69,391.15q-3.26,1.47-6.37,2.91" style="fill:#8b6f37"/><path d="M825.61,383a298.25,298.25,0,0,0-48.22-13.45h0C743.26,383.47,624,378,606.84,375.09c-13.15-2.19-40.15,8.28-54.8,14.59l-3.35,1.47c-3.34,1.48-5.63,2.55-6.37,2.91l-.26.12a483.35,483.35,0,0,0-47.53,25.47c-9.43-5.13-15-11.31-15.89-18.4-1.75-14.53,16.8-30.13,48.24-43.61,31.68-13.6,76.45-25.05,126.72-31.11,47.46-5.73,91.3-5.63,124.67-.83,37.05,5.33,61.19,16.44,63,31.8C842.32,365.85,836.62,374.56,825.61,383Z" style="fill:#8b6f37"/><path d="M839.7,367c-6.2-12.61-28.81-21.78-61.43-26.47-33.37-4.8-77.21-4.9-124.67.83-50.27,6.06-95,17.51-126.72,31.11-24.69,10.58-41.43,22.48-46.62,34.14a16.4,16.4,0,0,1-1.62-5.34c-1.75-14.53,16.8-30.13,48.24-43.61,31.68-13.6,76.45-25.05,126.72-31.11,47.46-5.73,91.3-5.63,124.67-.83,37.05,5.33,61.19,16.44,63,31.8A17.7,17.7,0,0,1,839.7,367Z" style="fill:#af8d51"/><path d="M783.9,365.79a22.66,22.66,0,0,1-6.51,3.77" style="fill:#8b6f37"/><path d="M778.27,325.7c-33.37-4.8-77.21-4.9-124.67.83-50.27,6.06-95,17.51-126.72,31.11,0,0-8.22-52.24,0-87.34,0,0-32.05-63-7.79-104.27s94.47-79.49,161-35.62,53.69,35.62,56.27,95C736.41,225.39,774.7,277.35,778.27,325.7Z" style="fill:#8b6f37"/><path d="M668.17,126.77c-57.39-19.46-112.36,13.8-133.25,49.36-24.26,41.3,7.79,104.27,7.79,104.27-5.74,24.51-3.46,57.37-1.57,75q-7.5,2.73-14.26,5.64s-8.22-52.24,0-87.34c0,0-32.05-63-7.79-104.27C541.9,130.58,605.33,94.49,668.17,126.77Z" style="fill:#af8d51"/><path d="M548.69,391.15q-3.26,1.47-6.37,2.91" style="fill:#8b6f37"/><path d="M607.3,244.4s38.47,43.24,73.19,34,31.08-44.17,31.08-44.17,18.28,42.81-16.1,54S612.4,275.38,607.3,244.4Z" style="fill:#705320"/></g><g id="Layer_106" data-name="Layer 106"><path d="M777.38,369.56h0A298.25,298.25,0,0,1,825.61,383c11-8.45,16.71-17.16,15.7-25.51-1.85-15.36-26-26.47-63-31.8-33.37-4.8-77.21-4.9-124.67.83-50.27,6.06-95,17.51-126.72,31.11-31.44,13.48-50,29.08-48.24,43.61.86,7.09,6.46,13.27,15.89,18.4a483.35,483.35,0,0,1,47.53-25.47l.26-.12q3.12-1.44,6.37-2.91l3.35-1.47" style="fill:none;stroke:#231f20;stroke-linecap:round;stroke-linejoin:round;stroke-width:10px"/><path d="M542.06,394.18s46.2-22.19,64.78-19.09,156.41,9.29,177.06-9.3" style="fill:none;stroke:#231f20;stroke-linecap:round;stroke-linejoin:round;stroke-width:10px"/><path d="M526.88,357.64s-8.22-52.24,0-87.34c0,0-32.05-63-7.79-104.27s94.47-79.49,161-35.62,53.69,35.62,56.27,95c0,0,38.29,52,41.86,100.31" style="fill:none;stroke:#231f20;stroke-linecap:round;stroke-linejoin:round;stroke-width:10px"/><path d="M534.06,175.84s24.78,12.39,16,44.91-12.9,35.61-12.9,35.61" style="fill:none;stroke:#231f20;stroke-linecap:round;stroke-linejoin:round;stroke-width:10px"/><path d="M701.31,191.32S720.4,213,723.5,213" style="fill:none;stroke:#231f20;stroke-linecap:round;stroke-linejoin:round;stroke-width:10px"/><path d="M613,149.51s20.65,30.46,11.87,70.72" style="fill:none;stroke:#231f20;stroke-linecap:round;stroke-linejoin:round;stroke-width:10px"/><path d="M644.14,149.51s13.29,49.56,41.16,80" style="fill:none;stroke:#231f20;stroke-linecap:round;stroke-linejoin:round;stroke-width:10px"/><path d="M604.26,246s14.46,45.42,71.75,43.88,38.2-55.64,38.2-55.64" style="fill:none;stroke:#231f20;stroke-linecap:round;stroke-linejoin:round;stroke-width:10px"/><path d="M494.53,419.65a483.35,483.35,0,0,1,47.53-25.47l.26-.12q3.12-1.44,6.37-2.91l3.35-1.47" style="fill:none;stroke:#231f20;stroke-linecap:round;stroke-linejoin:round;stroke-width:10px"/><path d="M777.38,369.56h0A298.25,298.25,0,0,1,825.61,383" style="fill:none;stroke:#231f20;stroke-linecap:round;stroke-linejoin:round;stroke-width:10px"/></g></g></svg>