<svg id="HAT_ASSETS" data-name="HAT ASSETS" xmlns="http://www.w3.org/2000/svg" viewBox="0 0 1440 1440"><g id="Robinhood_Hat" data-name="Robinhood Hat"><g id="Layer_100" data-name="Layer 100"><path d="M863.86,407.11c-49.51,2.39-164-70.39-331.08,8.36,0,0-21.47,14.91-40,0s-95.45-61.45-30.43-87.1L486.16,319a119.49,119.49,0,0,0,.61,13.12,286.1,286.1,0,0,1,109.84-22.23c3.52,0,7.06,0,10.59.1q4.51.07,9,.26,9,.33,17.88,1l.17,0h.14l48.28,6.12c-.61-.29-14.07-6.56-35.54-15.35l-.17-.07c-34.38-14.07-89.2-34.57-144.6-47.34h0c13.13-22.37,36.6-42.4,78.18-48.57C689.08,190,785.12,329,808.39,346.86s75.76,40.57,75.76,40.57S913.38,404.73,863.86,407.11Z" style="fill:#080"/><path d="M808.39,346.86c2.91,2.24,6.27,4.55,9.93,6.88C778.87,352,689.59,205.81,581,221.91c-33,4.9-54.59,18.53-68.66,35.13q-5-1.23-10-2.39h0c13.13-22.37,36.6-42.4,78.18-48.57C689.08,190,785.12,329,808.39,346.86Z" style="fill:#00a500"/><path d="M863.86,407.11c-49.51,2.39-164-70.39-331.08,8.36,0,0-21.47,14.91-40,0-7.23-5.82-23.36-16.47-36.48-28.82,8.38,6,16,11,20.51,14.38,19.72,14.91,42.63,0,42.63,0,178.2-78.75,300.38-6,353.2-8.36A135.14,135.14,0,0,0,889,391.1C894.53,396.32,898.81,405.43,863.86,407.11Z" style="fill:#056b05"/><path d="M486.16,319l21-8.3" style="fill:#231f20"/><path d="M491.32,280.87c-.08.26-.15.52-.22.78" style="fill:#231f20"/><path d="M486.85,332.8s0-.24-.08-.69" style="fill:#231f20"/><path d="M634.27,311.28l-.21,0" style="fill:#231f20"/><path d="M634.27,311.28h0c-5.92-.45-12-.8-18.05-1q-4.48-.17-9-.26c-3.53-.08-7.07-.11-10.59-.1a286.1,286.1,0,0,0-109.84,22.23,119.49,119.49,0,0,1-.61-13.12,148.22,148.22,0,0,1,2.32-25.75c6.83.61,10.9.93,10.9.93Z" style="fill:#009a00"/><path d="M682.65,317.41a484.71,484.71,0,0,0-48.28-6.12h-.1L499.38,294.17s-4.07-.32-10.9-.93h0c-3.21-.28-7-.63-11.33-1l14-10.55,4.3-3.25-4.08,2.47-18.11,10.95h0c-6.29-.62-13.41-1.37-21-2.22l-.27.27,14-14.79-25.06,13.2c-10.86-1.32-22.27-2.85-33.31-4.58l15-10.61-35.39,7.08h0c-40.85-7.92-66.34-18.89-17.48-32.14,36-9.76,84.54-4.48,132.6,6.62h0c55.4,12.77,110.22,33.27,144.6,47.34l.17.07C668.58,310.85,682,317.12,682.65,317.41Z" style="fill:#c76009"/><path d="M682.65,317.41q-14.6-2.6-29.66-4.34l-1.11-.46-.17-.07c-34.38-14.07-89.2-34.57-144.6-47.34h0c-48.06-11.1-96.58-16.38-132.6-6.62-13.92,3.78-21.8,7.36-25,10.75-11.65-6.16-9.2-13.32,20.24-21.3,36-9.76,84.54-4.48,132.6,6.62h0c55.4,12.77,110.22,33.27,144.6,47.34l.17.07C668.58,310.85,682,317.12,682.65,317.41Z" style="fill:#f47c2c"/></g><g id="Layer_101" data-name="Layer 101"><path d="M508.23,313.29c-7.91,4.36-16.07,8.09-24.26,11.74-4.1,1.81-8.24,3.53-12.38,5.24l-6.24,2.5c-2.08.83-4,1.61-5.88,2.51a50.25,50.25,0,0,0-10.36,6.29,19.77,19.77,0,0,0-6.34,8.33,15.17,15.17,0,0,0,.14,9.86,37.15,37.15,0,0,0,5.53,10.31c4.87,6.65,11.19,12.67,17.82,18.31s13.74,10.91,21,16.19l5.46,4c.91.69,1.83,1.39,2.77,2.12l.7.55.57.43c.37.27.73.58,1.13.83A23.45,23.45,0,0,0,508,416.46a28.33,28.33,0,0,0,11.19-.84,36.6,36.6,0,0,0,5.55-1.95c.9-.4,1.79-.82,2.65-1.29.43-.23.86-.46,1.27-.7l.6-.37.47-.3.25-.16a3.92,3.92,0,0,1,.53-.29,462.91,462.91,0,0,1,45.23-18.32,391.55,391.55,0,0,1,47.23-12.57,348.64,348.64,0,0,1,97.46-5.29,418.4,418.4,0,0,1,48.3,7c15.94,3.17,31.64,7.18,47.18,11.19,7.76,2,15.49,4,23.17,5.63s15.35,3,22.55,3h2l.73,0,2.9-.18c1-.05,1.92-.15,2.88-.23s1.91-.17,2.85-.29a54.56,54.56,0,0,0,10.6-2.07l.59-.18.51-.21c.32-.15.73-.27,1-.42s.6-.29.79-.43l.28-.19.15-.09s0,0,.07-.07a.45.45,0,0,1,.13-.11c.05,0,0,0,0,0a0,0,0,0,0,0,0,.22.22,0,0,0-.06.07c-.06.06,0,.13-.08.22a.49.49,0,0,0-.06.29.46.46,0,0,0,0,.26c0,.12,0,.22,0,.16a3.09,3.09,0,0,0-.55-.91,12.69,12.69,0,0,0-1.37-1.49,22.08,22.08,0,0,0-1.83-1.53l-1-.73-.51-.34-.43-.27.66.34c-8.92-3.92-17.62-8-26.33-12.22s-17.3-8.66-25.8-13.39c-2.14-1.17-4.24-2.4-6.35-3.63s-4.21-2.52-6.3-3.81-4.15-2.69-6.22-4c-1-.66-2.05-1.43-3.06-2.17l-3.07-2.25a68.73,68.73,0,0,1-5.84-5.31c-1.77-1.77-3.44-3.55-5.11-5.33-3.32-3.56-6.54-7.14-9.76-10.7-12.81-14.26-25.67-28.27-39.22-41.58A419.2,419.2,0,0,0,702,251.14c-15.09-11.28-31.14-21.25-48.25-28.65S618.44,210.36,600.05,210a126.14,126.14,0,0,0-13.75.55c-4.54.49-9.13,1.25-13.67,2.16a117.73,117.73,0,0,0-26.16,8.5,93.8,93.8,0,0,0-22.77,14.85l-2.59,2.22c-.83.77-1.65,1.56-2.5,2.31s-1.66,1.57-2.49,2.36-1.67,1.58-2.48,2.4c-3.26,3.27-6.41,6.7-9.82,10.16l0,0a1.77,1.77,0,0,1-3-1.79,60.68,60.68,0,0,1,16.27-25,33.79,33.79,0,0,1,2.82-2.52l2.92-2.41c1-.77,2-1.49,3.06-2.24s2-1.5,3.1-2.15c2.13-1.35,4.23-2.75,6.46-3.91l3.31-1.83,3.39-1.63a127.84,127.84,0,0,1,28.35-9.4c4.86-1,9.73-1.84,14.72-2.4a133.8,133.8,0,0,1,15-.68c20,.26,39.65,5.29,57.75,13s34.94,18.08,50.61,29.66a433.94,433.94,0,0,1,44.15,38c13.88,13.5,26.95,27.77,39.8,42,3.21,3.55,6.42,7.09,9.64,10.53,1.61,1.72,3.23,3.43,4.85,5a59.41,59.41,0,0,0,4.78,4.37l2.74,2c.92.67,1.82,1.36,2.81,2,1.94,1.26,3.82,2.58,5.84,3.78s4,2.46,6,3.62,4.06,2.37,6.14,3.5c8.25,4.58,16.71,8.9,25.26,13.05s17.22,8.18,25.87,11.95l.13.06a4.44,4.44,0,0,1,.53.28l.85.53.74.5c.49.33,1,.67,1.44,1a34.67,34.67,0,0,1,2.78,2.33,22.88,22.88,0,0,1,2.69,2.95,14.51,14.51,0,0,1,2.36,4.33,11.55,11.55,0,0,1,.57,3.1,17.47,17.47,0,0,1-.08,1.77,17.15,17.15,0,0,1-.42,1.75,10.31,10.31,0,0,1-.69,1.59c-.13.25-.27.52-.41.74l-.45.62a11.18,11.18,0,0,1-1,1.15c-.32.31-.64.62-1,.91-.17.14-.34.31-.5.43l-.47.34-1,.65c-.64.42-1.22.68-1.85,1s-1.18.52-1.77.78l-.88.35-.85.28a66.06,66.06,0,0,1-13,2.62c-1,.14-2.1.24-3.14.32s-2.09.2-3.12.26l-3.11.19-.77.05h-2.5c-8.89,0-17.1-1.54-25.12-3.26s-15.84-3.79-23.63-5.81c-15.54-4.06-31-8.05-46.53-11.19a409.12,409.12,0,0,0-47-7,337.79,337.79,0,0,0-94.36,4.85,381,381,0,0,0-45.86,12.06,454.13,454.13,0,0,0-44.09,17.71l.78-.45-.94.61-.84.5c-.56.33-1.11.63-1.67.93-1.11.59-2.24,1.13-3.39,1.63a48.46,48.46,0,0,1-7.13,2.48,39.14,39.14,0,0,1-15.44,1.06,34.33,34.33,0,0,1-14.7-5.77c-.55-.36-1-.77-1.58-1.16l-.77-.59-.61-.49c-.83-.65-1.69-1.31-2.57-2l-5.35-4c-7.22-5.31-14.53-10.76-21.52-16.72s-13.76-12.4-19.48-20.23a47.81,47.81,0,0,1-7-13.34,28.49,28.49,0,0,1-1.35-8.08,24.14,24.14,0,0,1,1.37-8.44A26.3,26.3,0,0,1,437,339.1a36.26,36.26,0,0,1,5.54-5.6,60.63,60.63,0,0,1,12.55-7.63c2.14-1,4.41-1.92,6.49-2.74l6.26-2.43c4.2-1.58,8.39-3.15,12.63-4.63,8.48-2.92,17-5.76,25.74-8a2.82,2.82,0,0,1,2.05,5.21Z" style="fill:#231f20"/><path d="M496.1,282.34a3.57,3.57,0,0,1,.69.37c.12.09.12.14.08.18a.63.63,0,0,1-.34.06h-.61l-3.15-.83h0l-3.33-.9-2.37-.65c-.54-.15-.73-.21-.77-.23l-.08-.05-.16-.11c-.11-.07-.19-.14-.27-.2a.64.64,0,0,1-.23-.33c0-.09,0-.17.19-.21a2.06,2.06,0,0,1,.8,0,25.4,25.4,0,0,1,7.43,2Z" style="fill:#231f20"/><path d="M493.4,294.13c-.13,3.22-.41,6.39-.61,9.57s-.43,6.34-.61,9.52-.33,6.36-.41,9.54c-.06,1.59-.07,3.18-.1,4.77v2.36l0,1.17c0,.19-.21.4-.7.65a7.68,7.68,0,0,1-.9.39l-.7.23-.35.12-.46.13-.14,0a10.15,10.15,0,0,1-3.3.39l-.48,0-.37,0-.73-.08a7.22,7.22,0,0,1-1-.22c-.54-.17-.77-.37-.83-.58l-.22-1.31-.38-2.59c-.23-1.72-.38-3.43-.52-5.15a98.74,98.74,0,0,1-.21-10.32,88.57,88.57,0,0,1,.9-10.28,68.51,68.51,0,0,1,2.24-10.08,5,5,0,0,1,9.84,1.7Z" style="fill:#231f20"/><path d="M453.38,346.81a116.68,116.68,0,0,1,12.41-8.51l3.22-1.91,3.27-1.82,3.29-1.79,3.34-1.67c2.22-1.13,4.46-2.24,6.75-3.23s4.54-2.05,6.84-3c4.66-1.77,9.27-3.71,14-5.22a285.91,285.91,0,0,1,58.32-13.25c5-.51,9.95-.91,14.93-1.37,5-.26,10-.35,15-.52,10-.18,19.86.14,29.77.68s19.79,1.45,29.63,2.7,19.65,2.73,29.38,4.61a5,5,0,0,1-1.73,9.85h0c-9.59-1.52-19.21-2.89-28.85-3.94q-7.24-.79-14.49-1.35c-4.84-.41-9.68-.72-14.52-1s-9.69-.44-14.54-.55-9.71-.22-14.53-.12-9.62.23-14.43.44c-4.8.39-9.6.72-14.39,1.15a291.06,291.06,0,0,0-56.5,11.85c-9.21,2.84-18.29,6.15-27.25,9.76l-3.37,1.34-3.33,1.44-3.34,1.41-3.3,1.5c-4.42,1.93-8.83,4.08-13,6.24l-.1.05a2.24,2.24,0,0,1-2.42-3.74Z" style="fill:#231f20"/><path d="M407.6,283.7c11,1.73,22.45,3.26,33.31,4.58h0" style="fill:none;stroke:#231f20;stroke-linecap:round;stroke-linejoin:round;stroke-width:10px"/><path d="M682.66,317.41h0l-48.28-6.12h-.14L499.38,294.17s-4.07-.32-10.9-.93h0c-3.21-.28-7-.63-11.33-1" style="fill:none;stroke:#231f20;stroke-linecap:round;stroke-linejoin:round;stroke-width:10px"/><path d="M473.2,291.82c-6.29-.62-13.41-1.37-21-2.22" style="fill:none;stroke:#231f20;stroke-linecap:round;stroke-linejoin:round;stroke-width:10px"/><path d="M847.44,380,837.62,375c-3.31-1.63-6.57-3.32-9.9-4.9-6.65-3.16-13.32-6.26-20.05-9.2-3.38-1.45-6.73-2.95-10.15-4.3s-6.79-2.79-10.23-4.07-6.84-2.66-10.3-3.89-6.87-2.55-10.36-3.7-6.92-2.39-10.43-3.46-7-2.25-10.5-3.24-7-2.09-10.56-3-7-2-10.61-2.83c-14.16-3.68-28.42-6.92-42.73-10l.88.07h-.14a5.27,5.27,0,0,1-2-.49c-2.79-1.29-5.8-2.64-8.72-3.93l-8.85-3.86-8.9-3.78-4.47-1.86-2.16-.9-1.07-.44-.54-.22-.27-.11-.13-.06h0l-.38-.17a5.81,5.81,0,0,1-.74-.4l.87.46Q624,298,602.47,290.17t-43.24-14.7c-14.52-4.56-29.15-8.77-43.87-12.51s-29.56-7-44.48-9.57c-7.46-1.33-14.95-2.35-22.45-3.29s-15-1.57-22.52-1.87l-2.81-.14-2.82-.07-5.62-.11c-3.74.07-7.5,0-11.22.26s-7.44.49-11.14.82c-1.85.2-3.68.48-5.52.71s-3.65.56-5.47.9c-3.66.59-7.19,1.53-10.77,2.4s-7.17,2.06-10.6,3.28a51.42,51.42,0,0,0-9.44,4.27,15,15,0,0,0-1.7,1.23,4.41,4.41,0,0,0-.83.92c-.1.18.09-.16,0-.47s-.1-.23.14.06a11.65,11.65,0,0,0,3.11,2.29,40.16,40.16,0,0,0,4.61,2.17,105,105,0,0,0,10.37,3.45c7.15,2,14.53,3.62,22,5.06l-1-.09h0a5,5,0,0,1,0,10h0a6,6,0,0,1-.95-.09c-7.6-1.48-15.18-3.13-22.77-5.26A114.34,114.34,0,0,1,352.1,276a50.72,50.72,0,0,1-5.77-2.72,25.75,25.75,0,0,1-2.94-1.88,16.5,16.5,0,0,1-3-2.78,10.08,10.08,0,0,1-2.32-5,9,9,0,0,1,.16-3.27,10.69,10.69,0,0,1,.47-1.45,11.76,11.76,0,0,1,.62-1.23,14.08,14.08,0,0,1,2.91-3.41,24.54,24.54,0,0,1,2.93-2.15,61.27,61.27,0,0,1,11.4-5.23c3.78-1.34,7.55-2.47,11.33-3.51s7.71-2,11.61-2.59c1.95-.36,3.9-.73,5.85-1s3.91-.54,5.87-.75c3.91-.35,7.83-.74,11.74-.87s7.82-.2,11.73-.27l5.85.12,2.92.06,2.91.15c7.79.31,15.51,1.09,23.22,1.93s15.36,2,23,3.36c15.24,2.6,30.31,6,45.25,9.74s29.73,8,44.4,12.66,29.24,9.58,43.67,14.84,28.78,10.8,43,16.62l.88.47a3.61,3.61,0,0,0-.6-.35l-.32-.13h0l.15.06.29.12.58.24,1.18.48,2.32,1,4.5,1.88,9,3.81,9,3.9c3,1.33,5.9,2.63,9,4.06l-2.15-.49h0a2.74,2.74,0,0,1,.5,0l.37.05A329.42,329.42,0,0,1,727.37,322c7.19,2,14.31,4.31,21.37,6.75,3.55,1.17,7,2.49,10.55,3.76s7,2.63,10.47,4,6.92,2.79,10.36,4.21,6.86,2.93,10.26,4.46,6.77,3.14,10.13,4.73,6.69,3.28,10,4.94q10,5,19.66,10.59c3.24,1.83,6.41,3.77,9.62,5.65s6.31,3.93,9.46,5.89a1.81,1.81,0,0,1-1.78,3.15Z" style="fill:#231f20"/><polyline points="387.21 280.16 422.62 273.09 407.59 283.7" style="fill:none;stroke:#231f20;stroke-linecap:round;stroke-linejoin:round;stroke-width:10px"/><polyline points="440.91 288.28 465.97 275.08 451.93 289.87" style="fill:none;stroke:#231f20;stroke-linecap:round;stroke-linejoin:round;stroke-width:10px"/><polyline points="473.21 291.82 495.4 278.4 477.14 292.2" style="fill:none;stroke:#231f20;stroke-linecap:round;stroke-linejoin:round;stroke-width:10px"/><path d="M411.65,258.29c20,1.68,39.84,3.71,59.73,6S511.12,269,531,271.91,570.56,278,590.26,282c9.85,2,19.68,4.15,29.47,6.62a290.26,290.26,0,0,1,29.18,8.81,5,5,0,0,1-3.44,9.39l-.11,0-.05,0a281.73,281.73,0,0,0-28-9.28c-9.52-2.69-19.16-5.08-28.84-7.32-19.39-4.43-39-8.2-58.62-11.62s-39.38-6.47-59.15-9.27-39.58-5.37-59.41-7.59h0a1.69,1.69,0,0,1,.33-3.36Z" style="fill:#231f20"/></g></g></svg>