<svg id="HAT_ASSETS" data-name="HAT ASSETS" xmlns="http://www.w3.org/2000/svg" viewBox="0 0 1440 1440"><g id="Sailor_Hat" data-name="Sailor Hat"><g id="Layer_74" data-name="Layer 74"><path d="M760.88,382.7l-.23.27" style="fill:#fff"/><path d="M551.23,410.14,551,410" style="fill:#fff"/><path d="M743.09,292.74c-27.33,6.45-61.31,12.57-98.34,17.37s-71.48,7.58-99.54,8.32a28.4,28.4,0,0,1-3.6-10.59c-1.31-10.06,2.89-20.22,11.28-29.46h0s0,0,0,0c15.84-17.38,46.49-31.6,83-36.34s69.73,1.19,89.47,14h0a0,0,0,0,1,0,0c10.49,6.8,17.14,15.54,18.45,25.6A28.65,28.65,0,0,1,743.09,292.74Z" style="fill:#fff"/><line x1="552.91" y1="278.37" x2="552.89" y2="278.38" style="fill:#fff"/><path d="M808.4,265.56v0s0,0,0,0c0,.24,0,.65-.1,1.21v0c-2.24,7.45-27.25,17-65.21,25.9a28.65,28.65,0,0,0,.77-11.16c-1.31-10.06-8-18.8-18.45-25.6,48.72-2.23,81.91,1,83,9.37A.83.83,0,0,1,808.4,265.56Z" style="fill:#fff"/><path d="M806.35,254.94a2.94,2.94,0,0,1-.07,1.21" style="fill:#fff"/><path d="M725.41,256a0,0,0,0,0,0,0" style="fill:#fff"/><path d="M541.61,307.84a28.4,28.4,0,0,0,3.6,10.59c-39,1.07-65.6-1.76-69.67-8.4a0,0,0,0,1,0,0c-.19-.5-.32-.88-.41-1.11h0s0,0,0-.06a.08.08,0,0,1,0-.05l0,0,0-.1c-1.09-8.39,30.17-20,77.84-30.25C544.5,287.62,540.3,297.78,541.61,307.84Z" style="fill:#fff"/><path d="M743.09,292.74c-27.33,6.45-61.31,12.57-98.34,17.37s-71.48,7.58-99.54,8.32A28.3,28.3,0,0,1,541.63,308c27.71-.81,61.47-3.56,97.68-8.26,37-4.81,71-10.92,98.33-17.37l6.12-1.47c0,.23.07.47.1.7A28.65,28.65,0,0,1,743.09,292.74Z" style="fill:#d8d8d8"/><path d="M808.4,265.56v0s0,0,0,0c0,.24,0,.65-.1,1.21v0c-.68,2.25-3.44,4.7-8,7.26-10.54,5.91-30.71,12.43-57.18,18.64a28.65,28.65,0,0,0,.77-11.16c0-.23-.06-.47-.1-.7,29.48-7.25,50.17-14.8,56.89-21.25l1.77.62c3.66,1.41,5.73,3.11,6,5.1A.83.83,0,0,1,808.4,265.56Z" style="fill:#bcbcbc"/><path d="M802.42,260.25l-1.77-.62C801.28,259.83,801.87,260,802.42,260.25Z" style="fill:#d8d8d8"/><path d="M545.21,318.43c-39,1.07-65.6-1.76-69.67-8.4a0,0,0,0,1,0,0c-.19-.5-.32-.88-.41-1.11h0s0,0,0-.06a.08.08,0,0,1,0-.05l0,0,0-.1c-.19-1.47.61-3,2.32-4.68,11.08,3.51,33.29,4.88,62.39,4.09l1.87-.06A28.3,28.3,0,0,0,545.21,318.43Z" style="fill:#d8d8d8"/><path d="M474.83,308.48a3.34,3.34,0,0,1-.44-1.1" style="fill:#fff"/><path d="M808.3,266.84a245.23,245.23,0,0,1-8.45,42.36c-86,21.24-170.75,31.85-232,37.15l-4.62.39q-6.22.52-12.1,1c-23.26,1.78-42.2,2.75-55.29,3.28a244.37,244.37,0,0,1-20.3-41c4.07,6.64,30.68,9.47,69.67,8.4,28.06-.74,62.52-3.51,99.54-8.32s71-10.92,98.34-17.37C781.05,283.83,806.06,274.29,808.3,266.84Z" style="fill:#fff"/><path d="M743.09,292.74c-27.33,6.45-61.31,12.57-98.34,17.37s-71.48,7.58-99.54,8.32c-39,1.07-65.6-1.76-69.67-8.4a0,0,0,0,1,0,0c-.19-.5-.32-.88-.41-1.11h0s0,0,0-.06a.08.08,0,0,1,0-.05l0,0,0-.1c-.19-1.47.61-3,2.32-4.68,11.08,3.51,33.29,4.88,62.39,4.09l1.87-.06c27.71-.81,61.47-3.56,97.68-8.26,37-4.81,71-10.92,98.33-17.37l6.12-1.47c0,.23.07.47.1.7A28.65,28.65,0,0,1,743.09,292.74Z" style="fill:#bcbcbc"/><path d="M799.85,309.2c-1.48,5.1-3.21,10.45-5.22,15.92-91.29,22.13-180.71,32.39-241.6,37.15-18.92,1.48-35.07,2.41-47.68,3h0c-3.48-4.83-6.65-9.64-9.5-14.29,13.09-.53,32-1.5,55.29-3.28q5.86-.43,12.1-1l4.62-.39C629.1,341.05,713.86,330.44,799.85,309.2Z" style="fill:#222766"/><path d="M794.63,325.12c-2.18,5.9-4.67,11.94-7.56,18-83.91,19.81-165.64,29.71-224.43,34.64h0q-3.82.33-7.51.61c-3.59.29-7.09.56-10.48.8-9.86.73-18.87,1.3-26.9,1.75-4.51-5.13-8.63-10.39-12.39-15.63,12.61-.6,28.76-1.53,47.68-3C613.92,357.51,703.34,347.25,794.63,325.12Z" style="fill:#fff"/><path d="M787.07,343.11c-2.37,5-5,10-7.92,14.86-124.37,33.16-250.24,34.58-250.24,34.58-3.95-3.76-7.67-7.66-11.17-11.64,8-.45,17-1,26.9-1.75,3.39-.24,6.89-.51,10.48-.8q3.69-.28,7.51-.61h0C621.43,372.82,703.16,362.92,787.07,343.11Z" style="fill:#222766"/><path d="M779.15,358a149.07,149.07,0,0,1-18.5,25l-.24.27c-.15.16-.32.33-.46.49-10.47,10.82-51.68,23.17-101.8,29.67s-93.13,5.1-106-2.68l-.29-.19-.61-.39a147.09,147.09,0,0,1-22.32-17.59S654.78,391.13,779.15,358Z" style="fill:#fff"/><path d="M779.15,358a149.07,149.07,0,0,1-18.5,25l-.24.27c-.15.16-.32.33-.46.49-10.47,10.82-51.68,23.17-101.8,29.67s-93.13,5.1-106-2.68l-.29-.19-.61-.39Q546,406.78,541.06,403c18.78,5.53,63.39,5.07,114.43-2.1C711.64,393,757.59,379.52,769,368.42l.51-.51.25-.27c3-3.05,5.83-6.21,8.48-9.44Z" style="fill:#bcbcbc"/><path d="M552.13,410.71l-.29-.18" style="fill:#fff"/><path d="M474.39,307.37a1.16,1.16,0,0,0-.06-.15.82.82,0,0,1,0-.11" style="fill:#fff"/><path d="M760.65,383a1.94,1.94,0,0,1-.24.27l-.45.49" style="fill:#fff"/><path d="M806.37,254.67a2.43,2.43,0,0,1,0,.25" style="fill:#fff"/></g><g id="Layer_72" data-name="Layer 72"><path d="M551,409.94c.38.3.79.52,1.16.78,12.89,7.78,55.88,9.19,106,2.68S749.48,394.55,760,383.74c.3-.35.63-.66.92-1" style="fill:none;stroke:#231f20;stroke-linecap:round;stroke-linejoin:round;stroke-width:10px"/><path d="M743.09,292.74a28.65,28.65,0,0,0,.77-11.16c-1.31-10.07-8-18.83-18.49-25.62-19.74-12.76-53-18.68-89.46-14s-67.14,18.95-83,36.33c-8.43,9.26-12.64,19.43-11.33,29.5a28.62,28.62,0,0,0,3.59,10.59" style="fill:none;stroke:#231f20;stroke-linecap:round;stroke-linejoin:round;stroke-width:10px"/><path d="M552.94,278.34s0,0,0,0c-47.68,10.29-78.95,21.86-77.86,30.25a1,1,0,0,0,.06.2,3.28,3.28,0,0,0,.43,1.2c4.07,6.64,30.68,9.47,69.66,8.4,28.07-.74,62.52-3.51,99.55-8.31s71-10.93,98.34-17.38c37.95-8.92,63-18.45,65.21-25.9a3.32,3.32,0,0,0,.1-1.28.83.83,0,0,0,0-.21c-1.09-8.39-34.27-11.59-83-9.36,0,0,0,0,0,0" style="fill:none;stroke:#231f20;stroke-linecap:round;stroke-linejoin:round;stroke-width:10px"/><path d="M475,308.62s23.5,68.52,77.09,102.09" style="fill:none;stroke:#231f20;stroke-linecap:round;stroke-linejoin:round;stroke-width:10px"/><path d="M808.43,265.34S803.21,337.59,760,383.73" style="fill:none;stroke:#231f20;stroke-linecap:round;stroke-linejoin:round;stroke-width:10px"/></g></g></svg>