<svg id="HAT_ASSETS" data-name="HAT ASSETS" xmlns="http://www.w3.org/2000/svg" viewBox="0 0 1440 1440"><g id="Sakkat"><g id="Layer_103" data-name="Layer 103"><path d="M905.62,417.9c-.2,11.21-101.22,38.69-231.25,48.25s-220.9,9-235.24-1.94l2.23-2.2c18.32-18,145.31-142.13,224.82-195.39L905.6,417.89Z" style="fill:#edc472"/><path d="M905.62,417.9c-.2,11.21-101.22,38.69-231.25,48.25s-220.9,9-235.24-1.94l2.23-2.2c2-2,5.44-5.34,10-9.74,31.52,6.5,113.34,5.61,223-2.45,103.42-7.6,188.48-26.54,219.07-39.61l12.16,7.68Z" style="fill:#cc932f"/><path d="M441.36,462l-2.23,2.2C438.81,464,439.58,463.2,441.36,462Z" style="fill:#ffe9b5"/></g><g id="Layer_93" data-name="Layer 93"><path d="M441.36,462l-2.23,2.2C438.81,464,439.58,463.2,441.36,462Z" style="fill:none;stroke:#231f20;stroke-linecap:round;stroke-linejoin:round;stroke-width:10px"/><path d="M905.62,417.9c-.2,11.21-101.22,38.69-231.25,48.25s-220.9,9-235.24-1.94l2.23-2.2c18.32-18,145.31-142.13,224.82-195.39L905.6,417.89Z" style="fill:none;stroke:#231f20;stroke-linecap:round;stroke-linejoin:round;stroke-width:10px"/><line x1="632.32" y1="311.12" x2="494.58" y2="450.53" style="fill:none;stroke:#231f20;stroke-linecap:round;stroke-linejoin:round;stroke-width:7px"/><line x1="701.67" y1="309.93" x2="858.56" y2="416.6" style="fill:none;stroke:#231f20;stroke-linecap:round;stroke-linejoin:round;stroke-width:7px"/><line x1="666.84" y1="289.83" x2="661.17" y2="441.89" style="fill:none;stroke:#231f20;stroke-linecap:round;stroke-linejoin:round;stroke-width:7px"/><line x1="654.54" y1="302.87" x2="572.32" y2="444.71" style="fill:none;stroke:#231f20;stroke-linecap:round;stroke-linejoin:round;stroke-width:7px"/><line x1="678.97" y1="302.16" x2="776.83" y2="434.42" style="fill:none;stroke:#231f20;stroke-linecap:round;stroke-linejoin:round;stroke-width:7px"/></g></g></svg>