<svg id="HAT_ASSETS" data-name="HAT ASSETS" xmlns="http://www.w3.org/2000/svg" viewBox="0 0 1440 1440"><g id="Santa_Hat" data-name="Santa Hat"><g id="Layer_80" data-name="Layer 80"><path d="M765.5,381.19h0a2.11,2.11,0,0,1-.11.38c-4.65,15-48.4,32.22-103.51,39.92s-102.41,3.26-111.6-9.81c-.13-.2-.28-.4-.41-.62l0-.06c-8.08-12.5-13-41.06-13.5-43.75l0-.2c-.8-4.89,2.86-10.13,10.05-15.3,17.24-12.43,54.7-24.54,99.2-30.76,51.43-7.2,96.37-4.32,112.65,6h0c3.67,2.32,5.88,5,6.37,8.08,0,0,0,.07,0,.18C765,337.86,769.45,367.14,765.5,381.19Z" style="fill:#fff"/><path d="M765.5,381.19h0a2.11,2.11,0,0,1-.11.38c-4.65,15-48.4,32.22-103.51,39.92s-102.41,3.26-111.6-9.81c-.13-.2-.28-.4-.41-.62l0-.06c-8.08-12.5-13-41.06-13.5-43.75l0-.2a8.65,8.65,0,0,1,0-2.87c2.28,10.11,6.1,24.07,11.12,31.84a.43.43,0,0,1,0,.07l.42.61c9.18,13.07,56.48,17.53,111.59,9.81S758.36,381.61,763,366.6c0-.12.08-.24.11-.37v0c2.44-8.68,1.67-23.17.63-33.59a8.37,8.37,0,0,1,.82,2.49s0,.07,0,.18C765,337.86,769.45,367.14,765.5,381.19Z" style="fill:#bcbcbc"/><path d="M546.34,351.76v0" style="fill:#231f20"/><path d="M758.19,327c-16.28-10.34-61.22-13.22-112.65-6-44.5,6.22-82,18.33-99.2,30.76.42-1.62,21.63-85-62.58-93.66a28.57,28.57,0,0,0-5.1-19.26c10.67-5.24,103.84-49,171-18.47C720.47,252.54,757.61,325.87,758.19,327Z" style="fill:#d52721"/><path d="M758.19,327c-5.54-3.52-14.4-6.18-25.71-7.87-16.84-24.58-48.56-62.63-94.37-83.45-53.64-24.37-123.84-1.38-155.4,11.53a28.71,28.71,0,0,0-4-8.39c10.67-5.24,103.84-49,171-18.47C720.47,252.54,757.61,325.87,758.19,327Z" style="fill:#f96464"/><path d="M483.76,258.1c-1.35,13.56-12.5,25-27.67,27.16-17.84,2.5-34.48-8.9-37.18-25.46s9.59-32,27.43-34.48c13.11-1.84,25.57,3.82,32.31,13.52h0a28.57,28.57,0,0,1,5.1,19.26Z" style="fill:#fff"/><path d="M483.76,256.1c-1.35,13.56-12.5,25-27.67,27.16-17.84,2.5-34.48-8.9-37.18-25.46a27.88,27.88,0,0,1,.1-9.65c3,16.26,19.44,27.36,37.08,24.9,14.3-2,25-12.33,27.33-24.86,0,.19.08.39.11.58A28.71,28.71,0,0,1,483.76,256.1Z" style="fill:#bcbcbc"/></g><g id="Layer_81" data-name="Layer 81"><path d="M765.51,381.19h0c0,.13-.08.26-.11.38-4.65,15-48.4,32.21-103.53,39.91s-102.4,3.26-111.6-9.81c-.13-.2-.27-.4-.4-.61a.18.18,0,0,1,0-.07c-8.08-12.5-13-41.05-13.5-43.75l0-.2c-.79-4.88,2.88-10.12,10.06-15.3,17.24-12.43,54.7-24.54,99.2-30.76,51.43-7.19,96.37-4.31,112.65,6h0c3.66,2.32,5.88,5,6.37,8.09,0,0,0,.06,0,.17C765,337.86,769.45,367.14,765.51,381.19Z" style="fill:none;stroke:#231f20;stroke-linecap:round;stroke-linejoin:round;stroke-width:10px"/><path d="M483.76,258.1c85,8.76,62.57,93.68,62.57,93.68" style="fill:none;stroke:#231f20;stroke-linecap:round;stroke-linejoin:round;stroke-width:10px"/><path d="M478.65,238.84h0c10.67-5.24,103.84-49,171-18.47C720.47,252.54,757.61,325.87,758.19,327" style="fill:none;stroke:#231f20;stroke-linecap:round;stroke-linejoin:round;stroke-width:10px"/><ellipse cx="451.22" cy="255.29" rx="32.67" ry="30.31" style="fill:none;stroke:#231f20;stroke-linecap:round;stroke-linejoin:round;stroke-width:10px"/></g></g></svg>