<svg id="HAT_ASSETS" data-name="HAT ASSETS" xmlns="http://www.w3.org/2000/svg" viewBox="0 0 1440 1440"><g id="Sunhat"><g id="Layer_94" data-name="Layer 94"><path d="M554.52,432.52C532,420.65,508.79,419.4,489,422.65A289.84,289.84,0,0,0,460.77,443c-3.23,2.66-16.09,14.24-22.08,19.64a15.65,15.65,0,0,1-.71-12.3,17.5,17.5,0,0,1,1-2.29,21.61,21.61,0,0,1,2.15-3.28h0c.31-.39.62-.76.94-1.11a25.72,25.72,0,0,1,5-4.41c7.18-5,19.5-11.22,34.7-15.18l.44-.12.1,0,.11,0c2.28-.59,4.61-1.12,7-1.57h0c.58-.12,1.17-.23,1.76-.33a111,111,0,0,1,34.88-.9l2.92.45a98,98,0,0,1,16.27,4.17c2,.7,4,1.46,5.95,2.3,2.48,1.06,5,2.23,7.42,3.53a43.37,43.37,0,0,0,6,2.59c.79.28,1.59.53,2.39.75,1.2.34,2.39.61,3.59.83l1.2.2c.79.12,1.59.22,2.39.29a41.43,41.43,0,0,0,11.5-.6A40.87,40.87,0,0,1,554.52,432.52Z" style="fill:#db9a41"/><path d="M642.49,386.52c.76-.85,1.55-1.67,2.35-2.45C644,384.86,643.26,385.68,642.49,386.52Z" style="fill:#db9a41"/><path d="M644.84,384.07q1.2-1.2,2.49-2.28Q646,382.89,644.84,384.07Z" style="fill:#db9a41"/><path d="M653,377.81c1.15-.68,2.31-1.32,3.5-1.93C655.27,376.5,654.1,377.14,653,377.81Z" style="fill:#db9a41"/><path d="M817.71,392.14c.92-.14,1.84-.3,2.75-.49l-.06,0c-9.94,2.8-20.42,2.54-30.61,2.14-22.25-.91-44.09-7.84-64.84-18a78.3,78.3,0,0,0-46.4-7.5q-2.35.36-4.74.87a82,82,0,0,1,8.93-1.87c1.4-.21,2.8-.39,4.2-.52a75.8,75.8,0,0,1,22.67,1.29c1.48.3,2.95.65,4.42,1h0c1.46.39,2.91.82,4.36,1.31s2.9,1,4.34,1.56c2.15.84,4.29,1.78,6.4,2.81a191.89,191.89,0,0,0,35.93,13.56c1.36.35,2.72.69,4.09,1l2.05.46c1.36.29,2.73.56,4.11.82s2.74.49,4.12.7A131.31,131.31,0,0,0,794,392.8a152.4,152.4,0,0,0,18.63-.07c.57,0,1.13-.1,1.7-.16s1.14-.12,1.7-.19Z" style="fill:#db9a41"/><path d="M908.45,379.24c-3.11,8.05-7,14-11.57,18.52l-.76.74a39.37,39.37,0,0,1-4.84,3.84c-.84.56-1.7,1.09-2.57,1.59-.59.33-1.18.64-1.77.95s-1.2.58-1.81.86q-1.61.72-3.27,1.32c-1.11.4-2.24.77-3.39,1.1l-1.26.35h0c-15.26-7.79-34.34-17.27-44.32-21,8.13-3.78,16-8.66,24-12.87,8.52-4.48,17.09-8.86,25.88-12.48,1.15-.47,2.33-1,3.52-1.43s2.38-.93,3.6-1.36h0c.4-.15.81-.29,1.22-.42l1.23-.39.76-.23h0s0,0,0,0a34.9,34.9,0,0,1,4.19-1h0a26.09,26.09,0,0,1,6.15-.44c.41,0,.79.06,1.15.11a8.38,8.38,0,0,1,1.45.32C914.14,359.73,911.51,371.33,908.45,379.24Z" style="fill:#db9a41"/><path d="M447.15,439.23A537.42,537.42,0,0,1,498,394.73a455.76,455.76,0,0,1,47-31.67q6.54-3.84,13.2-7.41Z" style="fill:#231f20"/><path d="M900.46,358c-.35-.05-.74-.09-1.14-.11a26.1,26.1,0,0,0-6.16.44s0,0,0,0h0c-5,.9-9.92,2.94-14.53,4.84-8.79,3.61-17.37,8-25.88,12.48-7,3.68-13.92,7.88-21,11.42-1.64.82-3.3,1.61-5,2.34a47.46,47.46,0,0,1-6.27,2.25l-.06,0c-9.94,2.8-20.42,2.54-30.61,2.14-22.25-.91-44.09-7.84-64.84-18a78.3,78.3,0,0,0-46.4-7.5q-2.35.36-4.74.87l-.21,0a85.2,85.2,0,0,0-24.85,9.57c-8.14,4.75-13.36,11.85-19.17,20-6.06,8.46-12.43,16.68-20,23.2-7.29,6.33-15.39,11.16-23.85,13.6h0a40.87,40.87,0,0,1-31.23-3.06C532,420.65,508.79,419.4,489,422.65c-2.2.35-4.37.77-6.48,1.23l-.11,0-.1,0a126.28,126.28,0,0,0-27.37,9.45c-1.29.62-2.53,1.25-3.7,1.88h0a81.06,81.06,0,0,0-8.24,5l14.31-10.77,89.89-67.67,0,0a.05.05,0,0,1,0,0l6.76-5.09q2.14-1.16,4.29-2.28Q570,348.26,582,343a330.49,330.49,0,0,1,33.56-12.55c6.05-1.87,12.14-3.54,18.27-5l.16,0c1.86-.42,3.72-.83,5.59-1.21,17.7-3.57,35.55-7.37,53.54-8.3,15.26-.79,30.76.17,45.77,4.29.46.11.93.24,1.38.37,33.9,9.66,125.19,29.73,157.09,36.67h0Z" style="fill:#efc940"/><path d="M900.46,358c-.35-.05-.74-.09-1.14-.11a26.1,26.1,0,0,0-6.16.44s0,0,0,0h0c-5,.9-9.92,2.94-14.53,4.84-8.79,3.61-17.37,8-25.88,12.48-7,3.68-13.92,7.88-21,11.42-1.64.82-3.3,1.61-5,2.34a47.46,47.46,0,0,1-6.27,2.25l-.06,0c-9.94,2.8-20.42,2.54-30.61,2.14-22.25-.91-44.09-7.84-64.84-18a78.3,78.3,0,0,0-46.4-7.5q-2.35.36-4.74.87l-.21,0a85.2,85.2,0,0,0-24.85,9.57c-8.14,4.75-13.36,11.85-19.17,20-6.06,8.46-12.43,16.68-20,23.2-7.29,6.33-15.39,11.16-23.85,13.6h0a40.87,40.87,0,0,1-31.23-3.06C532,420.65,508.79,419.4,489,422.65c-2.2.35-4.37.77-6.48,1.23l-.11,0-.1,0a126.28,126.28,0,0,0-27.37,9.45c-1.29.62-2.53,1.25-3.7,1.88h0a81.06,81.06,0,0,0-8.24,5l14.31-10.77,30.3-22.81c.47-.09.94-.16,1.41-.24,19.81-3.25,43-2,65.54,9.87a40.87,40.87,0,0,0,31.23,3.06h0c8.46-2.44,16.56-7.27,23.85-13.6,7.54-6.52,13.91-14.74,20-23.2,5.81-8.11,11-15.21,19.17-20A85.2,85.2,0,0,1,673.6,353l.21,0q2.38-.51,4.74-.87a78.3,78.3,0,0,1,46.4,7.5c20.75,10.14,42.59,17.07,64.84,18,10.19.4,20.67.66,30.61-2.14l.06,0a47.46,47.46,0,0,0,6.27-2.25c1.66-.73,3.32-1.52,5-2.34,7.08-3.54,14-7.74,21-11.42,5.43-2.85,10.9-5.68,16.42-8.29h0c11.44,2.53,21.25,4.67,28.23,6.19h0Z" style="fill:#f7df9a"/><path d="M740.07,289c-48.65-12.37-128.19,15.13-179.5,36.46-9.63,4-18.27,7.78-25.52,11-3.71-32.79-6.45-82.78,8.59-98.24,43.28-44.49,102.09-41.21,103.66-41.11h0c1.51,0,3,0,4.52,0,17.18.45,39.11,1.95,54.51,11.82,12.84,8.23,20.13,23.6,26.89,39.59a67.74,67.74,0,0,1,4,13,76.4,76.4,0,0,1,1.47,13.7Z" style="fill:#efc940"/><path d="M738.73,275.5a2.56,2.56,0,0,0-.05-.27,67.74,67.74,0,0,0-4-13c-6.76-16-14.05-31.36-26.89-39.59-15.4-9.87-37.33-11.37-54.51-11.82-1.51,0-3,0-4.52,0h0c-1.57-.1-60.38-3.38-103.66,41.11-13.07,13.43-12.71,52.92-10,84.56l-.07,0c-3.71-32.79-6.45-82.78,8.59-98.24,43.28-44.49,102.09-41.21,103.66-41.11h0c1.51,0,3,0,4.52,0,17.18.45,39.11,1.95,54.51,11.82,12.84,8.23,20.13,23.6,26.89,39.59a67.74,67.74,0,0,1,4,13,76.4,76.4,0,0,1,1.47,13.7Z" style="fill:#f7df9a"/><path d="M743.08,319.25c-.74-.2-1.48-.4-2.23-.58s-1.5-.38-2.25-.54-1.2-.29-1.81-.4l-.36-.08-.12,0c-.73-.16-1.47-.31-2.21-.44-.58-.12-1.17-.23-1.75-.33l-1.65-.28-.43-.07-1.63-.25-1.86-.26-1.65-.21-1.75-.2c-.54-.06-1.07-.12-1.61-.16s-.84-.09-1.27-.12c-1-.09-2-.16-3-.23-1.24-.08-2.49-.15-3.74-.2l-2.24-.08-.61,0-1.41,0c-1.64,0-3.27,0-4.9,0h-.91c-1.2,0-2.39.05-3.58.1-.94,0-1.87.07-2.81.12-18,.93-35.85,4.73-53.55,8.31l-2.5.52-2.18.48-.46.11c-.78.17-1.55.35-2.33.54l-2.32.56-.16,0c-6.13,1.42-12.22,3.09-18.27,5A330.49,330.49,0,0,0,582,343q-12,5.2-23.7,11.34-2.14,1.13-4.29,2.28l-6.76,5.09a.05.05,0,0,0,0,0l0,0c-.73.4-1.46.83-2.18,1.25-1,.59-2,1.18-3,1.79h0l-2.71,1.63c-.08-.47-2.28-12.88-4.2-30,7.25-3.26,15.89-7,25.52-11,51.31-21.33,130.85-48.83,179.5-36.46Z" style="fill:#d14f52"/></g><g id="Layer_85" data-name="Layer 85"><path d="M881.86,407.06q1.67-.6,3.27-1.32c.61-.28,1.21-.56,1.81-.86s1.18-.62,1.77-.95c.87-.5,1.73-1,2.57-1.59a40.34,40.34,0,0,0,4.84-3.84l.76-.74c4.56-4.48,8.46-10.47,11.57-18.52s5.69-19.51-2.34-21.94a9.43,9.43,0,0,0-1.45-.32" style="fill:none;stroke:#231f20;stroke-linecap:round;stroke-linejoin:round;stroke-width:10px"/><path d="M539.25,366.47c-1.1.66-2.2,1.34-3.29,2q-3,1.85-6,3.76c-2,1.27-4,2.55-5.92,3.86-1.23.81-2.46,1.64-3.68,2.47-.84.56-1.67,1.14-2.51,1.72s-1.53,1-2.29,1.58l-2.5,1.75c-1.21.85-2.41,1.71-3.62,2.58-1.93,1.39-3.85,2.79-5.76,4.22s-3.81,2.85-5.7,4.3l-3.31,2.56-4.11,3.24c-1.36,1.09-2.72,2.18-4.08,3.29-1.14.92-2.28,1.86-3.41,2.79q-2.36,2-4.68,3.93l-3.87,3.32-1.71,1.49-4,3.5c-2.11,1.88-4.2,3.77-6.29,5.68-1.77,1.64-3.54,3.28-5.3,4.94-.84.79-1.69,1.59-2.53,2.4-1.18,1.11-2.35,2.25-3.52,3.39h0l-1.34,1.3c-.91.88-1.81,1.77-2.71,2.66,7.18-5,19.5-11.22,34.7-15.18l.44-.12.1,0,.11,0c2.28-.59,4.61-1.12,7-1.57l.48-.1,1.29-.24a111,111,0,0,1,34.88-.9c1,.14,1.94.28,2.92.45a98,98,0,0,1,16.27,4.17q2.24.78,4.46,1.68l1.49.62c1.24.53,2.48,1.08,3.71,1.67s2.47,1.2,3.71,1.85a44.7,44.7,0,0,0,6,2.6c.8.27,1.59.52,2.39.75.6.16,1.2.32,1.79.46s1.2.26,1.8.37l1.2.2c.8.12,1.59.22,2.39.29a41.43,41.43,0,0,0,11.5-.6h0a48.83,48.83,0,0,0,9.69-2.94c.76-.31,1.52-.65,2.27-1a63.82,63.82,0,0,0,8.81-5.05q1.61-1.09,3.18-2.28c1.39-1.06,2.76-2.18,4.1-3.34s2.79-2.5,4.12-3.84c.89-.88,1.77-1.79,2.63-2.72,2.58-2.8,5-5.76,7.42-8.82,2-2.55,3.9-5.17,5.8-7.81a130,130,0,0,1,8.71-11.25c.77-.84,1.55-1.66,2.35-2.45s1.63-1.55,2.49-2.28a39.08,39.08,0,0,1,5.62-4c1.15-.67,2.32-1.31,3.5-1.93a86.3,86.3,0,0,1,14.83-6c.77-.23,1.55-.45,2.32-.66a83.56,83.56,0,0,1,9.14-1.92c.7-.1,1.4-.2,2.1-.28s1.4-.16,2.1-.23a75.8,75.8,0,0,1,22.67,1.29c1.48.31,2.95.66,4.42,1h0c1.46.4,2.91.83,4.36,1.31s2.9,1,4.34,1.56c2.15.84,4.29,1.78,6.4,2.81a191.89,191.89,0,0,0,35.93,13.56c1.36.35,2.72.69,4.09,1l2.05.46c1.36.29,2.73.57,4.11.82s2.74.49,4.12.7c1.21.19,2.41.36,3.62.51q5.45.71,10.92.93c4.75.18,9.55.35,14.33.17,1.44-.05,2.87-.13,4.3-.25.57,0,1.14-.09,1.7-.16s1.14-.12,1.7-.19,1.13-.15,1.69-.24.92-.14,1.38-.23.87-.15,1.31-.24l.06,0c.2,0,.41-.07.61-.12a50,50,0,0,0,9.86-3.14c.65-.29,1.3-.58,1.94-.89,8.13-3.78,16-8.66,24-12.87,8.52-4.48,17.09-8.86,25.88-12.48,1.15-.47,2.33-1,3.52-1.43s2.38-.93,3.6-1.36h0c.4-.15.81-.29,1.22-.42l1.23-.39.76-.23h0s0,0,0,0a34.9,34.9,0,0,1,4.19-1h0a26.09,26.09,0,0,1,6.15-.44c.41,0,.79.06,1.15.11-28.58-6.2-125.12-27.34-160.21-37.35l-1.37-.38" style="fill:none;stroke:#231f20;stroke-linecap:round;stroke-linejoin:round;stroke-width:10px"/><path d="M438.68,462.64c-.14-.32-.28-.63-.4-.94s-.25-.66-.36-1-.19-.57-.26-.85a7.44,7.44,0,0,1-.2-.78,1,1,0,0,1,0-.24,5.63,5.63,0,0,1-.14-.69.44.44,0,0,1,0-.1c0-.24-.07-.48-.1-.71s0-.41,0-.61a3,3,0,0,1,0-.42c0-.26,0-.52,0-.78s0-.75.05-1.12a1.21,1.21,0,0,1,0-.19.41.41,0,0,1,0-.11q0-.36.09-.72a5.25,5.25,0,0,1,.09-.55c0-.22.08-.44.13-.65s.16-.64.25-.95.19-.62.3-.92a17.5,17.5,0,0,1,1-2.29,20.65,20.65,0,0,1,2.15-3.28h0c.31-.39.62-.76.94-1.11a25.72,25.72,0,0,1,5-4.41" style="fill:none;stroke:#231f20;stroke-linecap:round;stroke-linejoin:round;stroke-width:10px"/><line x1="743.08" y1="319.26" x2="743.08" y2="319.25" style="fill:none;stroke:#231f20;stroke-linecap:round;stroke-linejoin:round;stroke-width:10px"/><path d="M489.52,422.3h0l-.53.34A289.84,289.84,0,0,0,460.77,443c-3.23,2.66-16.09,14.24-22.08,19.64h0" style="fill:none;stroke:#231f20;stroke-linecap:round;stroke-linejoin:round;stroke-width:10px"/><path d="M835.61,386.18c9.48,3.78,26.93,12.35,42.58,20.33h0" style="fill:none;stroke:#231f20;stroke-linecap:round;stroke-linejoin:round;stroke-width:10px"/><path d="M740.07,289c-48.65-12.37-128.19,15.13-179.5,36.46-9.63,4-18.27,7.78-25.52,11-3.71-32.79-6.45-82.78,8.59-98.24,43.28-44.49,102.09-41.21,103.66-41.11h0c1.51,0,3,0,4.52,0,17.18.45,39.11,1.95,54.51,11.82,12.84,8.23,20.13,23.6,26.89,39.59a67.74,67.74,0,0,1,4,13,76.4,76.4,0,0,1,1.47,13.7Z" style="fill:none;stroke:#231f20;stroke-linecap:round;stroke-linejoin:round;stroke-width:10px"/><path d="M743.08,319.25c-.74-.2-1.48-.4-2.23-.58s-1.5-.38-2.25-.54-1.2-.29-1.81-.4l-.36-.08-.12,0c-.73-.16-1.47-.31-2.21-.44-.58-.12-1.17-.23-1.75-.33l-1.65-.28-.43-.07-1.63-.25-1.86-.26-1.65-.21-1.75-.2c-.54-.06-1.07-.12-1.61-.16s-.84-.09-1.27-.12c-1-.09-2-.16-3-.23-1.24-.08-2.49-.15-3.74-.2l-2.24-.08-.61,0-1.41,0c-1.64,0-3.27,0-4.9,0h-.91c-1.2,0-2.39.05-3.58.1-.94,0-1.87.07-2.81.12-18,.93-35.85,4.73-53.55,8.31l-2.5.52-2.18.48-.46.11c-.78.17-1.55.35-2.33.54l-2.32.56-.16,0c-6.13,1.42-12.22,3.09-18.27,5A330.49,330.49,0,0,0,582,343q-12,5.2-23.7,11.34-2.14,1.13-4.29,2.28l-6.76,5.09a.05.05,0,0,0,0,0l0,0c-.73.4-1.46.83-2.18,1.25-1,.59-2,1.18-3,1.79h0l-2.71,1.63c-.08-.47-2.28-12.88-4.2-30,7.25-3.26,15.89-7,25.52-11,51.31-21.33,130.85-48.83,179.5-36.46Z" style="fill:none;stroke:#231f20;stroke-linecap:round;stroke-linejoin:round;stroke-width:10px"/><path d="M633.82,325.53l-.73.19-2.05.53c-.93.24-1.85.49-2.78.75-1.84.5-3.69,1-5.53,1.58l-3,.91c-1.42.44-2.84.89-4.25,1.35s-2.66.88-4,1.34l-.62.21c-1.16.4-2.32.8-3.47,1.22l-.6.21c-1.33.48-2.66,1-4,1.46-2.8,1.05-5.58,2.14-8.36,3.26s-5.54,2.29-8.29,3.49c-1.23.53-2.45,1.08-3.68,1.63l-3.19,1.44-1.63.76-.32.15c-1.27.59-2.54,1.2-3.8,1.81-1,.48-2,1-3,1.48l-2.59,1.28-2.58,1.31-2.31,1.19-2.3,1.21c-.86.44-1.71.89-2.56,1.36,0,0,0,0,0,0h0l-.1,0c-.17.09-.34.17-.5.27q-1.35.72-2.7,1.47c-1.11.6-2.21,1.21-3.31,1.84s-2.2,1.23-3.29,1.87c-.35.18-.69.38-1,.59l6.76-5.09q2.14-1.16,4.29-2.28Q570,348.26,582,343a330.49,330.49,0,0,1,33.56-12.55C621.6,328.62,627.69,327,633.82,325.53Z" style="fill:none;stroke:#231f20;stroke-linecap:round;stroke-linejoin:round;stroke-width:10px"/><path d="M539.25,366.48h0" style="fill:none;stroke:#231f20;stroke-linecap:round;stroke-linejoin:round;stroke-width:10px"/></g></g></svg>