<svg id="HAT_ASSETS" data-name="HAT ASSETS" xmlns="http://www.w3.org/2000/svg" viewBox="0 0 1440 1440"><g id="Top_Hat" data-name="Top Hat"><g id="Layer_32" data-name="Layer 32"><path d="M655.58,434.29c-84,10.31-154.11,1.92-156.64-18.75-1.39-11.3,17.72-23.93,49.06-34.73l-2.34-19.11L520.55,157.14c1.35,11,47,14.5,102,7.75s98.42-21.15,97.07-32.18l25.1,204.56L747,356.39c33,2.91,54.61,10.54,56,21.83C805.58,398.88,739.55,424,655.58,434.29Z" style="fill:#3f3f3f"/><path d="M655.58,434.29c-84,10.31-154.11,1.92-156.64-18.75a11.86,11.86,0,0,1,2.15-7.91c14.76,16,78.63,21.65,153.49,12.47,73.49-9,133.23-29.37,145.3-48.16a11.26,11.26,0,0,1,3.16,6.28C805.58,398.88,739.55,424,655.58,434.29Z" style="fill:#2d2d2d"/><path d="M622.52,164.89c-55,6.75-100.62,3.28-102-7.75s42.11-25.43,97.07-32.17,100.61-3.28,102,7.74S677.48,158.15,622.52,164.89Z" style="fill:#3f3f3f"/><path d="M717.31,137.83c-12.8-7-52-8.39-97.59-2.78-46.77,5.74-85.23,17-94.79,27.06-2.63-1.43-4.15-3.08-4.38-5-1.36-11,42.11-25.44,97.07-32.19s100.62-3.26,102,7.76C719.8,134.36,719,136.07,717.31,137.83Z" style="fill:#666"/><line x1="552.48" y1="410.23" x2="548.85" y2="380.63" style="fill:#231f20"/><line x1="751.52" y1="385.81" x2="747.89" y2="356.2" style="fill:#231f20"/></g><g id="Top_Hat-2" data-name="Top Hat"><path d="M747.89,356.2c33,2.91,54.61,10.54,56,21.83,2.54,20.67-63.48,45.77-147.46,56.08S502.32,436,499.79,415.36c-1.39-11.3,17.72-23.93,49.06-34.73" style="fill:none;stroke:#231f20;stroke-linecap:round;stroke-linejoin:round;stroke-width:8.39100630377561px"/><ellipse cx="620.91" cy="144.75" rx="100.27" ry="20.11" transform="translate(-13.01 76.71) rotate(-7)" style="fill:none;stroke:#231f20;stroke-linecap:round;stroke-linejoin:round;stroke-width:7.79206783056038px"/><polyline points="552.48 410.23 546.5 361.52 521.39 156.96" style="fill:none;stroke:#231f20;stroke-linecap:round;stroke-linejoin:round;stroke-width:7.79206783056038px"/><polyline points="751.52 385.81 745.54 337.09 720.44 132.53" style="fill:none;stroke:#231f20;stroke-linecap:round;stroke-linejoin:round;stroke-width:7.79206783056038px"/></g></g></svg>