<svg id="HAT_ASSETS" data-name="HAT ASSETS" xmlns="http://www.w3.org/2000/svg" viewBox="0 0 1440 1440"><g id="Financial"><g id="Layer_84" data-name="Layer 84"><path d="M907.62,425.28l-.22-.08,0,0c-48-19.1-109.92-39.88-188.6-39.88-73.26,0-161,18-265.54,72.17q-10.37,5.37-21,11.22c.28-1.94,3.78-6.81,10.47-13.47a206.33,206.33,0,0,1,21-17.94c33.79-25.57,94.68-59.08,182-72.32,104.88-15.91,175.1,5.68,216.22,27.32a205.55,205.55,0,0,1,33.54,21.8A107.16,107.16,0,0,1,907.62,425.28Z" style="fill:#fff"/><line x1="907.63" y1="425.29" x2="907.62" y2="425.28" style="fill:#fff"/><path d="M861.87,392.28C820.75,370.64,750.53,349.05,645.65,365c-87.27,13.24-148.16,46.75-181.95,72.32-9.51-36-23-135.61,107.19-162.36C721.48,244,798.8,274.41,861.87,392.28Z" style="fill:#33cc6a"/><path d="M1016.47,506.76C873.41,415.13,657.33,525.56,586.86,531s-133.64-73.55-133.64-73.55C557.73,403.32,645.5,385.3,718.76,385.3c78.68,0,140.63,20.78,188.6,39.88l0,0C918.66,430.44,988.32,464.07,1016.47,506.76Z" style="fill:#33cc6a"/><path d="M997.66,516h0c-15.24-6.15-25.29-8.65-52.2-17.93-80.72-27.86-196.21,17.13-320,45.05s-193.15-74.38-193.15-74.38q10.59-5.85,21-11.22s63.16,79,133.64,73.55,286.55-115.89,429.61-24.26A73,73,0,0,1,1026.7,529C1014,522.93,1005.19,519,997.66,516Z" style="fill:#fff"/><path d="M1018.47,510.76c-1-.67-2.08-1.32-3.13-2-32.2-35.66-87.8-62.49-97.76-67.12l0,0c-48-19.1-109.92-39.88-188.6-39.88-72.79,0-159.9,17.79-263.52,71.13-6.54-6.87-10.2-11.44-10.2-11.44C559.73,407.32,647.5,389.3,720.76,389.3c78.68,0,140.63,20.78,188.6,39.88l0,0C920.66,434.44,990.32,468.07,1018.47,510.76Z" style="fill:#17a547"/><path d="M455.22,461.47s3.66,4.57,10.2,11.44l-2,1q-9.76,5.06-19.72,10.55a134.33,134.33,0,0,1-9.41-11.81Q444.86,466.84,455.22,461.47Z" style="fill:#bcbcbc"/><path d="M1020.36,513.21q-3.27-4.28-7-8.41c1,.64,2.09,1.29,3.13,2C1017.87,508.89,1019.18,511,1020.36,513.21Z" style="fill:#fff"/><path d="M1024.65,519.24c-.61-.39-1.22-.78-1.84-1.16-.74-1.63-1.56-3.26-2.45-4.87Q1022.64,516.2,1024.65,519.24Z" style="fill:#33cc6a"/><path d="M1026.7,529s1.27,18-13.49,18.89L997.66,516" style="fill:#33cc6a"/><path d="M895.41,414.08a205.55,205.55,0,0,0-33.54-21.8C798.8,274.41,721.48,244,570.89,274.92,440.68,301.67,454.19,401.23,463.7,437.28a206.33,206.33,0,0,0-21,17.94s-63.44-166.31,115-204.6S822.49,254.69,895.41,414.08Z" style="fill:#fff"/><path d="M861.87,392.28C820.75,370.64,750.53,349.05,645.65,365c-87.27,13.24-148.16,46.75-181.95,72.32a175.17,175.17,0,0,1-4.12-20.59c34.78-25.19,95.09-56.88,180.26-69.67,98.4-14.77,166.6,2.78,209.11,22.69Q855.54,380.41,861.87,392.28Z" style="fill:#17a547"/><path d="M463.7,437.28a206.33,206.33,0,0,0-21,17.94A164.19,164.19,0,0,1,437,435.15a215.67,215.67,0,0,1,19-15.81c1.17-.87,2.37-1.76,3.6-2.65A175.17,175.17,0,0,0,463.7,437.28Z" style="fill:#bcbcbc"/><path d="M895.41,414.08a205.55,205.55,0,0,0-33.54-21.8q-6.35-11.86-12.92-22.57c3.29,1.53,6.41,3.08,9.39,4.63a219.3,219.3,0,0,1,25.36,15.39Q889.63,401.42,895.41,414.08Z" style="fill:#bcbcbc"/></g><g id="Layer_82" data-name="Layer 82"><path d="M432.27,468.69S501.6,571,625.42,543.07s239.32-72.91,320-45.05c40.19,13.86,42.77,12.6,81.24,31" style="fill:none;stroke:#231f20;stroke-linecap:round;stroke-linejoin:round;stroke-width:10px"/><path d="M432.27,468.69c1.3-9.1,73.41-82.5,213.38-103.73,184.79-28,262,60.33,262,60.33h0c-95.57-38.08-246.72-83-475.36,43.4" style="fill:none;stroke:#231f20;stroke-linecap:round;stroke-linejoin:round;stroke-width:10px"/><path d="M997.66,516h0l15.55,31.93C1028,547,1026.7,529,1026.7,529a73,73,0,0,0-10.23-22.24c-28.15-42.69-97.81-76.32-109.07-81.56l0,0" style="fill:none;stroke:#231f20;stroke-linecap:round;stroke-linejoin:round;stroke-width:10px"/><path d="M453.22,457.47s63.16,79,133.64,73.55,286.55-115.89,429.61-24.26" style="fill:none;stroke:#231f20;stroke-linecap:round;stroke-linejoin:round;stroke-width:10px"/><path d="M442.74,455.22s-63.44-166.31,115-204.6,264.72,4.07,337.64,163.46" style="fill:none;stroke:#231f20;stroke-linecap:round;stroke-linejoin:round;stroke-width:10px"/><path d="M463.7,437.28c-9.51-36-23-135.61,107.19-162.36,150.59-31,227.91-.51,291,117.36" style="fill:none;stroke:#231f20;stroke-linecap:round;stroke-linejoin:round;stroke-width:10px"/></g></g></svg>