<svg id="MOUTH_ASSETS" data-name="MOUTH ASSETS" xmlns="http://www.w3.org/2000/svg" viewBox="0 0 1440 1440"><g id="Fancy"><g id="Layer_117" data-name="Layer 117"><path d="M717.76,826.11c-1.33-1-2.43-1.94-3.28-2.72-.68-.62-1.21-1.14-1.56-1.5l1.67,1.46Z" style="fill:#231f20"/><path d="M841.94,816.4c-2-.35-4.07-.6-6.09-.77Z" style="fill:#231f20"/><path d="M753.06,834.31v20.25A116.69,116.69,0,0,1,729,850.2c-4.08-4-7.86-7.92-11.22-11.44V826.11h0A43.51,43.51,0,0,0,753.06,834.31Z" style="fill:#fff"/><path d="M823.42,870.58c.16,8.16-3,17.33-14.14,25-4.38,3-10.1,3.19-16.63,1.33l3.76-19.58c2.9-.46,5.6-1,8.08-1.47A116.76,116.76,0,0,0,823.42,870.58Z" style="fill:#fff"/><path d="M796.41,877.36l-3.76,19.58c-9.14-2.61-19.85-9.19-30.63-17.43,3.55.1,7,.1,10.27,0A186.1,186.1,0,0,0,796.41,877.36Z" style="fill:#fff"/><path d="M823.42,870.58a116.76,116.76,0,0,1-18.93,5.31s-6.26-15.8-17.7-7.43c-.83-1.09-3.93-4.07-11.07-.4-8.1,4.18-3.9,10.77-3.43,11.47-3.29.08-6.72.08-10.27,0a354.72,354.72,0,0,1-33-29.31,116.69,116.69,0,0,0,24.08,4.36c17.92,1.47,36-.37,50-2.71,5-.82,9.39-1.71,13.15-2.53C817.38,851,823.22,860,823.42,870.58Z" style="fill:#231f20"/><path d="M816.18,849.32c-.13-.2-.21-.3-.21-.3" style="fill:none"/><path d="M717.76,838.76c-4.58-4.8-8.36-8.94-11-11.9-2.25-2.5-3.7-4.17-4.16-4.7l4.26,4.66Z" style="fill:#231f20"/><path d="M729,850.2l-.22-.06" style="fill:none"/><path d="M806,818.17,803,851.85c-14,2.34-32,4.18-50,2.71V834.31C768.7,831.07,786.54,822.61,806,818.17Z" style="fill:#fff"/><path d="M835.85,815.63,832.44,831l-3.35,15.08s-4.89,1.48-12.91,3.24c-3.76.82-8.2,1.71-13.15,2.53L806,818.17A96,96,0,0,1,835.85,815.63Z" style="fill:#fff"/><path d="M717.76,826.11v12.65l-10.92-11.94,7.64-3.43C715.33,824.17,716.43,825.11,717.76,826.11Z" style="fill:#fff"/><line x1="792.65" y1="896.94" x2="792.64" y2="896.98" style="fill:none"/><path d="M804.49,875.89c-2.48.51-5.18,1-8.08,1.47a186.1,186.1,0,0,1-24.12,2.17c-.47-.7-4.67-7.29,3.43-11.47,7.14-3.67,10.24-.69,11.07.4C798.23,860.09,804.49,875.89,804.49,875.89Z" style="fill:#f61f20"/><path d="M786.79,868.46l-.13.09" style="fill:none"/><path d="M772.34,879.59l-.05-.06" style="fill:none"/><path d="M787,868.83a4.23,4.23,0,0,0-.25-.37" style="fill:none"/></g><g id="Layer_51" data-name="Layer 51"><path d="M841.94,816.4c-33.47-5.64-64,12.75-88.88,17.91a43.51,43.51,0,0,1-35.29-8.2,41.61,41.61,0,0,1-4.85-4.22" style="fill:none;stroke:#231f20;stroke-linecap:round;stroke-linejoin:round;stroke-width:6px"/><path d="M702.42,822S782,914.5,809.28,895.61,816,849,816,849" style="fill:none;stroke:#231f20;stroke-linecap:round;stroke-linejoin:round;stroke-width:6px"/><path d="M835.85,815.63l-6.76,30.45s-56.91,17.2-100.33,4.06" style="fill:none;stroke:#231f20;stroke-linecap:round;stroke-linejoin:round;stroke-width:6px"/><path d="M801.25,812.48s25.43-14.72,49.26-6.38S832.44,831,832.44,831" style="fill:none;stroke:#231f20;stroke-linecap:round;stroke-linejoin:round;stroke-width:6px"/><path d="M739.41,812.23S732.71,823,710,821.8s-18.2,11.77-18.2,11.77" style="fill:none;stroke:#231f20;stroke-linecap:round;stroke-linejoin:round;stroke-width:6px"/><path d="M823.42,870.58s-24.38,10-61.56,8.93" style="fill:none;stroke:#231f20;stroke-linecap:round;stroke-linejoin:round;stroke-width:6px"/><line x1="805.95" y1="818.17" x2="803.03" y2="851.85" style="fill:none;stroke:#231f20;stroke-linecap:round;stroke-linejoin:round;stroke-width:6px"/><line x1="753.06" y1="834.3" x2="753.06" y2="854.56" style="fill:none;stroke:#231f20;stroke-linecap:round;stroke-linejoin:round;stroke-width:6px"/><line x1="717.76" y1="826.11" x2="717.76" y2="838.92" style="fill:none;stroke:#231f20;stroke-linecap:round;stroke-linejoin:round;stroke-width:6px"/><line x1="796.41" y1="877.36" x2="792.64" y2="896.98" style="fill:none;stroke:#231f20;stroke-linecap:round;stroke-linejoin:round;stroke-width:6px"/><path d="M804.49,875.89s-6.31-15.92-17.83-7.34" style="fill:none;stroke:#231f20;stroke-linecap:round;stroke-linejoin:round;stroke-width:6px"/><path d="M787,868.83s-2.75-5.18-11.32-.77-3.38,11.53-3.38,11.53" style="fill:none;stroke:#231f20;stroke-linecap:round;stroke-linejoin:round;stroke-width:6px"/></g><g id="Trunk_copy" data-name="Trunk copy"><g id="Trunk_C_copy" data-name="Trunk C copy"><path d="M748,795.11C782.74,872,841.56,904,890.77,917.25a271.94,271.94,0,0,0,60.55,8.94h0c11.64.42,19.9,0,23.19,0,16.79,0,18.35-3.15,50.34,7.86s32-7.34,29.28-14.68-15.12-14.68-5.68-25.69c4.17-4.87,6.4-10.6,5.91-15.37-.62-6-5.57-10.53-16.39-9.8-13.56.91-9.85,18.37-39.08,9.79-10.81-3.18-26.13-9.92-48.5-22.38-29.61-16.49-44.71-40.77-55.19-65.36-6.23-14.64-10.83-29.37-15.88-42.65-10.21-26.85-22.26-47.69-53.37-49.5C753.59,694.24,748,749,748,749Z" style="fill:#bbbcbe"/><path d="M1038,881.17c-13.56.91-9.84,18.37-39.07,9.79-10.8-3.18-26.13-9.93-48.5-22.38-29.62-16.49-47.59-38.93-58.07-63.53-6.23-14.63-13.92-31.23-19-44.51-10.21-26.85-16.24-48.73-47.4-49.47-67.56-1.61-75.08,38.6-75.08,38.6L748,749s5.58-54.73,78-50.54c31.11,1.81,43.16,22.65,53.38,49.49,5,13.28,9.65,28,15.88,42.66,10.47,24.59,25.56,48.87,55.18,65.36,22.37,12.46,37.7,19.2,48.5,22.38,29.23,8.58,25.51-8.88,39.07-9.79,10.83-.73,15.77,3.77,16.39,9.8a17.09,17.09,0,0,1-1.43,8.24C1050.72,882.92,1045.94,880.63,1038,881.17Z" style="fill:#e1e1e1"/><path d="M1024.87,934.07c-32-11-33.55-7.86-50.34-7.86-3.28,0-11.55.4-23.2,0h0a272.53,272.53,0,0,1-60.55-8.94C841.56,904,782.74,872,748,795.11l3.08.65c41.92,68.6,93.12,95.15,142.41,107A271.31,271.31,0,0,0,954.28,910h0c11.65.12,19.9-.51,23.19-.6,16.78-.46,18.25-3.66,50.54,6.47,12.87,4,20.53,3.56,24.89,1a14.64,14.64,0,0,1,1.23,2.48C1056.86,926.73,1056.86,945.09,1024.87,934.07Z" style="fill:#818385"/><path d="M969.57,927c11.89-3.77,22.18-47.23,12.76-56.41,1.51-4.81,7.8-20.63,22.14-10.54C1025.43,874.81,991.57,987.86,969.57,927Z" style="fill:#f6d440"/><path d="M978.29,942.25c17.82-6.84,32.93-73.17,17.21-84.22-.57-.4-1.12-.76-1.67-1.08,2.9-.57,6.42.15,10.64,3.12C1022.8,873,999.21,961,978.29,942.25Z" style="fill:#dbb823"/></g><g id="Trunk_Outline_copy" data-name="Trunk Outline copy"><path d="M745.7,748.73a19.09,19.09,0,0,1-.53-6.17,26.36,26.36,0,0,1,1-5.87,36.88,36.88,0,0,1,2.17-5.53c.42-.89.85-1.79,1.33-2.65s.93-1.76,1.45-2.6a64.61,64.61,0,0,1,7-9.67,66,66,0,0,1,8.74-8.14,70.36,70.36,0,0,1,10-6.37,76.35,76.35,0,0,1,10.92-4.47A94.63,94.63,0,0,1,810.64,693c1.92-.18,3.83-.21,5.74-.25l2.86-.06,2.86.07,2.85.09,1.43,0,1.48.14,2.95.29,1.48.15,1.48.27a54.21,54.21,0,0,1,22.5,9,24.44,24.44,0,0,1,2.44,1.85l2.37,1.95,2.17,2.13a25.45,25.45,0,0,1,2.09,2.2,57.3,57.3,0,0,1,3.78,4.65c.58.8,1.18,1.59,1.75,2.4l1.59,2.48a128.73,128.73,0,0,1,10.17,20.52c5.52,13.93,9.78,27.87,15.07,41.25s11.45,26.2,19.67,37.56a109.84,109.84,0,0,0,30.25,28.63l4.51,2.71c1.51.9,3.14,1.78,4.71,2.66q4.75,2.64,9.55,5.16c3.2,1.7,6.45,3.25,9.59,5,1.57.9,3.13,1.81,4.65,2.81a49.58,49.58,0,0,1,4.49,3.18l0,0a3.21,3.21,0,0,1-2.47,5.67,36.5,36.5,0,0,1-5.54-1.26,55.86,55.86,0,0,1-5.28-1.85c-3.45-1.4-6.74-3.12-10-4.79s-6.56-3.41-9.8-5.16c-1.63-.9-3.23-1.73-4.87-2.69L942.22,857A120.06,120.06,0,0,1,924,843.11,122.21,122.21,0,0,1,908.79,826a145.36,145.36,0,0,1-12-19.32c-3.48-6.69-6.52-13.56-9.29-20.47-5.54-13.81-9.94-27.85-15.29-41.09A118.11,118.11,0,0,0,863,726.37l-1.36-2.15c-.48-.69-1-1.35-1.48-2a47.1,47.1,0,0,0-3.12-3.87,19,19,0,0,0-1.69-1.78l-1.73-1.72-1.87-1.53a15.9,15.9,0,0,0-1.91-1.47A43,43,0,0,0,832,704.68a76.49,76.49,0,0,0-10.16-.89l-2.63-.09-2.62,0c-1.74,0-3.49,0-5.22.17a83.7,83.7,0,0,0-20.27,3.48,65.82,65.82,0,0,0-9.4,3.71,59.83,59.83,0,0,0-8.52,5.26,55.81,55.81,0,0,0-7.38,6.7,55,55,0,0,0-5.94,8c-.45.71-.85,1.44-1.24,2.18s-.79,1.48-1.15,2.23c-.75,1.5-1.38,3-2.12,4.57s-1.47,3.05-2.27,4.59c-.4.76-.83,1.53-1.27,2.3a25.77,25.77,0,0,1-1.44,2.27l-.29.38a2.45,2.45,0,0,1-4.33-.86Z" style="fill:#231f20"/><path d="M750.13,794.15a18.58,18.58,0,0,1,3.45,3.09,24.59,24.59,0,0,1,2.56,3.47c1.5,2.39,2.5,5,4,7.45l4.21,7.3,2.11,3.66,2.32,3.51,4.66,7c.74,1.2,1.63,2.28,2.47,3.4l2.54,3.35,2.54,3.35,1.26,1.68,1.38,1.59,5.48,6.35,1.37,1.59c.46.53,1,1,1.45,1.52l2.94,3,2.92,3,1.45,1.51c.5.49,1,.95,1.54,1.42l6.19,5.66c.52.47,1,1,1.56,1.4l1.62,1.32,3.26,2.64,3.26,2.63c1.07.9,2.25,1.65,3.37,2.49l6.82,4.87c4.73,3,9.37,6.09,14.32,8.73,19.41,11.16,40.77,18.77,62.68,23.81a262.1,262.1,0,0,0,33.37,5.27c2.81.28,5.62.48,8.44.68s5.46.31,8.45.41c2.83.12,5.65.08,8.48.32,1.41.11,2.83.28,4.25.52.71.11,1.42.26,2.14.42s1.39.35,2.23.59a3.21,3.21,0,0,1,.46,6l-.46.21a14.49,14.49,0,0,1-2.08.68c-.72.19-1.44.37-2.16.5a40.6,40.6,0,0,1-4.37.6c-2.91.25-5.84.14-8.76.1-2.75-.06-5.89-.17-8.76-.31s-5.83-.33-8.75-.58a274,274,0,0,1-34.74-5c-5.74-1.22-11.45-2.58-17.07-4.27l-4.24-1.21c-1.4-.43-2.79-.92-4.19-1.37-2.78-1-5.6-1.77-8.33-2.87a217.59,217.59,0,0,1-32.09-14.7c-5.2-2.78-10.1-6.08-15.08-9.25l-7.18-5.17c-1.18-.88-2.42-1.69-3.55-2.64l-3.43-2.8L803,878.27l-1.72-1.4c-.57-.47-1.09-1-1.64-1.49l-6.51-6c-.54-.51-1.09-1-1.62-1.51L790,866.29l-3.06-3.2-3-3.21c-.5-.54-1-1.06-1.51-1.62l-1.42-1.69-5.67-6.78-1.41-1.7-1.31-1.78-2.62-3.55-2.61-3.56c-.86-1.19-1.77-2.35-2.54-3.61L760,828.17l-2.37-3.71-2.14-3.84-4.29-7.69c-.34-.65-.73-1.27-1-1.93l-.95-2c-.64-1.32-1.28-2.64-1.79-4a26.6,26.6,0,0,1-1.22-4.28,17.72,17.72,0,0,1-.33-4.65,2.65,2.65,0,0,1,2.84-2.44,2.55,2.55,0,0,1,1.27.44Z" style="fill:#231f20"/><path d="M1011.16,878.32a9.76,9.76,0,0,1,2.34-1.73,9.18,9.18,0,0,1,2-1c.33-.11.61-.25.92-.33s.63-.13.92-.23a12.91,12.91,0,0,0,1.66-.7,13.9,13.9,0,0,0,3.16-2.23c1.08-.94,2.26-2.22,3.76-3.56a29.09,29.09,0,0,1,2.51-2l1.51-.95a15.84,15.84,0,0,1,1.65-.82l.84-.38.89-.28c.59-.17,1.19-.37,1.78-.49l1.77-.27c.29,0,.61-.09.87-.1l.75,0a31.55,31.55,0,0,1,6.25.21,21,21,0,0,1,6.67,2,15.33,15.33,0,0,1,8.49,12.68,21,21,0,0,1-.63,7,27.76,27.76,0,0,1-2.36,6.06,31.53,31.53,0,0,1-3.43,5.24l-.89,1.09c-.19.25-.42.49-.58.74a8.59,8.59,0,0,0-.85,1.4,4.65,4.65,0,0,0-.57,2.33,6,6,0,0,0,.21,1.23,12.63,12.63,0,0,0,.6,1.5,25.38,25.38,0,0,0,2.27,3.62c.94,1.32,2,2.73,3.14,4.4a28.8,28.8,0,0,1,1.67,2.82,17.3,17.3,0,0,1,.76,1.73c.22.58.4,1.13.56,1.68a24.08,24.08,0,0,1,.9,6.71,18.9,18.9,0,0,1-1.39,7.14,15.19,15.19,0,0,1-4.85,6.32,17.13,17.13,0,0,1-6.78,3.09,27.82,27.82,0,0,1-6.49.58,50.54,50.54,0,0,1-11.51-1.86q-2.71-.74-5.31-1.63l-1.3-.44-1.21-.44-2.44-.85c-3.24-1.12-6.49-2.2-9.73-3.19s-6.47-1.73-9.34-4.3l-.1-.09a3.5,3.5,0,0,1-.28-5,3.42,3.42,0,0,1,1.62-1c3.94-1.17,7.47-.15,10.88.83s6.82,2,10.17,3.08l2.51.82,1.26.41,1.18.37c1.56.51,3.13.94,4.69,1.34a40.29,40.29,0,0,0,9.07,1.29,17,17,0,0,0,3.87-.41,6.76,6.76,0,0,0,2.64-1.2,4.37,4.37,0,0,0,1.37-1.89,8.13,8.13,0,0,0,.51-3.06,13,13,0,0,0-.54-3.59c-.08-.28-.18-.56-.27-.79a7,7,0,0,0-.3-.65,17.92,17.92,0,0,0-1-1.65c-.82-1.21-1.88-2.56-3-4.05a37.26,37.26,0,0,1-3.29-5.19,21.25,21.25,0,0,1-1.32-3.35,17.47,17.47,0,0,1-.65-3.9,15.92,15.92,0,0,1,.39-4.08,17.23,17.23,0,0,1,1.32-3.66,19.77,19.77,0,0,1,1.85-3.05c.33-.48.68-.88,1-1.32l.76-.92A23.51,23.51,0,0,0,1047,886a13.28,13.28,0,0,0,1.84-6.92,4.83,4.83,0,0,0-.72-2.34,4.44,4.44,0,0,0-1.76-1.62c-1.7-1-4.5-1.37-7.42-1.27h-.55c-.18,0-.28,0-.43.06l-.81.08c-.26,0-.49.14-.73.19l-.37.09-.34.15a5.43,5.43,0,0,0-.7.32l-.71.41a17.8,17.8,0,0,0-1.56,1.22c-2.17,1.84-5.15,5.18-9.37,7.11a24,24,0,0,1-3.18,1.22,15.16,15.16,0,0,1-3.25.56,10.73,10.73,0,0,1-3.18-.5,8.74,8.74,0,0,1-2.88-1.76,3,3,0,0,1-.14-4.26l.07-.07Z" style="fill:#231f20"/><path d="M799.23,763a44.81,44.81,0,0,1,3.78-4.23c1.32-1.3,2.67-2.57,4.1-3.74a69.75,69.75,0,0,1,9.07-6.43,72.4,72.4,0,0,1,20.72-8.41,73.82,73.82,0,0,1,22.47-1.83,79.09,79.09,0,0,1,21.85,4.87,5,5,0,0,1-3.19,9.48l-.06,0a92,92,0,0,0-19.38-3.73,73.41,73.41,0,0,0-19.51,1.17,80.88,80.88,0,0,0-9.52,2.52l-2.34.83-2.31.91c-1.53.61-3.06,1.27-4.57,2a94,94,0,0,0-8.83,4.75c-1.43.88-2.85,1.79-4.23,2.74-.69.48-1.39,1-2.06,1.45s-1.37,1-1.93,1.46l-.16.13a2.78,2.78,0,0,1-3.9-3.9Z" style="fill:#231f20"/><path d="M840.57,813.78a37.93,37.93,0,0,1,2.47-3.23c.83-1,1.74-2,2.63-2.94a71,71,0,0,1,5.79-5.31,72.65,72.65,0,0,1,13.19-8.62,39.06,39.06,0,0,1,3.58-1.7c1.22-.51,2.4-1.12,3.65-1.54l3.75-1.32c1.24-.46,2.54-.75,3.82-1.1s2.55-.72,3.86-.92l3.91-.68a37.06,37.06,0,0,1,3.94-.42c1.32-.1,2.63-.19,4-.25a4.83,4.83,0,0,1,1.13,9.58l-.39.08c-1.16.22-2.32.42-3.47.6s-2.32.3-3.45.6c-2.29.49-4.58.89-6.82,1.55a92.82,92.82,0,0,0-13.23,4.49,90.63,90.63,0,0,0-12.54,6.46c-2,1.23-4,2.55-5.93,3.92-.95.71-1.92,1.41-2.84,2.14-.48.36-.93.73-1.38,1.11s-.93.76-1.3,1.07l-.22.19a2.81,2.81,0,0,1-4.1-3.76Z" style="fill:#231f20"/><path d="M969.57,927c11.89-3.77,22.18-47.23,12.76-56.41,1.51-4.81,7.8-20.63,22.14-10.54C1025.43,874.81,991.57,987.86,969.57,927Z" style="fill:none;stroke:#231f20;stroke-linecap:round;stroke-linejoin:round;stroke-width:10px"/></g></g></g></svg>