<svg id="MOUTH_ASSETS" data-name="MOUTH ASSETS" xmlns="http://www.w3.org/2000/svg" viewBox="0 0 1440 1440"><g id="Pursed"><path d="M801.94,829s-26.31,16.79,6.23,27.73c0,0-22.43,20.07,7.32,27.6" style="fill:none;stroke:#231f20;stroke-linecap:round;stroke-linejoin:round;stroke-width:10px"/><g id="Layer_152" data-name="Layer 152"><g id="Layer_151" data-name="Layer 151"><path d="M761.46,805.79c64.09,54.82,131,58.84,181.13,49.93a272.66,272.66,0,0,0,58.61-17.64h0c10.72-4.56,18-8.43,21-9.83,15.19-7.13,15.28-10.65,48.91-14.27s25.84-20.23,20.27-25.72-19.92-6.87-16.05-20.85c1.7-6.18,1.28-12.31-1.19-16.42-3.12-5.2-9.51-7.17-19-1.91-11.89,6.59-1.11,20.81-31.22,25.46-11.13,1.71-27.87,2.12-53.41.34-33.81-2.35-57.79-17.91-77.72-35.72-11.86-10.61-22.29-22-32.5-31.87-20.65-20-40.41-33.72-69.35-22.13-67.29,26.94-49.1,78.87-49.1,78.87Z" style="fill:#bbbcbe"/><path d="M1060.52,760.51c-11.88,6.59-1.1,20.82-31.21,25.46-11.13,1.72-27.86,2.12-53.41.34-33.82-2.34-59.62-15-79.55-32.84-11.86-10.6-25.88-22.35-36.08-32.23-20.66-20-34.54-35-63.94-24.65C747,713.94,743,750.85,743,750.85l-3.16,2.67s-16.2-41.42,51.1-68.37c28.94-11.59,48.7,2.17,69.35,22.13,10.21,9.88,20.64,21.27,32.5,31.87,19.93,17.81,43.9,33.38,77.72,35.72,25.55,1.78,42.28,1.37,53.41-.34,30.11-4.64,19.33-18.87,31.21-25.46,9.5-5.26,15.89-3.29,19,1.91a17.08,17.08,0,0,1,2.2,8.07C1072.8,756.69,1067.5,756.64,1060.52,760.51Z" style="fill:#e1e1e1"/><path d="M1071.13,814c-33.63,3.62-33.71,7.14-48.91,14.27-3,1.4-10.29,5.27-21,9.84h0a273.16,273.16,0,0,1-58.62,17.64c-50.17,8.92-117,4.89-181.12-49.93l3.06-.72c67.1,44.29,124.72,46.58,174.37,36.35A272.19,272.19,0,0,0,997,822.17h0c10.6-4.85,17.8-8.92,20.74-10.4,15-7.54,15-11.06,48.51-15.61,13.36-1.8,20.1-5.5,23-9.62a14.57,14.57,0,0,1,2.16,1.72C1097,793.74,1104.77,810.36,1071.13,814Z" style="fill:#818385"/></g><g id="Layer_150" data-name="Layer 150"><path d="M763.92,798.74A132.25,132.25,0,0,0,802.1,832,163,163,0,0,0,849.8,850,227.3,227.3,0,0,0,901,854.87a251.48,251.48,0,0,0,51.24-6,271.74,271.74,0,0,0,49.09-16.13q5.93-2.6,11.76-5.44l5.89-2.91,3-1.44c1-.45,1.9-1,2.85-1.43l5.87-3.06a68,68,0,0,1,6.46-2.9,78.19,78.19,0,0,1,13.53-3.66c4.47-.84,8.9-1.46,13.32-2l6.62-.78c2.07-.22,4.12-.52,6.12-.9a33.79,33.79,0,0,0,10.75-3.66,9.47,9.47,0,0,0,3.15-2.86,4.82,4.82,0,0,0,.73-3.21,9.91,9.91,0,0,0-1.46-4.08,14,14,0,0,0-1.41-2,8.55,8.55,0,0,0-1.58-1.44,54.8,54.8,0,0,0-5.16-3,34.63,34.63,0,0,1-6.39-4.19,17.4,17.4,0,0,1-3.06-3.39,14.87,14.87,0,0,1-2.06-4.46,15.8,15.8,0,0,1-.54-4.71,20.27,20.27,0,0,1,.59-4.25l.41-1.64c.11-.44.2-.89.29-1.34a24.33,24.33,0,0,0,.33-2.67,16.94,16.94,0,0,0-.38-5,8.65,8.65,0,0,0-1.78-3.7,4.59,4.59,0,0,0-2.77-1.54,9.55,9.55,0,0,0-4.24.39,19.74,19.74,0,0,0-2.45.9c-.42.19-.83.39-1.25.6a12.57,12.57,0,0,0-1.15.64,7.5,7.5,0,0,0-2.85,2.85,40.94,40.94,0,0,0-2.31,5.36,26.08,26.08,0,0,1-4,7,22.67,22.67,0,0,1-6.41,5.32,45.78,45.78,0,0,1-14,4.76,112.14,112.14,0,0,1-13.67,1.64,267.11,267.11,0,0,1-26.83.18c-4.44-.15-8.87-.4-13.29-.67s-9-.62-13.51-1.31a118.42,118.42,0,0,1-26.47-7.13,129.82,129.82,0,0,1-24.12-12.82A182.94,182.94,0,0,1,888.75,742c-13.28-12-25-25.26-37.61-36.9-6.3-5.77-12.92-11-20.19-14.66a53,53,0,0,0-5.55-2.39,39.14,39.14,0,0,0-5.67-1.58,40.24,40.24,0,0,0-11.77-.55,64.69,64.69,0,0,0-12,2.47c-2,.58-4,1.26-6,2s-3.85,1.45-5.71,2.32A70,70,0,0,0,764,706.8a71.74,71.74,0,0,0-20.76,43.94h0a3.59,3.59,0,0,1-7.16-.32A67.3,67.3,0,0,1,742,723.37a77.05,77.05,0,0,1,15.74-22.83,79,79,0,0,1,22.69-16c2.1-1,4.29-1.87,6.46-2.66s4.27-1.5,6.47-2.16a74.17,74.17,0,0,1,13.73-2.87,48.66,48.66,0,0,1,21.45,2.52,61.34,61.34,0,0,1,6.55,2.79c8.5,4.19,15.76,10,22.42,16s12.84,12.35,19,18.57,12.33,12.34,18.74,18.1a181.74,181.74,0,0,0,20.12,15.83,119.85,119.85,0,0,0,22.31,11.83A108.5,108.5,0,0,0,962,769c4.19.63,8.28,1,12.69,1.21s8.69.5,13,.65c8.66.29,17.32.36,25.82-.2a102.54,102.54,0,0,0,12.45-1.51,36.27,36.27,0,0,0,10.88-3.62,12.59,12.59,0,0,0,3.67-3,16.16,16.16,0,0,0,2.44-4.42,46.21,46.21,0,0,1,3-6.69,17.65,17.65,0,0,1,6.33-6.37,19.44,19.44,0,0,1,1.73-.95c.56-.29,1.14-.57,1.72-.83a30.34,30.34,0,0,1,3.72-1.37,19.32,19.32,0,0,1,8.77-.65,15,15,0,0,1,4.66,1.65,14.82,14.82,0,0,1,3.85,3.11,18.59,18.59,0,0,1,4,8,27,27,0,0,1,.63,8,34.91,34.91,0,0,1-.49,3.85c-.13.63-.25,1.26-.41,1.88l-.39,1.56a8.13,8.13,0,0,0-.14,4.06,5.86,5.86,0,0,0,2,2.95,25.53,25.53,0,0,0,4.62,3,58.24,58.24,0,0,1,6.21,3.65,18.31,18.31,0,0,1,3.27,3,24.36,24.36,0,0,1,2.44,3.38,19.76,19.76,0,0,1,2.8,8.25,15,15,0,0,1-.32,4.84,14.72,14.72,0,0,1-1.9,4.54,19.18,19.18,0,0,1-6.4,6,43,43,0,0,1-14,4.89c-2.32.44-4.62.76-6.91,1l-6.47.74c-4.28.55-8.55,1.14-12.7,1.91a69.54,69.54,0,0,0-11.87,3.17,56.12,56.12,0,0,0-5.55,2.49l-5.81,3c-1,.51-2,1-3,1.52l-3,1.43-5.91,2.91q-6,2.91-12.15,5.59a281.22,281.22,0,0,1-50.87,16.62,261.76,261.76,0,0,1-53.2,6.15,232.45,232.45,0,0,1-53.39-5.17,172.42,172.42,0,0,1-50.31-19.34,141.58,141.58,0,0,1-40.6-35.7,4.46,4.46,0,0,1,7-5.45Z" style="fill:#231f20"/><path d="M794.17,754.93a46.22,46.22,0,0,1,1.63-5.44c.65-1.73,1.33-3.45,2.13-5.12a69.79,69.79,0,0,1,5.47-9.67,72.41,72.41,0,0,1,15.19-16.42,74.11,74.11,0,0,1,19.56-11.2A79.72,79.72,0,0,1,860,702.2a5,5,0,0,1,1.14,9.94h-.06A92.21,92.21,0,0,0,842,717a74.1,74.1,0,0,0-17.17,9.35,79.68,79.68,0,0,0-7.54,6.33l-1.77,1.74-1.7,1.8c-1.13,1.22-2.24,2.46-3.29,3.74a89.88,89.88,0,0,0-6,8.06q-1.39,2.1-2.67,4.27c-.43.73-.85,1.46-1.24,2.19s-.82,1.51-1.14,2.14l-.09.18a2.78,2.78,0,0,1-5.19-1.87Z" style="fill:#231f20"/><path d="M853.18,783.37c.25-1.45.51-2.69.86-4s.75-2.51,1.14-3.77a70.7,70.7,0,0,1,3-7.27,72.19,72.19,0,0,1,8.28-13.41,38.61,38.61,0,0,1,2.52-3.06c.88-1,1.69-2,2.65-3l2.83-2.78c.93-.94,2-1.75,3-2.61s2-1.75,3.1-2.48l3.25-2.28c1.08-.77,2.25-1.39,3.39-2s2.31-1.29,3.47-1.9a4.84,4.84,0,0,1,5.1,8.19l-.33.24q-1.42,1-2.88,2c-1,.67-2,1.26-2.87,2-1.86,1.42-3.77,2.75-5.51,4.3a92.2,92.2,0,0,0-10.08,9.69,90.3,90.3,0,0,0-8.6,11.17c-1.31,2-2.53,4-3.7,6.07-.56,1-1.15,2.09-1.67,3.15-.28.52-.53,1.05-.78,1.58s-.51,1.09-.72,1.53l-.12.26a2.81,2.81,0,0,1-5.31-1.66Z" style="fill:#231f20"/></g></g></g></svg>