<svg id="MOUTH_ASSETS" data-name="MOUTH ASSETS" xmlns="http://www.w3.org/2000/svg" viewBox="0 0 1440 1440"><g id="Small"><path d="M741.25,846.53l2.93.85c1,.3,2,.59,3.08.86,2.07.53,4.14,1.07,6.23,1.5,4.17.92,8.35,1.68,12.53,2.23a112.4,112.4,0,0,0,24.89.69,94.29,94.29,0,0,0,12.1-1.89c1-.2,2-.49,3-.73l1.48-.38,1.46-.45c1-.3,2-.57,2.92-.9l2.89-1a114.66,114.66,0,0,0,22.21-11.6l.14-.09a5,5,0,0,1,6.56,7.51,70,70,0,0,1-10.49,10,71.37,71.37,0,0,1-12.46,7.79,78.14,78.14,0,0,1-13.85,5.24,83.91,83.91,0,0,1-14.55,2.52,92.76,92.76,0,0,1-29-2.25A97.77,97.77,0,0,1,749.62,862c-2.21-.91-4.41-1.84-6.54-2.94-1.07-.54-2.13-1.1-3.19-1.69s-2-1.19-3.21-2a5,5,0,0,1,4.15-9Z" style="fill:#231f20"/><g id="For_small_mouth" data-name="For small mouth"><g id="Layer_144" data-name="Layer 144"><path d="M755.51,799.22s24,88.36,148.63,159.92c0,0,26.11,11.5,24.27,27.18s29.11,17.24,25.23-7.81c0,0,16.86,3.83,21.1-10.64s-10.19-17.5-17.66-16.45-22.24-22.55-22.24-22.55c-46.07-67.2-45.2-138-60.88-173.47s-32.14-55.93-77.53-49.65-46.6,52.45-46.6,52.45Z" style="fill:#bbbcbe"/><path d="M874,755.4c10.83,24.54,13.77,65.91,29.74,111.3-17.31-40.69-25.65-77.58-37.14-99.81-18.18-35.18-35.9-54.92-79.73-45.56-20.4,4.36-30.76,16.9-36,29.06,2.61-13.44,12-40,45.61-44.64C841.82,699.47,858.28,719.89,874,755.4Z" style="fill:#e1e1e1"/><path d="M952,991.06c-6.24,11.18-25,7.57-23.6-4.74,1.84-15.68-24.27-27.18-24.27-27.18C779.51,887.58,755.51,799.22,755.51,799.22l-.5-3.64c.56,1.31,37.28,85.85,160.94,156.85,0,0,26.11,11.5,24.27,27.17C939.37,986.85,945.53,991.08,952,991.06Z" style="fill:#818385"/><path d="M754.11,759.34s13.78-39.34,48.25-40.2L795.6,707.5S751.55,715.55,754.11,759.34Z" style="fill:#e1e1e1"/></g><g id="Layer_145" data-name="Layer 145"><path d="M755.51,799.22s24,88.36,148.63,159.92c0,0,26.11,11.5,24.27,27.18s29.11,17.24,25.23-7.81c0,0,16.86,3.83,21.1-10.64s-10.19-17.5-17.66-16.45-22.24-22.55-22.24-22.55c-46.07-67.2-45.2-138-60.88-173.47s-32.14-55.93-77.53-49.65-46.6,52.45-46.6,52.45" style="fill:none;stroke:#231f20;stroke-linecap:round;stroke-linejoin:round;stroke-width:9.20965098841416px"/><path d="M801.24,764.16a41.52,41.52,0,0,1,3.25-3.64c1.14-1.11,2.3-2.21,3.54-3.21a59.31,59.31,0,0,1,7.79-5.53,62.66,62.66,0,0,1,17.83-7.24A63.78,63.78,0,0,1,853,743a69.31,69.31,0,0,1,18.8,4.19,4.31,4.31,0,0,1-2.75,8.16l0,0a78.8,78.8,0,0,0-16.67-3.21,63.46,63.46,0,0,0-16.79,1,68.6,68.6,0,0,0-8.19,2.17l-2,.71-2,.78c-1.32.53-2.64,1.1-3.93,1.71a79.58,79.58,0,0,0-7.6,4.09c-1.23.75-2.45,1.53-3.64,2.35s-2.41,1.71-3.43,2.51l-.15.11a2.39,2.39,0,0,1-3.35-3.36Z" style="fill:#231f20"/><path d="M836.81,807.87a44.4,44.4,0,0,1,4.38-5.3,62.39,62.39,0,0,1,16.34-12,32.16,32.16,0,0,1,3.08-1.47c1-.44,2.06-1,3.14-1.33l3.22-1.13c1.07-.39,2.19-.64,3.29-.94s2.19-.63,3.32-.8l3.36-.58a32.2,32.2,0,0,1,3.39-.36c1.14-.09,2.27-.16,3.4-.22a4.16,4.16,0,0,1,1,8.25l-.33.06c-1,.19-2,.36-3,.52s-2,.25-3,.51c-2,.43-3.94.77-5.86,1.34a80,80,0,0,0-11.39,3.86,78,78,0,0,0-10.78,5.56c-1.74,1.06-3.44,2.19-5.11,3.37s-3.31,2.5-4.74,3.72l-.16.13a2.42,2.42,0,0,1-3.56-3.21Z" style="fill:#231f20"/></g></g></g></svg>