<svg id="MOUTH_ASSETS" data-name="MOUTH ASSETS" xmlns="http://www.w3.org/2000/svg" viewBox="0 0 1440 1440"><g id="Teeth"><path d="M849.4,826.12c-.62,3.48-1.44,7.4-2.47,11.79-4.32,18.5-21.53,35-54.26,40.35s-54.29-4.88-64.26-21c-2.37-3.84-4.39-7.3-6.09-10.42-4.86-8.89-7.1-15-7.33-19h0c1.06.54,35.07,17.43,71.31,11.53s63.13-32.71,64-33.56h0C851.38,809.63,851.18,816.13,849.4,826.12Z" style="fill:#fff;stroke:#231f20;stroke-linecap:round;stroke-linejoin:round;stroke-width:10px"/><path d="M811,850.83a113.58,113.58,0,0,0,38-22.56" style="fill:#fff"/><path d="M810.38,849.17a109,109,0,0,0,19-10.66,114.51,114.51,0,0,0,16.33-14,5,5,0,0,1,7.2,7,5.53,5.53,0,0,1-.52.46l0,0a122.3,122.3,0,0,1-19.51,12.3,113.82,113.82,0,0,1-21.27,8.17,1.76,1.76,0,0,1-1.17-3.31Z" style="fill:#231f20"/><path d="M766.62,858.05a113.64,113.64,0,0,1-43.24-9.33" style="fill:#fff"/><path d="M766.59,859.6a114.13,114.13,0,0,1-22.74-.9,122.68,122.68,0,0,1-22.43-5.38h0a5,5,0,1,1,3.93-9.2,113.87,113.87,0,0,0,19.9,8.18,109.69,109.69,0,0,0,21.4,4.2h0a1.55,1.55,0,0,1,0,3.1Z" style="fill:#231f20"/><g id="For_Smile" data-name="For Smile"><g id="Layer_141" data-name="Layer 141"><path d="M748,798.83h0c3.06,11,9.8,29.85,25.29,47.14,32.85,36.64,79.18,44.06,98.51,44.85,11.31.46,37.9-2,67.51-11.66,38.36-12.5,48.54-26.58,72.4-22.47,16.07,2.77,22.54,5.49,37.11,5.15,18.94-.45,25.41-25.45,45.88-16.76,15.66,3.18,24.7-4,22.55-18.23-2.9-19.08-20.09-14.38-21.28-15,10-1.69,17.19-26.47,1.87-32.83s-23.46,8.27-23.46,8.27c-.54,7.42-18.41,10.6-35.09,5s-51.07-32.52-72.84-7.75-62,6.91-68.63-.73c-29-33.44-7-77-71.86-85.28-21.59-2.74-37.44,1.91-49,9.33-21.11,13.56-27.48,35.36-29,41Z" style="fill:#bbbcbe"/><path d="M1094.71,845.08c-20.47-8.69-26.94,16.31-45.88,16.76-14.57.34-21-2.38-37.11-5.15-23.86-4.11-34,10-72.4,22.47-29.61,9.64-56.2,12.12-67.51,11.66-19.33-.79-65.66-8.21-98.51-44.85-15.49-17.29-22.23-36.14-25.29-47.14l4.56-2.17c3.58,11.2,5.86,21.82,19.29,36.79,32.84,36.65,79.17,44.07,98.5,44.86,11.31.46,37.91-2,67.52-11.67,38.35-12.49,48.54-26.58,72.4-22.46,16.06,2.77,22.54,5.49,37.11,5.15,18.94-.45,25.41-25.45,45.87-16.76,12.74,2.59,21.11-1.7,22.62-11a24.78,24.78,0,0,1,1.38,5.32C1119.41,841.06,1110.37,848.26,1094.71,845.08Z" style="fill:#818385"/><path d="M961.51,789.15c-1.49,1.18,6.94,3.52,5.53,5.1-27.74,31.15-71.88,6-78.5-1.68-29-33.44-7-77-71.86-85.28-21.59-2.73-37.44,1.91-49,9.33q-2.43,1.56-4.59,3.25A64,64,0,0,1,777,707.79c11.54-7.42,27.39-12.07,49-9.33,64.9,8.23,42.9,51.84,71.86,85.28C904,790.83,939.09,806.72,961.51,789.15Z" style="fill:#e1e1e1"/><path d="M751.81,750.7S780.23,692.12,837.4,712c37.12,12.92-23.29-14.35-23.29-14.35S765.34,695,751.81,750.7Z" style="fill:#e1e1e1"/><path d="M938.79,809.1s17.32,1.06,38-20.78c15.74-16.6,49.34,14.3,70,15.23,18.8.85,31.88-7.76,32.39-14.4,0,0-25.08,16-50.36-.06s-53.19-18.75-61.28-4.86-27.06,10-27.06,10Z" style="fill:#e1e1e1"/></g><g id="Layer_142" data-name="Layer 142"><path d="M748,798.83h0c3.06,11,9.8,29.85,25.29,47.14,32.85,36.64,79.18,44.06,98.51,44.85,11.31.46,37.9-2,67.51-11.66,38.36-12.5,48.54-26.58,72.4-22.47,16.07,2.77,22.54,5.49,37.11,5.15,18.94-.45,25.41-25.45,45.88-16.76,15.66,3.18,24.7-4,22.55-18.23-2.9-19.08-20.09-14.38-21.28-15,10-1.69,17.19-26.47,1.87-32.83s-23.46,8.27-23.46,8.27c-.54,7.42-18.41,10.6-35.09,5s-51.07-32.52-72.84-7.75-62,6.91-68.63-.73c-29-33.44-7-77-71.86-85.28-21.59-2.74-37.44,1.91-49,9.33-21.11,13.56-27.48,35.36-29,41" style="fill:none;stroke:#231f20;stroke-linecap:round;stroke-linejoin:round;stroke-width:10.1889157295227px"/><path d="M799.23,763a44.81,44.81,0,0,1,3.78-4.23c1.32-1.3,2.67-2.57,4.1-3.74a69.75,69.75,0,0,1,9.07-6.43,72.4,72.4,0,0,1,20.72-8.41,73.82,73.82,0,0,1,22.47-1.83,79.09,79.09,0,0,1,21.85,4.87,5,5,0,0,1-3.19,9.48l-.06,0a92,92,0,0,0-19.38-3.73,73.41,73.41,0,0,0-19.51,1.17,80.88,80.88,0,0,0-9.52,2.52l-2.34.83-2.31.91c-1.53.61-3.06,1.27-4.57,2a94,94,0,0,0-8.83,4.75c-1.43.88-2.85,1.79-4.23,2.74-.69.48-1.39,1-2.06,1.45s-1.37,1-1.93,1.46l-.16.13a2.78,2.78,0,0,1-3.9-3.9Z" style="fill:#231f20"/><path d="M840.85,805c.84-1.2,1.59-2.21,2.46-3.23s1.75-2,2.63-2.93a69.38,69.38,0,0,1,5.8-5.31,71.45,71.45,0,0,1,13.19-8.62,36.6,36.6,0,0,1,3.58-1.7c1.21-.51,2.39-1.13,3.65-1.55l3.75-1.32c1.24-.45,2.54-.74,3.81-1.09s2.55-.73,3.86-.92l3.92-.68c1.3-.25,2.62-.31,3.93-.43s2.64-.18,4-.24a4.84,4.84,0,0,1,1.14,9.58l-.4.07c-1.16.22-2.31.42-3.47.6s-2.32.3-3.45.6c-2.28.5-4.58.9-6.81,1.56a92.13,92.13,0,0,0-13.24,4.49,91,91,0,0,0-12.53,6.45c-2,1.24-4,2.55-5.93,3.93-1,.7-1.92,1.4-2.85,2.14-.47.36-.93.73-1.38,1.1s-.92.77-1.29,1.08l-.23.18a2.8,2.8,0,0,1-4.09-3.76Z" style="fill:#231f20"/></g></g></g></svg>