<svg id="PANTS_ASSET" data-name="PANTS ASSET" xmlns="http://www.w3.org/2000/svg" viewBox="0 0 1440 1440"><g id="Baggy"><g id="Layer_70" data-name="Layer 70"><path d="M729.84,1307c-2.57,1.55-4.4,2.42-4.4,2.42" style="fill:#9767a0"/><path d="M775.3,1291.66a218.15,218.15,0,0,0-31.27,1.95c-3,5.89-9.73,10.68-14.19,13.4-4.87,10.3,4.07,19.81,2.51,26.15-1.18,4.79-1,9.83-2,14.66-.58,2.78-2.31,7.56-5.4,8.67-3.56,1.29-8.1-1.55-10.41-3.52a35.35,35.35,0,0,0-4.78-3.54h0a18.57,18.57,0,0,0-5.39-2.24c-6.46-1.5-13.6.52-19.73-1.9-35.45-14-57.36-3-78,3.63-5,1.6-10.4-.21-15.48,1.09-4.53,1.16-7.57,4.46-10.85,7.53-1.8,1.68-4,3.17-6.48,3.15-2.78,0-5.25-2.08-6.44-4.6-3.8-8,.54-9.55-.53-19.64a20.38,20.38,0,0,1,.12-8.9l-7.91-7.66c.93-2,.46-10-.6-20.63v0c-2.35-8.78-6.56-11.13-10.61-21.56-1.1-2.84-2.27-5.77-2.12-8.81.27-5.25,4.35-9.51,5.63-14.6,1.35-5.36-.52-10.92-1.31-16.38a47.07,47.07,0,0,1,1.79-19.76,157.51,157.51,0,0,1,3.64-16.37l-3.83-8.25c0-14.57,6-34.27,11.31-48.79,0,0,91.6,22.58,212.7,22.55-1.68,24.53-3,60.22,2.17,76C786,1268.57,775.3,1291.66,775.3,1291.66Z" style="fill:#9767a0"/><path d="M820.39,1308.42s-1.81-1.06-4.4-2.76" style="fill:#9767a0"/><path d="M990,1224.36c-.89,19.73-10.32,74.82-8.43,83.81a1.53,1.53,0,0,1-.48,1.45l-1.57,1.43h0c-4.32,6.78.89,9.29,1.11,17.09.21,7,4.25,13.71-.85,18.45-.77.72-3.89.92-4.93.8a4.91,4.91,0,0,1-4.21-4,12.47,12.47,0,0,0-6.13-8h0a12.34,12.34,0,0,0-1.3-.68c-6.56-3-14.61-2.7-21.54-1.45-11.27,2-21.19,5.94-32.8,5.13-11.28-.79-22.42-3.56-33.78-3.18-19.63.66-34.13,11.86-49.66,22.58a10.19,10.19,0,0,1-4.75,1.73c-2.48-.13-3.76-3.12-3.66-5.59s1-5,.36-7.38c-.5-2-1.92-3.55-2.87-5.35-2.19-4.16-2.89-4.82-2.12-9.11.86-4.77,4.42-9.76,4.18-14.61a1.21,1.21,0,0,0,0-.19c-.45-6-.5-10.82-.5-11.69-4.54-3-11.44-8-15-12.77-9.52-.86-18.12-1.2-25.69-1.23,0,0,10.72-23.09,2.52-48.36-5.13-15.81-3.85-51.5-2.17-76,62.14,0,132-6,201.31-24,5.69,13.74,12.23,32.53,12.23,46.4l-3.83,7.79S990.42,1214,990,1224.36Z" style="fill:#9767a0"/><path d="M977,1143.26c-69.28,18-139.17,24-201.31,24-121.1,0-212.7-22.55-212.7-22.55,4-11,7.64-19.08,7.89-19.64v0s92.55,16.89,197,16.89h0q5,0,9.92,0c102.32-1,190.84-16.84,190.84-16.84a0,0,0,0,1,0,0C968.94,1125.6,972.71,1133,977,1143.26Z" style="fill:#9767a0"/><path d="M977,1143.26l-4.14,1.06c-2.31-5.08-4-8.35-4.15-8.69a0,0,0,0,0,0,0s-88.52,15.85-190.84,16.84q-4.94,0-9.92,0h0c-104.46,0-197-16.89-197-16.89v0c-.17.38-1.86,4.16-4.18,10-2.44-.56-3.71-.87-3.71-.87,4-11,7.64-19.08,7.89-19.64v0s92.55,16.89,197,16.89h0q5,0,9.92,0c102.32-1,190.84-16.84,190.84-16.84a0,0,0,0,1,0,0C968.94,1125.6,972.71,1133,977,1143.26Z" style="fill:#9767a0"/><path d="M810.36,1293.87q-4.83-.57-9.37-1" style="fill:#9767a0"/><path d="M744,1293.61c-4.72.67-7.2,1.26-7.2,1.26" style="fill:#9767a0"/><path d="M626,1161.51s0,44.46-31.84,57.4c0,0-12.93,6.6-33.7,5.41l.83-7.49,22.32-2s32.85-10.56,35.57-53.28Z" style="fill:#70477a"/><polyline points="560.49 1224.32 553.17 1223.89 554.64 1217.77 561.32 1216.83" style="fill:#70477a"/></g><g id="Layer_71" data-name="Layer 71"><path d="M570.84,1125.08v0s92.55,16.89,197,16.89h0q5,0,9.92,0c102.32-1,190.84-16.84,190.84-16.84a0,0,0,0,1,0,0" style="fill:none;stroke:#231f20;stroke-linecap:round;stroke-linejoin:round;stroke-width:10px"/><line x1="709.73" y1="1349.43" x2="709.72" y2="1349.43" style="fill:none;stroke:#231f20;stroke-linecap:round;stroke-linejoin:round;stroke-width:10px"/><path d="M964.45,1335.45h0" style="fill:none;stroke:#231f20;stroke-linecap:round;stroke-linejoin:round;stroke-width:10px"/><path d="M725.44,1309.43s13.82-6.56,18.59-15.82" style="fill:none;stroke:#231f20;stroke-linecap:round;stroke-linejoin:round;stroke-width:10px"/><path d="M558.45,1299.24c1.06,10.63,1.53,18.64.6,20.65l7.91,7.66a20.38,20.38,0,0,0-.12,8.9" style="fill:none;stroke:#231f20;stroke-linecap:round;stroke-linejoin:round;stroke-width:10px"/><path d="M551.83,1218.13a157.51,157.51,0,0,1,3.64-16.37l-3.83-8.25c0-26,19.21-68.46,19.21-68.46" style="fill:none;stroke:#231f20;stroke-linecap:round;stroke-linejoin:round;stroke-width:10px"/><path d="M816,1305.52s0,5.14.5,11.83c0,.06,0,.13,0,.19" style="fill:none;stroke:#231f20;stroke-linecap:round;stroke-linejoin:round;stroke-width:10px"/><path d="M820.39,1308.42s-13.82-8.06-19.4-15.53" style="fill:none;stroke:#231f20;stroke-linecap:round;stroke-linejoin:round;stroke-width:10px"/><path d="M979.46,1311.06h0l1.57-1.43a1.53,1.53,0,0,0,.48-1.45c-1.89-9,7.54-64.08,8.43-83.81.47-10.36-4.59-26.91-4.59-26.91l3.83-7.79c0-24.58-20.53-64.61-20.53-64.61" style="fill:none;stroke:#231f20;stroke-linecap:round;stroke-linejoin:round;stroke-width:10px"/><path d="M775.65,1167.27c-1.68,24.53-3,60.22,2.17,76,8.2,25.27-2.52,48.36-2.52,48.36" style="fill:none;stroke:#231f20;stroke-linecap:round;stroke-linejoin:round;stroke-width:10px"/><path d="M736.83,1294.87s27.4-6.51,73.53-1" style="fill:none;stroke:#231f20;stroke-linecap:round;stroke-linejoin:round;stroke-width:10px"/><path d="M563,1144.72s209.71,51.7,414-1.46" style="fill:none;stroke:#231f20;stroke-linecap:round;stroke-linejoin:round;stroke-width:10px"/><path d="M566.84,1336.45c1.07,10.09-3.27,11.61.53,19.64,1.19,2.52,3.66,4.57,6.44,4.6,2.46,0,4.68-1.47,6.48-3.15,3.28-3.07,6.32-6.37,10.85-7.53,5.08-1.3,10.53.51,15.48-1.09,20.62-6.67,42.53-17.64,78-3.63,6.13,2.42,13.27.4,19.73,1.9,3.93.91,7.16,3.19,10.18,5.78,2.31,2,6.85,4.81,10.41,3.52,3.09-1.11,4.82-5.89,5.4-8.67,1-4.83.85-9.87,2-14.66,1.56-6.34-7.38-15.85-2.51-26.15" style="fill:none;stroke:#231f20;stroke-linecap:round;stroke-linejoin:round;stroke-width:10px"/><path d="M816.49,1317.35c.34,4.91-3.3,10-4.17,14.8-.77,4.29-.07,4.95,2.12,9.11.95,1.8,2.37,3.38,2.87,5.35.61,2.4-.27,4.9-.36,7.38s1.18,5.46,3.66,5.59a10.19,10.19,0,0,0,4.75-1.73c15.53-10.72,30-21.92,49.66-22.58,11.36-.38,22.5,2.39,33.78,3.18,11.61.81,21.53-3.09,32.8-5.13,6.93-1.25,15-1.58,21.54,1.45a12.81,12.81,0,0,1,7.44,8.67,4.91,4.91,0,0,0,4.21,4c1,.12,4.16-.08,4.93-.8,5.1-4.74,1.06-11.49.85-18.45-.22-7.8-5.44-10.31-1.1-17.1" style="fill:none;stroke:#231f20;stroke-linecap:round;stroke-linejoin:round;stroke-width:10px"/><path d="M558.45,1299.26v0c-2.35-8.78-6.56-11.13-10.61-21.56-1.1-2.84-2.27-5.77-2.12-8.81.27-5.25,4.35-9.51,5.63-14.6,1.35-5.36-.52-10.92-1.31-16.38a47.07,47.07,0,0,1,1.79-19.76" style="fill:none;stroke:#231f20;stroke-linecap:round;stroke-linejoin:round;stroke-width:10px"/></g></g></svg>