<svg id="PANTS_ASSET" data-name="PANTS ASSET" xmlns="http://www.w3.org/2000/svg" viewBox="0 0 1440 1440"><g id="Bell_Bottoms" data-name="Bell Bottoms"><g id="Layer_57" data-name="Layer 57"><path d="M803.64,1295.09c-41.75-15.48-69.7,6.68-69.7,6.68-.56,6-.57,13.28,2.55,24.51,2.44,8.76,8.68,17.17,11.52,21.54,0,0-101.25,51.92-198.5-5.55,0,0,14.12-19.17,12.11-43.57-4.6-55.7-24-114.08,6.56-176,0,0,191.62,55.3,405.92-11.91,30.6,61.92,8.87,123,4.28,178.72-2,24.4,14.39,40.85,14.39,40.85-97.25,57.47-198.5,5.56-198.5,5.56a71.76,71.76,0,0,0,8.89-19.77C806.28,1304.92,805.55,1301.17,803.64,1295.09Z" style="fill:#9767a0"/></g><g id="Layer_57-2" data-name="Layer 57"><path d="M561.62,1315.43a66.52,66.52,0,0,1-5.22,30.73c-2.3-1.24-4.59-2.53-6.89-3.89a72.9,72.9,0,0,0,11.77-30.7C561.4,1312.86,561.51,1314.15,561.62,1315.43Z" style="fill:#efd5af"/><path d="M992.77,1330.36q-4.17,2.48-8.36,4.67a52.91,52.91,0,0,1-6-28.79c.13-1.59.28-3.18.44-4.78A56.75,56.75,0,0,0,992.77,1330.36Z" style="fill:#efd5af"/><path d="M990,1189.4c-.83-21.39-5.12-43.08-15.89-64.89-214.3,67.22-405.92,11.91-405.92,11.91-11.45,23.16-15.9,45.84-16.73,68-1-27.54,2.39-55.77,16.73-84.77,0,0,191.62,55.3,405.92-11.91C987.69,1135.29,991,1162.63,990,1189.4Z" style="fill:#9767a0"/></g><g id="Layer_57-4" data-name="Layer 57"><path d="M741.11,1337c2.51,4.48,5.27,8.32,6.9,10.83,0,0-101.25,51.92-198.5-5.55a63.71,63.71,0,0,0,5.93-10.6C635.75,1375.45,717.33,1347.06,741.11,1337Z" style="fill:#9767a0"/><path d="M992.77,1330.36c-97.25,57.47-198.5,5.56-198.5,5.56a71.3,71.3,0,0,0,5.93-11.26c22.34,9.63,104.34,39.2,185.37-4.22A51.14,51.14,0,0,0,992.77,1330.36Z" style="fill:#9767a0"/></g><g id="Layer_42" data-name="Layer 42"><path d="M803.64,1295.09c-41.75-15.48-69.7,6.68-69.7,6.68-.56,6-.57,13.28,2.55,24.51,2.44,8.76,8.68,17.17,11.52,21.54,0,0-101.25,51.92-198.5-5.55,0,0,14.12-19.17,12.11-43.57-4.6-55.7-24-114.08,6.56-176,0,0,191.62,55.3,405.92-11.91,30.6,61.92,8.87,123,4.28,178.72-2,24.4,14.39,40.85,14.39,40.85-97.25,57.47-198.5,5.56-198.5,5.56a71.76,71.76,0,0,0,8.89-19.77C806.28,1304.92,805.55,1301.17,803.64,1295.09Z" style="fill:none;stroke:#231f20;stroke-linecap:round;stroke-linejoin:round;stroke-width:10.4043853282928px"/><path d="M561.62,1137.88s5.5,1.94,15.79,4.77" style="fill:none;stroke:#231f20;stroke-linecap:round;stroke-linejoin:round;stroke-width:8px"/><path d="M612.14,1150.86c66.08,13.36,190.67,26.94,335.66-14.68" style="fill:none;stroke:#231f20;stroke-linecap:round;stroke-linejoin:round;stroke-width:8px;stroke-dasharray:35.696773529052734,35.696773529052734"/><path d="M964.89,1131.05q7.82-2.46,15.69-5.13" style="fill:none;stroke:#231f20;stroke-linecap:round;stroke-linejoin:round;stroke-width:8px"/><polyline points="628.87 1136.36 623.62 1157.64 621.41 1222.79" style="fill:none;stroke:#231f20;stroke-linecap:round;stroke-linejoin:round;stroke-width:8px"/><polyline points="910.37 1127.51 913.87 1148.17 913.87 1211.35" style="fill:none;stroke:#231f20;stroke-linecap:round;stroke-linejoin:round;stroke-width:8px"/></g></g></svg>