<svg id="PANTS_ASSET" data-name="PANTS ASSET" xmlns="http://www.w3.org/2000/svg" viewBox="0 0 1440 1440"><g id="Pants"><g id="Pants_C" data-name="Pants C"><path d="M567.54,1145.3l-.94-.34" style="fill:#348"/><path d="M794.45,1152.22a7,7,0,1,1-7-7A7,7,0,0,1,794.45,1152.22Z" style="fill:#9767a0"/><path d="M667.5,1130.73a7,7,0,0,0-4.32,5.76l-3,30.11c-14.82-2.58-77.7-16.17-92.66-21.3,0,0,0,0,0,0-.32-.11-.64-.2-.95-.29-6-1.88-8.68-3.22-5.46-20.24,3.39-17.91,16-12.91,16-12.91,13.14,4.68,39.57,10.45,39.57,10.45s4.47,1.21,13.07,2.86S651,1128.91,667.5,1130.73Z" style="fill:#9767a0"/><path d="M660.2,1166.6h0s-12,67.94-106.67,49c1.7-10.88,6.62-40.83,14-70.26C582.5,1150.43,645.38,1164,660.2,1166.6Z" style="fill:#9767a0"/><path d="M661.2,1166h0s-12,67.94-106.66,49c.25-1.61.57-3.64,1-6,72.37,12.06,93.46-28.6,98.82-44.23C657.16,1165.3,659.5,1165.74,661.2,1166Z" style="fill:#9767a0"/><path d="M768.12,1171.88c-27.88,1.19-56.71.91-83.93-2l3.06-31a7,7,0,0,0-3.16-6.54,740.4,740.4,0,0,0,82.87,2h.1Z" style="fill:#9767a0"/><path d="M881.87,1130.07a7,7,0,0,1,3.8-7.35,897.83,897.83,0,0,1-118.61,11.64l1.06,37.52h.26c9.22-.4,18.33-.94,27.23-1.62,35.47-2.65,67.75-7.19,90.93-11Zm-94.39,29.12a7,7,0,1,1,7-7A7,7,0,0,1,787.48,1159.19Z" style="fill:#9767a0"/><path d="M978.13,1138.06c-1.54,2.31-4.68,4-10.54,5.72-8.18,2.38-21.67,4.75-43.55,8.77,0,0-4.71,1-13.11,2.48l-4.84-28.79a7.18,7.18,0,0,0-6.83-5.84q10.88-1.85,22.06-4s29.19-4.45,46.53-4.6c1.92,0,3.71,0,5.29.11,4,1.25,4.45,5.66,5.16,10.94C979.31,1130.29,980.32,1134.79,978.13,1138.06Z" style="fill:#9767a0"/><path d="M798.24,1227.3s-5.09,12.46-28.24,11l-1.88-66.44h.26c9.22-.4,18.33-.94,27.23-1.62Z" style="fill:#9767a0"/><path d="M800.24,1227.3s-5.09,12.47-28.23,11l-.15-5c17.51-1,21.61-11,21.61-11l-2.37-51.54,6.52-.47Z" style="fill:#9767a0"/><path d="M981.58,1183.34c-48.85,16.57-66.68-27.23-67.21-28.53v0c8-1.51,12.47-2.49,12.47-2.49,20.8-4,33.63-6.38,41.41-8.77a122.47,122.47,0,0,1,6.62,15.6A201.61,201.61,0,0,1,981.58,1183.34Z" style="fill:#9767a0"/><path d="M983.58,1183.6c-48.84,16.57-66.68-27.23-67.2-28.54v0c3-.57,5.52-1.07,7.48-1.47,6.75,11.28,24.41,32.51,58.29,23.76C982.64,1179.4,983.13,1181.49,983.58,1183.6Z" style="fill:#9767a0"/><path d="M990.55,1291.89v6.45a122,122,0,0,1-11.71,4.59l-.1,0c-43.49,14.73-110.42,15.52-146.92,14.66-15.82-.38-25.92-1.07-25.92-1.07s-6-28.19-29.44-26.75l-.58,0c-23.89,1.93-24.75,25.26-25.07,34,0,0-11.73,1.49-29.83,2.68-37.88,2.5-103.63,3.71-148.23-12.66l-.13,0a118.85,118.85,0,0,1-14.38-6.35s-11.41-25.5-.35-87.59c0,0,.22-1.53.65-4.29,94.69,19,106.66-49,106.66-49L664.08,1178a7,7,0,0,0,6.25,7.61l10.2,1a7,7,0,0,0,7.63-6.25l1-10.45c27.22,2.88,56.06,3.16,83.94,2l1.87,66.44c23.15,1.44,28.24-11,28.24-11l-2.62-57c35.46-2.65,67.75-7.19,90.92-11l1.92,12a7,7,0,0,0,8,5.78l10.13-1.62a7,7,0,0,0,5.78-8l-2-12.35c.53,1.31,18.36,45.1,67.21,28.54C993.35,1233.43,990.55,1291.89,990.55,1291.89Z" style="fill:#9767a0"/><path d="M747.07,1308.06a67.21,67.21,0,0,0-1.26,11.89s-11.73,1.49-29.83,2.68c-37.88,2.5-103.63,3.71-148.23-12.66l-.13,0a118.85,118.85,0,0,1-14.38-6.35s-1.92-4.28-3.42-13.61a179.72,179.72,0,0,0,17.8,7.87l.13.05c44.6,16.37,110.35,15.16,148.23,12.67C734.08,1309.36,747.07,1308.06,747.07,1308.06Z" style="fill:#9767a0"/><path d="M978.85,1288.91c4.08-1.37,8.26-3,11.89-4.67-.09,3.66-.18,5.72-.18,5.72v6.45c-3.66,1.66-7.58,3.19-11.71,4.59l-.11,0c-43.49,14.72-110.42,15.52-146.92,14.66-15.81-.38-25.91-1.07-25.91-1.07a46.68,46.68,0,0,0-4.74-11.93s14.84.53,30.65.91c36.5.86,103.43.07,146.92-14.66Z" style="fill:#9767a0"/><path d="M906.57,1175.39,896.44,1177a7,7,0,0,1-8-5.78l-1.91-12-4.67-29.18a7,7,0,0,1,3.8-7.35h0q6.74-1.1,13.58-2.32h0a6.94,6.94,0,0,1,6.49,5.84l4.61,28.79v0l2,12.35A7,7,0,0,1,906.57,1175.39Z" style="fill:#9767a0"/><path d="M687.25,1138.87l-3.06,31-1,10.45a7,7,0,0,1-7.62,6.25l-10.2-1a7,7,0,0,1-6.25-7.61l1.12-11.37h0l3-30.11a7,7,0,0,1,4.32-5.76q7.74.86,16.59,1.6A7,7,0,0,1,687.25,1138.87Z" style="fill:#9767a0"/><path d="M667.51,1130.73a7,7,0,0,0-4.33,5.77l-.42,4.32c-14.18-1.68-25.26-3.55-33-5-8.59-1.65-13.06-2.86-13.06-2.86s-26.44-5.77-39.58-10.46c0,0-12.58-5-16,12.91-.34,1.8-.62,3.43-.83,4.9-.91-2.73-.73-7.3.83-15.54,3.39-17.9,16-12.91,16-12.91,13.14,4.68,39.58,10.45,39.58,10.45s4.47,1.21,13.06,2.87S651,1128.91,667.51,1130.73Z" style="fill:#9767a0"/><path d="M767.36,1145H767a745.39,745.39,0,0,1-80.14-1.81l.43-4.32a7,7,0,0,0-3.17-6.55,742.65,742.65,0,0,0,82.88,2h.09Z" style="fill:#9767a0"/><path d="M885.67,1122.73a900.92,900.92,0,0,1-118.61,11.64l.3,10.63a895.63,895.63,0,0,0,115.13-11.12l-.61-3.81A7,7,0,0,1,885.67,1122.73Z" style="fill:#9767a0"/><path d="M979.88,1136.84c-.13-1-.29-2.14-.44-3.32-.68-5.28-1.13-9.69-4.92-10.94-1.5-.1-3.2-.14-5-.11-16.49.15-44.24,4.6-44.24,4.6q-7,1.41-13.93,2.69l-.56-3.51a7,7,0,0,0-6.49-5.85q10.34-1.85,21-4s27.75-4.45,44.24-4.61c1.83,0,3.53,0,5,.12,3.79,1.25,4.24,5.66,4.92,10.93C980.28,1129.41,981.13,1133.69,979.88,1136.84Z" style="fill:#9767a0"/><path d="M905.76,1126.25l.56,3.51c-2.36.45-4.71.87-7.06,1.29h0q-6.85,1.21-13.58,2.32h0a7,7,0,0,0-2.85,2.61l-.33-2.1-.61-3.81a7,7,0,0,1,3.79-7.34h0q6.72-1.11,13.58-2.33h0A7,7,0,0,1,905.76,1126.25Z" style="fill:#9767a0"/><path d="M687.26,1138.88l-.43,4.32-.26,2.59a7,7,0,0,0-2.48-2.81c-5.89-.49-11.42-1-16.58-1.61-1.63-.18-3.21-.35-4.75-.55l.42-4.32a7,7,0,0,1,4.33-5.77q7.74.86,16.58,1.6A7,7,0,0,1,687.26,1138.88Z" style="fill:#9767a0"/><path d="M686.83,1143.2l-.26,2.59a7,7,0,0,0-2.48-2.81Z" style="fill:#657dbc"/><path d="M882.49,1133.88l.33,2.1a7,7,0,0,1,2.85-2.61Z" style="fill:#657dbc"/></g><g id="Pants_Outline" data-name="Pants Outline"><path d="M686.11,1169.9c27.7,2.9,57,3.17,85.39,2,46.56-1.95,90.42-7.85,119.82-12.62" style="fill:none;stroke:#231f20;stroke-linecap:round;stroke-linejoin:round;stroke-width:10px"/><path d="M980.29,1138.06c-1.49,2.31-4.51,4-10.17,5.72-7.89,2.38-20.9,4.75-42,8.76,0,0-4.54,1-12.64,2.49l-4.67-28.79a7,7,0,0,0-6.58-5.84q10.47-1.85,21.27-4s28.15-4.45,44.87-4.61c1.85,0,3.58,0,5.1.12,3.85,1.25,4.3,5.66,5,10.94C981.43,1130.29,982.4,1134.79,980.29,1138.06Z" style="fill:none;stroke:#231f20;stroke-linecap:round;stroke-linejoin:round;stroke-width:10px"/><path d="M661.78,1166.59c-15.37-2.63-81.72-16.8-94.92-21.63" style="fill:none;stroke:#231f20;stroke-linecap:round;stroke-linejoin:round;stroke-width:10px"/><polyline points="770.15 1134.36 771.23 1171.88 773.14 1238.32 774.61 1289.81" style="fill:none;stroke:#231f20;stroke-linecap:round;stroke-linejoin:round;stroke-width:10px"/><path d="M799.11,1170.25l2.66,57s-5.17,12.49-28.72,11" style="fill:none;stroke:#231f20;stroke-linecap:round;stroke-linejoin:round;stroke-width:10px"/><path d="M797.93,1152.22a7.08,7.08,0,1,1-7.07-7A7,7,0,0,1,797.93,1152.22Z" style="fill:none;stroke:#231f20;stroke-linecap:round;stroke-linejoin:round;stroke-width:10px"/><path d="M686,1132.33a7,7,0,0,1,3.21,6.54l-3.11,31-1.05,10.46a7.06,7.06,0,0,1-7.73,6.25l-10.35-1a7,7,0,0,1-6.34-7.62l1.14-11.37h0l3-30.1a7,7,0,0,1,4.38-5.77" style="fill:none;stroke:#231f20;stroke-linecap:round;stroke-linejoin:round;stroke-width:10px"/><path d="M915.48,1155h0v0l2,12.35a7,7,0,0,1-5.85,8L901.36,1177a7.08,7.08,0,0,1-8.1-5.78l-1.94-12-4.73-29.19a7,7,0,0,1,3.85-7.34" style="fill:none;stroke:#231f20;stroke-linecap:round;stroke-linejoin:round;stroke-width:10px"/><path d="M915.49,1155s17.87,45.38,68.16,28.56" style="fill:none;stroke:#231f20;stroke-linecap:round;stroke-linejoin:round;stroke-width:10px"/><path d="M661.79,1166.6s-12.15,68-108.18,49" style="fill:none;stroke:#231f20;stroke-linecap:round;stroke-linejoin:round;stroke-width:10px"/><path d="M577.52,1111.81c13.32,4.68,40.13,10.45,40.13,10.45s4.54,1.21,13.25,2.86,21.59,3.79,38.29,5.61c5.23.57,10.85,1.11,16.82,1.6a761.53,761.53,0,0,0,84,2h.09a922.77,922.77,0,0,0,120.29-11.64h0q6.81-1.1,13.77-2.32h0q10.47-1.85,21.27-4s28.15-4.45,44.87-4.6c1.85,0,3.58,0,5.1.11,3.85,1.25,4.3,5.66,5,10.94,1,7.42,1.94,11.92-.17,15.19-1.49,2.31-4.51,4-10.17,5.72a122,122,0,0,1,6.72,15.6,200.6,200.6,0,0,1,6.81,24.22c10.92,49.83,8.08,108.29,8.08,108.29v6.45a124.35,124.35,0,0,1-11.87,4.59l-.11,0c-44.1,14.73-112,15.52-149,14.66-16-.38-26.28-1.07-26.28-1.07s-6.11-28.19-29.86-26.75l-.58,0c-24.23,1.93-25.1,25.26-25.43,34,0,0-11.89,1.49-30.25,2.68-38.41,2.5-105.09,3.71-150.32-12.66l-.14,0a121.27,121.27,0,0,1-14.58-6.35s-11.57-25.5-.36-87.59c0,0,5.49-37.7,14.88-74.6" style="fill:none;stroke:#231f20;stroke-linecap:round;stroke-linejoin:round;stroke-width:10px"/><path d="M577.52,1111.81s-12.76-5-16.2,12.91-.26,18.46,6.51,20.53" style="fill:none;stroke:#231f20;stroke-linecap:round;stroke-linejoin:round;stroke-width:10px"/></g></g></svg>