<svg id="PANTS_ASSET" data-name="PANTS ASSET" xmlns="http://www.w3.org/2000/svg" viewBox="0 0 1440 1440"><g id="Punk"><g id="Layer_66" data-name="Layer 66"><path d="M978.38,1202.05c-42.86-1.61-66.4-36-71.22-43.8-2.16.27-4.33.53-6.49.77l1.17,13.42-12.21,1.07-1.15-13.19c-32.14,3.23-63.72,4.77-93.77,5.15v75.34l-26.81,22.12v-97.41c-45.93-.44-87.32-3.38-120.44-6.74l-1.29,14.73L634,1172.44l1.31-15-5.79-.65c-1.57,2.78-23.87,40.89-67.62,44.93-3.73,84.94,13.2,147.7,13.2,147.7,40.05,10.5,141.91,0,141.91,0-1.14-29.41-.93-37.59,6.27-52.27S770,1282.78,770,1282.78h0c11,.14,39.92,1.38,49.38,10.58,8.66,8.42,9.37,24.13,8.21,53.55,0,0,99.38-1.76,140.19-12.25C967.78,1334.65,982.69,1281.82,978.38,1202.05Zm-382.29,60.6a1.35,1.35,0,0,1-.42-.86,1.16,1.16,0,0,1,.2-.59c2-3.68,7-4.52,11.16-4.17s8.53,1.45,12.5,0c3.15-1.11,5.63-3.67,8.78-4.77,5-1.74,10.4.49,15.21,2.68,2.33.85,4.49,2.74,4.93,5.19.14.82.07,1.68.22,2.5.83,4.49,7.78,6.47,7.4,11a1.68,1.68,0,0,1-.47,1.12,1.86,1.86,0,0,1-.91.36,19.37,19.37,0,0,1-12.13-1.52c-1.87-.9-3.6-2.11-5.53-2.87a7.28,7.28,0,0,0-6-.07c-2.06,1.1-3.14,3.51-5.17,4.66-3.11,1.76-7-.09-9.73-2.42s-5.2-5.26-8.68-6c-1.39-.31-2.83-.24-4.24-.44A11.65,11.65,0,0,1,596.09,1262.65Zm104.3,36.13c-1.37,4.85-4.58,5.31-7.28,5.19-3.85-.16-9-3.34-12.84-3.51-7.21-.3-13.13,2.41-20.35,2-4.75-.26-9.56-.56-14.17-3-2.87-1.55-7.93,4.16-10.81,2.78-5.67-2.71-9.67-6.26-15.4-5.25-4.94.88-23.48,2.4-22.63-16.93.42-9.48,5.8.55,8,2.74,4.8,4.81,10.08,5.57,15.31,6.14l16.26,1.77c7.38.8,14.76,1.61,22.14,2.11a294.69,294.69,0,0,0,38.86.06c1.33-.08,3.09.55,3.25,3.32A7.87,7.87,0,0,1,700.39,1298.78Zm228.23,2.81c-7.36,1.59-15,.08-22.53.49-7.82.43-15.67,2.93-23.36,1.44-3.53-.69-24.89-9.37-20.6-10.2a119.67,119.67,0,0,1,17.06-1.71c2.65,0,5.45-.24,7.59-1.79,2.48-1.8,27.19-7.8,33.84-4.7,10.2,5.43,13.06,4.72,24.53,3.3,1.71-.21,4.22,0,4.17,1.68C943,1294.94,936.4,1299.9,928.62,1301.59Z" style="fill:#9767a0"/><path d="M979.12,1224.76c-.75,59.54-11.34,97.06-11.34,97.06-39.34,10.11-133.1,12.11-139.81,12.24-.06,4-.2,8.23-.38,12.84,0,0,99.38-1.76,140.19-12.25C967.78,1334.65,979.9,1291.69,979.12,1224.76Zm-77.34-65.87-1.11.13.06.69,1.11-.1ZM716.54,1336.67c-7.2.73-102.95,10.06-141.48,0,0,0-12.94-48-13.7-116.79-.87,75.62,13.7,129.62,13.7,129.62,40.05,10.5,141.91,0,141.91,0C716.78,1344.67,716.63,1340.45,716.54,1336.67Z" style="fill:#9767a0"/><path d="M613.45,1257.71h0c.9.81,1.78,1.65,2.68,2.42,2.7,2.33,6.62,4.18,9.73,2.42a12.5,12.5,0,0,0,2.91-2.72Zm0,0h0c.9.81,1.78,1.65,2.68,2.42,2.7,2.33,6.62,4.18,9.73,2.42a12.5,12.5,0,0,0,2.91-2.72Z" style="fill:#3f3a3c"/><path d="M629.48,1156.83c-1.57,2.78-23.87,40.89-67.62,44.93a523.78,523.78,0,0,1,5.1-54S590.57,1152.32,629.48,1156.83Z" style="fill:#9767a0"/><path d="M644.33,1135.07l-7.05-.62-2,23-5.79-.65c-38.91-4.51-62.52-9.06-62.52-9.06q1.65-11.24,3.89-22.72S600.12,1130.39,644.33,1135.07Z" style="fill:#9767a0"/><path d="M767.9,1141.94v23.58c-45.93-.44-87.32-3.38-120.44-6.74l2-23.17c33.53,3.41,74.92,6.33,118.38,6.33Z" style="fill:#9767a0"/><path d="M886.34,1135.83c-33.77,3.31-75.1,6.11-118.44,6.11v23.58q13.17.12,26.81,0c30-.38,61.63-1.92,93.77-5.15Zm-105.06,20.85a2.7,2.7,0,1,1,2.7-2.7A2.7,2.7,0,0,1,781.28,1156.68Z" style="fill:#9767a0"/><path d="M778.59,1154a2.7,2.7,0,1,1,2.69,2.7A2.69,2.69,0,0,1,778.59,1154Z" style="fill:#5e585a"/><path d="M794.71,1165.47v75.34l-26.81,22.12v-97.41Q781.07,1165.64,794.71,1165.47Z" style="fill:#9767a0"/><path d="M972.69,1147.8c-21.83,4.4-43.77,7.84-65.53,10.45-2.16.27-4.33.53-6.49.77l-2.14-24.45c42.38-4.55,70.13-9.52,70.13-9.52Q971,1136.63,972.69,1147.8Z" style="fill:#9767a0"/><path d="M644.33,1135.07l-7.05-.62-.68,7.76c-39.86-4.46-65.75-9.18-65.75-9.18q-1.47,7.53-2.68,15l-1.21-.23q1.65-11.24,3.89-22.72S600.12,1130.39,644.33,1135.07Z" style="fill:#9767a0;opacity:0.24"/><path d="M767.9,1141.94v8h0c-43.46,0-84.85-2.92-118.38-6.33l-1.33,15.26-.69-.07,2-23.17c33.53,3.41,74.92,6.33,118.38,6.33Z" style="fill:#9767a0;opacity:0.24"/><path d="M886.34,1135.83c-33.77,3.31-75.1,6.11-118.44,6.11v8c43.34,0,84.67-2.8,118.44-6.11l1.45,16.58.69-.07Z" style="fill:#9767a0;opacity:0.24"/><path d="M972.69,1147.8l-1.26.25q-1.26-7.42-2.77-15s-27.45,4.92-69.44,9.45l-.69-7.91c42.38-4.55,70.13-9.52,70.13-9.52Q971,1136.63,972.69,1147.8Z" style="fill:#9767a0;opacity:0.24"/><path d="M978.38,1202.05c-42.86-1.61-66.4-36-71.22-43.8,21.76-2.61,43.7-6,65.53-10.45A541.65,541.65,0,0,1,978.38,1202.05Z" style="fill:#9767a0"/><path d="M978.38,1202.05c-42.86-1.61-66.4-36-71.22-43.8,2.46-.3,4.93-.6,7.4-.92,8.43,11.72,29.47,35.42,63.45,38.56Q978.22,1199,978.38,1202.05Z" style="fill:#3a3537"/><path d="M972.82,1147.77l-.13,0" style="fill:#5e585a"/><path d="M649.48,1135.61l-2,23.17-1.29,14.73L634,1172.44l1.31-15,2-23,7.05.62h0Z" style="fill:#5e585a"/><path d="M649.49,1135.52v.09l-5.13-.54Z" style="fill:#5e585a"/><path d="M901.84,1172.44l-12.21,1.07-1.15-13.19-2.14-24.49q6.27-.63,12.19-1.26l2.14,24.45Z" style="fill:#5e585a"/><path d="M898.53,1134.57q-5.91.63-12.19,1.26l0-.31,12.21-1.07Z" style="fill:#5e585a"/><line x1="767.9" y1="1262.93" x2="767.86" y2="1262.96" style="fill:#5e585a"/><path d="M784,1154a2.7,2.7,0,1,1-2.7-2.69A2.7,2.7,0,0,1,784,1154Z" style="fill:#5e585a"/><path d="M628.31,1252.31c-3.15,1.1-5.63,3.66-8.78,4.77-4,1.4-8.31.3-12.5,0s-9.13.49-11.16,4.17a1.16,1.16,0,0,0-.2.59,1.35,1.35,0,0,0,.42.86,11.65,11.65,0,0,0,7.08,3.82c1.41.2,2.85.13,4.24.44,3.48.79,6,3.73,8.68,6s6.62,4.18,9.73,2.42c2-1.15,3.11-3.56,5.17-4.66a7.28,7.28,0,0,1,6,.07c1.93.76,3.66,2,5.53,2.87a19.37,19.37,0,0,0,12.13,1.52,1.86,1.86,0,0,0,.91-.36,1.68,1.68,0,0,0,.47-1.12c.38-4.55-6.57-6.53-7.4-11-.15-.82-.08-1.68-.22-2.5-.44-2.45-2.6-4.34-4.93-5.19C638.71,1252.8,633.3,1250.57,628.31,1252.31Z" style="fill:none;stroke:#231f20;stroke-linecap:round;stroke-linejoin:round;stroke-width:4px"/><path d="M886.78,1289.82c-2.14,1.55-4.94,1.78-7.59,1.79a119.67,119.67,0,0,0-17.06,1.71c-4.29.83,17.07,9.51,20.6,10.2,7.69,1.49,15.54-1,23.36-1.44,7.52-.41,15.17,1.1,22.53-.49,7.78-1.69,14.38-6.65,20.7-11.49,0-1.72-2.46-1.89-4.17-1.68-11.47,1.42-14.33,2.13-24.53-3.3C914,1282,889.26,1288,886.78,1289.82Z" style="fill:none;stroke:#231f20;stroke-linecap:round;stroke-linejoin:round;stroke-width:4px"/><path d="M626,1161.51s0,44.46-31.84,57.4c0,0-12.93,6.6-33.7,5.41l.83-7.49,22.32-2s32.85-10.56,35.57-53.28Z" style="fill:#3a3537"/></g><g id="Layer_67" data-name="Layer 67"><path d="M967.78,1334.65c-40.81,10.49-143.29,12.25-143.29,12.25,1.16-29.42,1.6-44.36-7.06-52.78-9.46-9.2-36.55-8.3-47.52-8.44h0s-36.43-2.17-43.63,12.51-7.42,20.8-6.28,50.21c0,0-104.89,11.56-144.94,1.06,0,0-27.89-103.42-4.21-224.41,0,0,92.55,16.89,197,16.89h0c106.45,0,200.76-16.89,200.76-16.89C992.79,1246,967.78,1334.65,967.78,1334.65Z" style="fill:none;stroke:#231f20;stroke-linecap:round;stroke-linejoin:round;stroke-width:10px"/><path d="M643.52,1255c2.33.85,4.49,2.74,4.93,5.19.14.82.07,1.68.22,2.5.83,4.49,7.78,6.47,7.4,11a1.68,1.68,0,0,1-.47,1.12,1.86,1.86,0,0,1-.91.36,19.37,19.37,0,0,1-12.13-1.52c-1.87-.9-3.6-2.11-5.53-2.87a7.28,7.28,0,0,0-6-.07c-2.06,1.1-3.14,3.51-5.17,4.66-3.11,1.76-7-.09-9.73-2.42s-5.2-5.26-8.68-6c-1.39-.31-2.83-.24-4.24-.44a11.65,11.65,0,0,1-7.08-3.82,1.35,1.35,0,0,1-.42-.86,1.16,1.16,0,0,1,.2-.59c2-3.68,7-4.52,11.16-4.17s8.53,1.45,12.5,0c3.15-1.11,5.63-3.67,8.78-4.77,5-1.74,10.4.49,15.21,2.68" style="fill:none;stroke:#231f20;stroke-linecap:round;stroke-linejoin:round;stroke-width:4px"/><path d="M634.94,1302.22c2.88,1.38,7.94-4.33,10.81-2.78,4.61,2.49,9.42,2.79,14.17,3,7.22.38,13.14-2.33,20.35-2,3.85.17,9,3.35,12.84,3.51,2.7.12,5.91-.34,7.28-5.19a7.87,7.87,0,0,0,.33-2.6c-.16-2.77-1.92-3.4-3.25-3.32a294.69,294.69,0,0,1-38.86-.06c-7.38-.5-14.76-1.31-22.14-2.11l-16.26-1.77c-5.23-.57-10.51-1.33-15.31-6.14-2.19-2.19-7.57-12.22-8-2.74-.85,19.33,17.69,17.81,22.63,16.93C625.27,1296,629.27,1299.51,634.94,1302.22Z" style="fill:none;stroke:#231f20;stroke-linecap:round;stroke-linejoin:round;stroke-width:4px"/><path d="M920.62,1285.12c10.2,5.43,13.06,4.72,24.53,3.3,1.71-.21,4.22,0,4.17,1.68-6.32,4.84-12.92,9.8-20.7,11.49-7.36,1.59-15,.08-22.53.49-7.82.43-15.67,2.93-23.36,1.44-3.53-.69-24.89-9.37-20.6-10.2a119.67,119.67,0,0,1,17.06-1.71c2.65,0,5.45-.24,7.59-1.79,2.48-1.8,27.19-7.8,33.84-4.7" style="fill:none;stroke:#231f20;stroke-linecap:round;stroke-linejoin:round;stroke-width:4px"/><path d="M647.46,1158.78c33.12,3.36,74.51,6.3,120.44,6.74a1108.09,1108.09,0,0,0,120.58-5.2" style="fill:none;stroke:#231f20;stroke-linecap:round;stroke-linejoin:round;stroke-width:10px"/><path d="M900.67,1159c2.16-.24,4.33-.5,6.49-.77,21.76-2.61,43.7-6,65.53-10.45l.13,0" style="fill:none;stroke:#231f20;stroke-linecap:round;stroke-linejoin:round;stroke-width:10px"/><path d="M635.27,1157.48l-5.79-.65c-38.91-4.51-62.52-9.06-62.52-9.06" style="fill:none;stroke:#231f20;stroke-linecap:round;stroke-linejoin:round;stroke-width:10px"/><line x1="767.9" y1="1141.94" x2="767.9" y2="1282.77" style="fill:none;stroke:#231f20;stroke-linecap:round;stroke-linejoin:round;stroke-width:10px"/><path d="M907.16,1158.25c4.82,7.83,28.36,42.19,71.22,43.8" style="fill:none;stroke:#231f20;stroke-linecap:round;stroke-linejoin:round;stroke-width:10px"/><path d="M561.86,1201.76c43.75-4,66-42.15,67.62-44.93" style="fill:none;stroke:#231f20;stroke-linecap:round;stroke-linejoin:round;stroke-width:10px"/><rect x="635.6" y="1134.92" width="12.26" height="38.13" transform="translate(102.99 -51.53) rotate(5)" style="fill:none;stroke:#231f20;stroke-linecap:round;stroke-linejoin:round;stroke-width:10px"/><rect x="887.95" y="1134.92" width="12.26" height="38.13" transform="translate(1885.3 2225.67) rotate(175)" style="fill:none;stroke:#231f20;stroke-linecap:round;stroke-linejoin:round;stroke-width:10px"/><polyline points="767.86 1262.96 767.9 1262.93 794.71 1240.81 794.71 1165.47" style="fill:none;stroke:#231f20;stroke-linecap:round;stroke-linejoin:round;stroke-width:10px"/><circle cx="781.28" cy="1153.98" r="2.69" style="fill:none;stroke:#231f20;stroke-linecap:round;stroke-linejoin:round;stroke-width:5px"/><line x1="783.98" y1="1153.98" x2="794.71" y2="1153.98" style="fill:none;stroke:#231f20;stroke-linecap:round;stroke-linejoin:round;stroke-width:5px"/></g></g></svg>