<svg id="PANTS_ASSET" data-name="PANTS ASSET" xmlns="http://www.w3.org/2000/svg" viewBox="0 0 1440 1440"><g id="Short"><g id="Layer_64" data-name="Layer 64"><path d="M561.73,1211.35l-.31,0" style="fill:#231f20"/><path d="M974.63,1142.84s-24.15,12.82-96.08,20l-3,.26-16.48,1.45q-16.71,1.28-36.37,2.07-14.9.6-31.58.84-5.34.08-10.87.11-4.44,0-9,0H769q-8.51,0-16.57-.12t-15.6-.3c-19.84-.5-37.57-1.43-53.37-2.63l-19.24-1.69-.25,0c-71.93-7.17-96.09-20-96.09-20l5.51-31.67c68.68,22.18,196.72,21.55,196.72,21.55h3.65c13.6,0,130.78-.68,195.42-21.55Z" style="fill:#fff"/><path d="M664.17,1162.85c-7.23,18.26-33.4,67.24-102.62,55.06q.08-3.32.18-6.56a622.88,622.88,0,0,1,6.1-68.51s24.16,12.82,96.09,20Z" style="fill:#9767a0"/><path d="M974.44,1299.53s-52.36,20.64-148,11.76c0,0,1.55-25.1-55.26-28.5-54.26,4.93-55.26,28.5-55.26,28.5-95.58,8.88-147.94-11.76-147.94-11.76-5.8-25.41-7.07-55-6.48-81.62,69.22,12.18,95.39-36.8,102.62-55.06l19.24,1.69c15.8,1.2,33.53,2.13,53.37,2.63q7.59.18,15.6.3t16.57.12h2.28q4.57,0,9,0,5.53,0,10.87-.11,16.7-.23,31.58-.84,19.68-.78,36.37-2.07l16.48-1.45c6.37,15.25,32.49,63.34,105.32,52.92C981.57,1243.08,980.38,1273.51,974.44,1299.53Z" style="fill:#9767a0"/><path d="M980.86,1216c-72.83,10.42-99-37.67-105.32-52.92l3-.26c71.93-7.17,96.08-20,96.08-20a622.88,622.88,0,0,1,6.1,68.51C980.78,1212.89,980.83,1214.44,980.86,1216Z" style="fill:#9767a0"/><path d="M981.05,1211.3l-.32,0" style="fill:#231f20"/><path d="M626,1161.51s0,44.46-31.84,57.4l-10.55-4.12s32.85-10.56,35.57-53.28Z" style="fill:#231f20"/></g><g id="Layer_63" data-name="Layer 63"><path d="M561.55,1217.91c69.22,12.18,95.39-36.8,102.62-55.06" style="fill:none;stroke:#231f20;stroke-linecap:round;stroke-linejoin:round;stroke-width:10px"/><path d="M875.54,1163.09c6.37,15.25,32.49,63.34,105.32,52.92" style="fill:none;stroke:#231f20;stroke-linecap:round;stroke-linejoin:round;stroke-width:10px"/><path d="M561.73,1211.35l-.31,0" style="fill:none;stroke:#231f20;stroke-linecap:round;stroke-linejoin:round;stroke-width:10px"/><path d="M974.63,1142.84s-24.15,12.82-96.08,20l-19.49,1.71c-24.44,1.86-53.5,3-87.83,3s-63.39-1.19-87.82-3l-19.49-1.71c-71.93-7.17-96.09-20-96.09-20l5.51-31.67c68.68,22.18,196.72,21.55,196.72,21.55h3.65c13.6,0,130.78-.68,195.42-21.55Z" style="fill:none;stroke:#231f20;stroke-linecap:round;stroke-linejoin:round;stroke-width:10px"/><path d="M974.44,1299.53s-52.36,20.64-148,11.76c0,0,1.55-25.1-55.26-28.5-54.26,4.93-55.26,28.5-55.26,28.5-95.58,8.88-147.94-11.76-147.94-11.76-6.28-27.52-7.25-60-6.3-88.18a622.88,622.88,0,0,1,6.1-68.51s24.16,12.82,96.09,20l19.49,1.71c24.43,1.86,53.49,3,87.82,3s63.39-1.19,87.83-3l19.49-1.71c71.93-7.17,96.08-20,96.08-20a622.88,622.88,0,0,1,6.1,68.51C981.69,1239.55,980.72,1272,974.44,1299.53Z" style="fill:none;stroke:#231f20;stroke-linecap:round;stroke-linejoin:round;stroke-width:10px"/><path d="M981.05,1211.3l-.32,0" style="fill:none;stroke:#231f20;stroke-linecap:round;stroke-linejoin:round;stroke-width:10px"/><path d="M774.56,1165.25s-16-9.91-30.19-2-10.82,27.29-5,29.88,22.26-18.3,32.63-24.55S782,1194.83,809.48,1198s2.28-49.1-27.45-35.22C782,1162.81,777.92,1165.25,774.56,1165.25Z" style="fill:none;stroke:#231f20;stroke-linecap:round;stroke-linejoin:round;stroke-width:7px"/><path d="M800.33,1236.76c-21-26.38-25.77-71.51-25.77-71.51l1.48-.14s-9.1,21.16-12.3,33.06-4.12,18.31-5.8,20-3.81,14.48-2.89,20.27" style="fill:none;stroke:#231f20;stroke-linecap:round;stroke-linejoin:round;stroke-width:7px"/></g></g></svg>