<svg id="EYES_ASSET" data-name="EYES ASSET" xmlns="http://www.w3.org/2000/svg" viewBox="0 0 1440 1440"><g id="Bashful"><path d="M662.75,749.52a118.56,118.56,0,0,0-42,7.85c-12.8-7.63-23.22-23.35-26.73-42.79-5.41-30.05,7.79-57.58,29.47-61.49s43.66,17.28,49.08,47.34C676.07,719.68,671.9,737.9,662.75,749.52Z" style="fill:#231f20;stroke:#231f20;stroke-linecap:round;stroke-linejoin:round;stroke-width:10px"/><path d="M954.58,702.76a117.9,117.9,0,0,0-45.4,8.25c-11.82-8-21.3-23.09-24.6-41.44-5.41-30.05,7.78-57.57,29.47-61.48s43.66,17.28,49.08,47.33C966.43,673.73,962.82,691.1,954.58,702.76Z" style="fill:#231f20;stroke:#231f20;stroke-linecap:round;stroke-linejoin:round;stroke-width:10px"/><path d="M567.31,577.74a47.35,47.35,0,0,1,5.77-8.88,57.35,57.35,0,0,1,7.48-7.55,46.08,46.08,0,0,1,19.5-9.72,41.18,41.18,0,0,1,11.19-.77,40.74,40.74,0,0,1,10.83,2.35,47.32,47.32,0,0,1,17.68,11.62,2.43,2.43,0,0,1-2.86,3.84l0,0a79,79,0,0,0-17.39-6.89,41.56,41.56,0,0,0-8.73-1.14,39.59,39.59,0,0,0-8.62.79,48.59,48.59,0,0,0-16.32,7,74.62,74.62,0,0,0-7.52,5.55c-2.41,2-4.81,4.25-7,6.41l-.13.13a2.41,2.41,0,0,1-3.87-2.75Z" style="fill:#231f20"/><path d="M871.37,536.78a41.19,41.19,0,0,1,3-4.4c1.06-1.4,2.25-2.68,3.44-4a58.16,58.16,0,0,1,8-6.94,46.45,46.45,0,0,1,20.18-8.23A39.89,39.89,0,0,1,928,516.36a48.5,48.5,0,0,1,16.91,12.77,2.67,2.67,0,0,1-3.45,4l0,0a76.48,76.48,0,0,0-16.69-8.28,41.42,41.42,0,0,0-8.61-1.81,39.1,39.1,0,0,0-8.65.12A48.17,48.17,0,0,0,890.66,529a74.05,74.05,0,0,0-7.87,5c-1.28.92-2.53,1.89-3.77,2.89s-2.48,2.06-3.58,3l-.14.13a2.58,2.58,0,0,1-3.93-3.25Z" style="fill:#231f20"/><path d="M622.29,680.7c.41,6.18-2.88,11.44-7.34,11.74s-8.43-4.48-8.84-10.66S609,670.34,613.45,670,621.87,674.51,622.29,680.7Z" style="fill:#fff"/><path d="M914,635.06c.41,6.18-2.87,11.44-7.34,11.74s-8.42-4.48-8.83-10.66,2.87-11.44,7.34-11.74S913.63,628.87,914,635.06Z" style="fill:#fff"/><path d="M664.86,802.18c.56,7.59-16.33,15-37.73,16.62s-39.21-3.29-39.77-10.88,16.33-15,37.73-16.61S664.3,794.59,664.86,802.18Z" style="fill:#f6d4e2"/><path d="M1016.43,745.71c1,7.54-15.48,15.9-36.77,18.66s-39.32-1.13-40.3-8.68,15.48-15.9,36.76-18.66S1015.45,738.16,1016.43,745.71Z" style="fill:#f6d4e2"/><path d="M684.7,752.09a98.39,98.39,0,0,0-22-2.57,118.56,118.56,0,0,0-42,7.85,109.39,109.39,0,0,0-19.72,9.52" style="fill:none;stroke:#231f20;stroke-linecap:round;stroke-linejoin:round;stroke-width:10px"/><path d="M974.23,705.29a97.94,97.94,0,0,0-19.65-2.53,117.9,117.9,0,0,0-45.4,8.25,108.23,108.23,0,0,0-18.59,9.08" style="fill:none;stroke:#231f20;stroke-linecap:round;stroke-linejoin:round;stroke-width:10px"/></g></svg>