<svg id="EYES_ASSET" data-name="EYES ASSET" xmlns="http://www.w3.org/2000/svg" viewBox="0 0 1440 1440"><g id="Glamorous"><path d="M643.12,761.91c-21.68,3.91-43.65-17.28-49.07-47.33s7.79-57.58,29.47-61.49,43.66,17.28,49.08,47.34S664.82,758,643.12,761.91Z" style="fill:#231f20;stroke:#231f20;stroke-linecap:round;stroke-linejoin:round;stroke-width:10px"/><path d="M933.66,716.91c-21.7,3.91-43.67-17.28-49.08-47.34s7.78-57.57,29.47-61.48,43.66,17.28,49.08,47.33S955.34,713,933.66,716.91Z" style="fill:#231f20;stroke:#231f20;stroke-linecap:round;stroke-linejoin:round;stroke-width:10px"/><path d="M567.31,584.74a48,48,0,0,1,5.77-8.88,57.28,57.28,0,0,1,7.48-7.54,46,46,0,0,1,19.5-9.72,41.18,41.18,0,0,1,11.19-.77,40.73,40.73,0,0,1,10.83,2.34,47.44,47.44,0,0,1,17.68,11.62,2.43,2.43,0,0,1-2.86,3.84h0a79.09,79.09,0,0,0-17.39-6.9,42.21,42.21,0,0,0-8.73-1.13,39,39,0,0,0-8.62.78,48.61,48.61,0,0,0-16.32,7,73.11,73.11,0,0,0-7.52,5.55c-2.41,2-4.81,4.24-7,6.41l-.13.13a2.41,2.41,0,0,1-3.87-2.76Z" style="fill:#231f20"/><path d="M871.37,543.79a39.26,39.26,0,0,1,3-4.4c1.06-1.4,2.25-2.69,3.44-4a58.78,58.78,0,0,1,8-6.93,46.59,46.59,0,0,1,20.18-8.24,41.74,41.74,0,0,1,11.22,0,40.68,40.68,0,0,1,10.65,3.1,48.26,48.26,0,0,1,16.91,12.77,2.66,2.66,0,0,1-3.45,4l0,0a76.89,76.89,0,0,0-16.69-8.27,41.44,41.44,0,0,0-8.61-1.82,39.72,39.72,0,0,0-8.65.13A48,48,0,0,0,890.66,536a72.4,72.4,0,0,0-7.87,5c-1.28.93-2.53,1.9-3.77,2.89s-2.48,2.07-3.58,3l-.14.12a2.58,2.58,0,0,1-3.93-3.24Z" style="fill:#231f20"/><path d="M622.29,691.58c.41,6.19-2.88,11.44-7.34,11.74s-8.43-4.47-8.84-10.66,2.88-11.44,7.34-11.74S621.87,685.4,622.29,691.58Z" style="fill:#fff"/><path d="M914,646.27c.41,6.18-2.87,11.44-7.34,11.74s-8.42-4.48-8.83-10.66,2.87-11.44,7.34-11.74S913.63,640.08,914,646.27Z" style="fill:#fff"/><path d="M664.86,802.18c.56,7.59-16.33,15-37.73,16.62s-39.21-3.29-39.77-10.88,16.33-15,37.73-16.61S664.3,794.59,664.86,802.18Z" style="fill:#f6d4e2"/><path d="M1016.43,745.71c1,7.54-15.48,15.9-36.77,18.66s-39.32-1.13-40.3-8.68,15.48-15.9,36.76-18.66S1015.45,738.16,1016.43,745.71Z" style="fill:#f6d4e2"/><path d="M933.26,604.37c0,.06.11,0,.21-.12a2.94,2.94,0,0,0,.35-.25c.24-.18.48-.39.73-.61A17.46,17.46,0,0,0,936,602c.44-.52.92-1,1.32-1.61l.63-.85.56-.91a27.44,27.44,0,0,0,3.26-8.13l.41-2.24a21.65,21.65,0,0,0,.23-2.29,34.7,34.7,0,0,0,.09-4.68,21,21,0,0,0-.2-2.37L942,576.5l-.94-4.75,0-.15a1.62,1.62,0,0,1,3.11-.9c.61,1.6,1.25,3.21,1.84,4.84l.72,2.51a24.41,24.41,0,0,1,.65,2.55,39.85,39.85,0,0,1,.8,5.27,27,27,0,0,1,.18,2.7l0,2.74A34.9,34.9,0,0,1,946,602.25l-.55,1.33-.64,1.3a28.09,28.09,0,0,1-1.44,2.55,27.73,27.73,0,0,1-1.73,2.43c-.31.4-.64.8-1,1.19-.19.2-.35.39-.57.6a7.82,7.82,0,0,1-.74.69,5,5,0,0,1-6-8Z" style="fill:#231f20"/><path d="M947.47,623a5.77,5.77,0,0,0,.84-.25c.32-.1.65-.22,1-.35.66-.25,1.31-.54,2-.83a36.11,36.11,0,0,0,3.82-2.06,30.18,30.18,0,0,0,6.66-5.51,24,24,0,0,0,4.57-7.38,26.05,26.05,0,0,0,1.69-8.84v0a1.52,1.52,0,0,1,3-.19,29.1,29.1,0,0,1-4,20.29A37.87,37.87,0,0,1,960.1,626a44.28,44.28,0,0,1-4.21,3.36c-.74.52-1.49,1-2.27,1.5-.39.24-.79.47-1.2.7s-.77.44-1.38.72l-.84.38a5.11,5.11,0,0,1-4.27-9.29A5.49,5.49,0,0,1,947.47,623Z" style="fill:#231f20"/><path d="M956.28,643.14c.41,0,1.09-.13,1.66-.22s1.19-.21,1.79-.34c1.2-.26,2.39-.57,3.57-.92a34.88,34.88,0,0,0,6.73-2.77,20.45,20.45,0,0,0,5.56-4.33,15.47,15.47,0,0,0,2-2.87,14.84,14.84,0,0,0,1.17-3.34l0-.09a1.66,1.66,0,0,1,3.28.38,19.05,19.05,0,0,1-.58,4.48,20.61,20.61,0,0,1-1.73,4.25,26.15,26.15,0,0,1-5.81,6.93,42.29,42.29,0,0,1-7.31,5c-1.28.7-2.6,1.35-3.94,2-.67.3-1.35.59-2,.86s-1.34.52-2.23.8l-.35.1a5.06,5.06,0,0,1-3-9.67A5.21,5.21,0,0,1,956.28,643.14Z" style="fill:#231f20"/><path d="M600.7,672.69c-.43-.23-.61-.36-.87-.52s-.46-.31-.68-.47c-.44-.31-.85-.63-1.24-1a28.74,28.74,0,0,1-2.22-2c-.67-.72-1.36-1.42-2-2.19l-.91-1.14L592,664.2A35.21,35.21,0,0,1,587.36,654l-.61-2.68c-.22-.88-.27-1.8-.4-2.69a41.89,41.89,0,0,1-.34-5.35,23.3,23.3,0,0,1,.1-2.64l.17-2.62c.24-1.73.52-3.44.78-5.14a1.61,1.61,0,0,1,1.85-1.36,1.63,1.63,0,0,1,1.38,1.57v.15l.08,4.88.25,2.4a18.75,18.75,0,0,0,.32,2.37,34.66,34.66,0,0,0,1.07,4.58c.25.74.4,1.5.72,2.21l.88,2.11a27.49,27.49,0,0,0,4.93,7.3l.74.78.81.7a18.45,18.45,0,0,0,1.64,1.31,18.83,18.83,0,0,0,1.71,1.09c.29.16.58.32.85.44l.4.18c.11,0,.29.12.23.07a5,5,0,0,1-4.22,9.07Z" style="fill:#231f20"/><path d="M593.41,694.8c-.65-.15-1-.26-1.5-.41s-.9-.28-1.33-.43c-.87-.3-1.72-.64-2.56-1a45.59,45.59,0,0,1-4.85-2.41,37.63,37.63,0,0,1-8.53-6.6A30,30,0,0,1,568.7,675a30.32,30.32,0,0,1-2.33-10.14,1.52,1.52,0,0,1,3-.46v0a26,26,0,0,0,3.54,8.33,24.16,24.16,0,0,0,6.05,6.29,30.7,30.7,0,0,0,7.73,4,36.33,36.33,0,0,0,4.19,1.2c.71.16,1.41.3,2.11.4l1,.15a6.63,6.63,0,0,0,.88.06,5.11,5.11,0,1,1,.94,10.18,4.92,4.92,0,0,1-1.54-.09Z" style="fill:#231f20"/><path d="M590.58,716.61c-.93-.07-1.59-.18-2.36-.3s-1.46-.26-2.19-.41c-1.44-.3-2.87-.66-4.28-1.08a41.94,41.94,0,0,1-8.24-3.36,26.09,26.09,0,0,1-7.18-5.57,20,20,0,0,1-2.61-3.8,18.69,18.69,0,0,1-1.52-4.28,1.64,1.64,0,0,1,1.25-2,1.66,1.66,0,0,1,1.87.91l0,.09a15.09,15.09,0,0,0,1.86,3,16.08,16.08,0,0,0,2.54,2.41,20.71,20.71,0,0,0,6.38,3.07,35.26,35.26,0,0,0,7.21,1.3c1.23.1,2.47.14,3.7.14.61,0,1.23,0,1.83,0s1.27-.07,1.68-.14a5.06,5.06,0,1,1,1.59,10,5.3,5.3,0,0,1-1.19,0Z" style="fill:#231f20"/></g></svg>