<svg id="EYES_ASSET" data-name="EYES ASSET" xmlns="http://www.w3.org/2000/svg" viewBox="0 0 1440 1440"><g id="Happy"><path d="M584.05,721.09c.35-.69.59-1.18.9-1.73s.59-1.07.9-1.58c.62-1,1.27-2,1.94-3a58,58,0,0,1,4.38-5.62,67.23,67.23,0,0,1,10.54-9.73,66.27,66.27,0,0,1,12.62-7.35,64.23,64.23,0,0,1,14.13-4.35,67.46,67.46,0,0,1,7.35-1l3.7-.13c1.23,0,2.46.05,3.69.08l1.83.1c.62,0,1.22.12,1.83.19,1.21.13,2.42.27,3.63.45,2.37.49,4.78.84,7.08,1.56a71.68,71.68,0,0,1,25.07,12.46,4.83,4.83,0,0,1-4.38,8.43l-.08,0a152.42,152.42,0,0,0-23.79-5.72l-1.46-.21c-.48-.07-1-.08-1.45-.13l-2.9-.29c-1.93,0-3.85-.25-5.75-.13a61.51,61.51,0,0,0-11.29,1.05,66.8,66.8,0,0,0-10.94,3,77.92,77.92,0,0,0-10.48,4.85,87.51,87.51,0,0,0-10,6.46c-1.63,1.18-3.19,2.45-4.76,3.74-.78.64-1.54,1.31-2.29,2-.39.32-.76.66-1.13,1s-.75.71-1,.92l-.78.6a4.74,4.74,0,0,1-7.14-5.87Z" style="fill:#231f20"/><path d="M875.7,678.06c.35-.68.6-1.16.92-1.7s.6-1.05.92-1.55c.63-1,1.29-2,2-3a57.51,57.51,0,0,1,4.42-5.55,71,71,0,0,1,10.53-9.64,66.36,66.36,0,0,1,26.58-11.86c1.22-.23,2.43-.47,3.66-.63l3.69-.4c1.23-.12,2.47-.1,3.71-.16a34.94,34.94,0,0,1,3.69,0,68.42,68.42,0,0,1,7.32.69c1.21.17,2.4.46,3.59.68s2.38.5,3.53.85a69.51,69.51,0,0,1,25.06,12.72,4.83,4.83,0,0,1-4.52,8.35l-.09,0A136.6,136.6,0,0,0,947.07,661c-1-.18-1.93-.24-2.89-.33s-1.92-.23-2.88-.26-1.92-.06-2.87-.12-1.91,0-2.86,0a60.37,60.37,0,0,0-11.24,1.16,72,72,0,0,0-21.45,8,97.47,97.47,0,0,0-10,6.46c-1.64,1.18-3.24,2.43-4.82,3.7-.8.63-1.58,1.29-2.34,2l-1.15,1c-.35.31-.76.69-1,.9l-.73.55a4.75,4.75,0,0,1-7.07-6Z" style="fill:#231f20"/><path d="M567.31,584.74a48,48,0,0,1,5.77-8.88,57.28,57.28,0,0,1,7.48-7.54,46,46,0,0,1,19.5-9.72,41.18,41.18,0,0,1,11.19-.77,40.73,40.73,0,0,1,10.83,2.34,47.44,47.44,0,0,1,17.68,11.62,2.43,2.43,0,0,1-2.86,3.84h0a79.09,79.09,0,0,0-17.39-6.9,42.21,42.21,0,0,0-8.73-1.13,39,39,0,0,0-8.62.78,48.61,48.61,0,0,0-16.32,7,73.11,73.11,0,0,0-7.52,5.55c-2.41,2-4.81,4.24-7,6.41l-.13.13a2.41,2.41,0,0,1-3.87-2.76Z" style="fill:#231f20"/><path d="M871.37,543.79a39.26,39.26,0,0,1,3-4.4c1.06-1.4,2.25-2.69,3.44-4a58.78,58.78,0,0,1,8-6.93,46.59,46.59,0,0,1,20.18-8.24,41.74,41.74,0,0,1,11.22,0,40.68,40.68,0,0,1,10.65,3.1,48.26,48.26,0,0,1,16.91,12.77,2.66,2.66,0,0,1-3.45,4l0,0a76.89,76.89,0,0,0-16.69-8.27,41.44,41.44,0,0,0-8.61-1.82,39.72,39.72,0,0,0-8.65.13A48,48,0,0,0,890.66,536a72.4,72.4,0,0,0-7.87,5c-1.28.93-2.53,1.9-3.77,2.89s-2.48,2.07-3.58,3l-.14.12a2.58,2.58,0,0,1-3.93-3.24Z" style="fill:#231f20"/><path d="M664.86,802.18c.56,7.59-16.33,15-37.73,16.62s-39.21-3.29-39.77-10.88,16.33-15,37.73-16.61S664.3,794.59,664.86,802.18Z" style="fill:#f6d4e2"/><path d="M1016.43,745.71c1,7.54-15.48,15.9-36.77,18.66s-39.32-1.13-40.3-8.68,15.48-15.9,36.76-18.66S1015.45,738.16,1016.43,745.71Z" style="fill:#f6d4e2"/></g></svg>