<svg id="EYES_ASSET" data-name="EYES ASSET" xmlns="http://www.w3.org/2000/svg" viewBox="0 0 1440 1440"><g id="Normal"><path d="M643.12,761.91c-21.68,3.91-43.65-17.28-49.07-47.33s7.79-57.58,29.47-61.49,43.66,17.28,49.08,47.34S664.82,758,643.12,761.91Z" style="fill:#231f20;stroke:#231f20;stroke-linecap:round;stroke-linejoin:round;stroke-width:10px"/><path d="M933.66,716.91c-21.7,3.91-43.67-17.28-49.08-47.34s7.78-57.57,29.47-61.48,43.66,17.28,49.08,47.33S955.34,713,933.66,716.91Z" style="fill:#231f20;stroke:#231f20;stroke-linecap:round;stroke-linejoin:round;stroke-width:10px"/><path d="M567.31,584.74a48,48,0,0,1,5.77-8.88,57.28,57.28,0,0,1,7.48-7.54,46,46,0,0,1,19.5-9.72,41.18,41.18,0,0,1,11.19-.77,40.73,40.73,0,0,1,10.83,2.34,47.44,47.44,0,0,1,17.68,11.62,2.43,2.43,0,0,1-2.86,3.84h0a79.09,79.09,0,0,0-17.39-6.9,42.21,42.21,0,0,0-8.73-1.13,39,39,0,0,0-8.62.78,48.61,48.61,0,0,0-16.32,7,73.11,73.11,0,0,0-7.52,5.55c-2.41,2-4.81,4.24-7,6.41l-.13.13a2.41,2.41,0,0,1-3.87-2.76Z" style="fill:#231f20"/><path d="M871.37,543.79a39.26,39.26,0,0,1,3-4.4c1.06-1.4,2.25-2.69,3.44-4a58.78,58.78,0,0,1,8-6.93,46.59,46.59,0,0,1,20.18-8.24,41.74,41.74,0,0,1,11.22,0,40.68,40.68,0,0,1,10.65,3.1,48.26,48.26,0,0,1,16.91,12.77,2.66,2.66,0,0,1-3.45,4l0,0a76.89,76.89,0,0,0-16.69-8.27,41.44,41.44,0,0,0-8.61-1.82,39.72,39.72,0,0,0-8.65.13A48,48,0,0,0,890.66,536a72.4,72.4,0,0,0-7.87,5c-1.28.93-2.53,1.9-3.77,2.89s-2.48,2.07-3.58,3l-.14.12a2.58,2.58,0,0,1-3.93-3.24Z" style="fill:#231f20"/><path d="M622.29,691.58c.41,6.19-2.88,11.44-7.34,11.74s-8.43-4.47-8.84-10.66,2.88-11.44,7.34-11.74S621.87,685.4,622.29,691.58Z" style="fill:#fff"/><path d="M914,646.27c.41,6.18-2.87,11.44-7.34,11.74s-8.42-4.48-8.83-10.66,2.87-11.44,7.34-11.74S913.63,640.08,914,646.27Z" style="fill:#fff"/><path d="M664.86,802.18c.56,7.59-16.33,15-37.73,16.62s-39.21-3.29-39.77-10.88,16.33-15,37.73-16.61S664.3,794.59,664.86,802.18Z" style="fill:#f6d4e2"/><path d="M1016.43,745.71c1,7.54-15.48,15.9-36.77,18.66s-39.32-1.13-40.3-8.68,15.48-15.9,36.76-18.66S1015.45,738.16,1016.43,745.71Z" style="fill:#f6d4e2"/></g></svg>