<svg id="EYES_ASSET" data-name="EYES ASSET" xmlns="http://www.w3.org/2000/svg" viewBox="0 0 1440 1440"><g id="Sleepy"><path d="M643.12,761.91c-21.68,3.91-43.65-17.28-49.07-47.33a71.76,71.76,0,0,1,.5-28.78,74,74,0,0,0,11.85,2.71,63.79,63.79,0,0,0,15.47.37c17.23-1.69,30.36-10.18,38.68-17.47a71,71,0,0,1,12.05,29C678,730.48,664.82,758,643.12,761.91Z" style="fill:#231f20;stroke:#231f20;stroke-linecap:round;stroke-linejoin:round;stroke-width:10px"/><path d="M933.66,716.91c-21.7,3.91-43.67-17.28-49.08-47.34a72.17,72.17,0,0,1,.19-27.37,78.74,78.74,0,0,0,13.09,3.13,66.16,66.16,0,0,0,16.14.49c17.42-1.64,30.38-10.12,38.49-17.39a71.87,71.87,0,0,1,10.64,27C968.54,685.47,955.34,713,933.66,716.91Z" style="fill:#231f20;stroke:#231f20;stroke-linecap:round;stroke-linejoin:round;stroke-width:10px"/><path d="M567.31,584.74a48,48,0,0,1,5.77-8.88,57.28,57.28,0,0,1,7.48-7.54,46,46,0,0,1,19.5-9.72,41.18,41.18,0,0,1,11.19-.77,40.73,40.73,0,0,1,10.83,2.34,47.44,47.44,0,0,1,17.68,11.62,2.43,2.43,0,0,1-2.86,3.84h0a79.09,79.09,0,0,0-17.39-6.9,42.21,42.21,0,0,0-8.73-1.13,39,39,0,0,0-8.62.78,48.61,48.61,0,0,0-16.32,7,73.11,73.11,0,0,0-7.52,5.55c-2.41,2-4.81,4.24-7,6.41l-.13.13a2.41,2.41,0,0,1-3.87-2.76Z" style="fill:#231f20"/><path d="M871.37,543.79a39.26,39.26,0,0,1,3-4.4c1.06-1.4,2.25-2.69,3.44-4a58.78,58.78,0,0,1,8-6.93,46.59,46.59,0,0,1,20.18-8.24,41.74,41.74,0,0,1,11.22,0,40.68,40.68,0,0,1,10.65,3.1,48.26,48.26,0,0,1,16.91,12.77,2.66,2.66,0,0,1-3.45,4l0,0a76.89,76.89,0,0,0-16.69-8.27,41.44,41.44,0,0,0-8.61-1.82,39.72,39.72,0,0,0-8.65.13A48,48,0,0,0,890.66,536a72.4,72.4,0,0,0-7.87,5c-1.28.93-2.53,1.9-3.77,2.89s-2.48,2.07-3.58,3l-.14.12a2.58,2.58,0,0,1-3.93-3.24Z" style="fill:#231f20"/><path d="M615,703.32c-4.47.3-8.43-4.47-8.84-10.66a14.88,14.88,0,0,1,.29-4.15,63.79,63.79,0,0,0,15.47.37,15.53,15.53,0,0,1,.42,2.7C622.7,697.77,619.41,703,615,703.32Z" style="fill:#fff"/><path d="M906.7,658c-4.47.3-8.42-4.48-8.83-10.66a15.15,15.15,0,0,1,0-2,66.16,66.16,0,0,0,16.14.49c0,.15,0,.3,0,.45C914.45,652.45,911.17,657.71,906.7,658Z" style="fill:#fff"/><path d="M664.86,802.18c.56,7.59-16.33,15-37.73,16.62s-39.21-3.29-39.77-10.88,16.33-15,37.73-16.61S664.3,794.59,664.86,802.18Z" style="fill:#f6d4e2"/><path d="M1016.43,745.71c1,7.54-15.48,15.9-36.77,18.66s-39.32-1.13-40.3-8.68,15.48-15.9,36.76-18.66S1015.45,738.16,1016.43,745.71Z" style="fill:#f6d4e2"/><path d="M954.35,630.51a56.67,56.67,0,0,1-14.64,12.26A59.92,59.92,0,0,1,931,647a58.83,58.83,0,0,1-19.1,3.89,58.91,58.91,0,0,1-28-6,2.82,2.82,0,0,1,1.72-5.31h0a127.53,127.53,0,0,0,17.24,1.79A75.72,75.72,0,0,0,919.59,640a73.09,73.09,0,0,0,15.95-5.18,108.31,108.31,0,0,0,15.09-8.42l0,0a2.82,2.82,0,0,1,3.69,4.18Z" style="fill:#231f20"/><path d="M595.39,683.14a111.16,111.16,0,0,0,16.78,1.43,71.72,71.72,0,0,0,16.23-1.81,70.06,70.06,0,0,0,7.85-2.24,79.18,79.18,0,0,0,7.65-3.06,130,130,0,0,0,14.81-8.15l0,0a2.83,2.83,0,0,1,3.66,4.22,59.1,59.1,0,0,1-22.7,16.18c-1.47.62-3,1.1-4.49,1.61s-3.05.89-4.61,1.21a57,57,0,0,1-19,1.06,55.78,55.78,0,0,1-17.93-5.11,2.82,2.82,0,0,1,1.64-5.33Z" style="fill:#231f20"/></g></svg>