<svg id="EYES_ASSET" data-name="EYES ASSET" xmlns="http://www.w3.org/2000/svg" viewBox="0 0 1440 1440"><g id="Sunglasses"><g id="Layer_73" data-name="Layer 73"><path d="M719.88,739.45q-2,2.79-4.17,5.46c-13.52,16.83-33.86,28.85-58,32-1.28.17-2.57.3-3.81.42-.52.07-1,.1-1.54.12-22.57,2-45.73-1.66-63.05-14.32-17.8-13-25.06-31.46-30-50.24-4-15.22-5.37-31.44,3.08-45.94,5.91-10.13,16.07-17.9,28-23.07s24.5-7.18,37.63-8.89c29.17-3.82,59.61-7.64,88.93-3.11a86.42,86.42,0,0,1,20.27,5.41c18.83,8,13.52,32.16,9.66,45.89A180.4,180.4,0,0,1,719.88,739.45Z" style="fill:#231f20"/><path d="M854.59,721.66q2.91,2.13,5.91,4.13a97.36,97.36,0,0,0,66.63,15.57c1.29-.17,2.56-.38,3.79-.58.52-.07,1-.18,1.51-.28,22.24-3.89,43-13.38,55.05-29.92,12.37-17,12.78-36.46,10.83-55.64-1.57-15.53-6-31.35-19.16-43-9.21-8.13-21.64-12.92-34.79-14.78s-25.9-.52-39,1.23c-29.16,3.89-59.54,8.1-85.88,20A77.66,77.66,0,0,0,802,628.76c-15.11,12.52-1.52,34.15,7,46.24A206,206,0,0,0,854.59,721.66Z" style="fill:#231f20"/></g><g id="Sunglasses-2" data-name="Sunglasses"><path d="M719.88,739.45q-2,2.79-4.17,5.46c-13.52,16.83-33.86,28.85-58,32-1.28.17-2.57.3-3.81.42-.52.07-1,.1-1.54.12-22.57,2-45.73-1.66-63.05-14.32-17.8-13-25.06-31.46-30-50.24-4-15.22-5.37-31.44,3.08-45.94,5.91-10.13,16.07-17.9,28-23.07s24.5-7.18,37.63-8.89c29.17-3.82,59.61-7.64,88.93-3.11a86.42,86.42,0,0,1,20.27,5.41c18.83,8,13.52,32.16,9.66,45.89A180.4,180.4,0,0,1,719.88,739.45Z" style="fill:none;stroke:#231f20;stroke-linecap:round;stroke-linejoin:round;stroke-width:5px"/><path d="M854.59,721.66q2.91,2.13,5.91,4.13a97.36,97.36,0,0,0,66.63,15.57c1.29-.17,2.56-.38,3.79-.58.52-.07,1-.18,1.51-.28,22.24-3.89,43-13.38,55.05-29.92,12.37-17,12.78-36.46,10.83-55.64-1.57-15.53-6-31.35-19.16-43-9.21-8.13-21.64-12.92-34.79-14.78s-25.9-.52-39,1.23c-29.16,3.89-59.54,8.1-85.88,20A77.66,77.66,0,0,0,802,628.76c-15.11,12.52-1.52,34.15,7,46.24A206,206,0,0,0,854.59,721.66Z" style="fill:none;stroke:#231f20;stroke-linecap:round;stroke-linejoin:round;stroke-width:5px"/><line x1="611.38" y1="639.83" x2="906.42" y2="600.86" style="fill:none;stroke:#231f20;stroke-linecap:round;stroke-linejoin:round;stroke-width:10px"/><line x1="797.69" y1="654.08" x2="751.52" y2="660.18" style="fill:none;stroke:#231f20;stroke-linecap:round;stroke-linejoin:round;stroke-width:10px"/><path d="M567.31,584.74a48,48,0,0,1,5.77-8.88,57.28,57.28,0,0,1,7.48-7.54,46,46,0,0,1,19.5-9.72,41.18,41.18,0,0,1,11.19-.77,40.73,40.73,0,0,1,10.83,2.34,47.44,47.44,0,0,1,17.68,11.62,2.43,2.43,0,0,1-2.86,3.84h0a79.09,79.09,0,0,0-17.39-6.9,42.21,42.21,0,0,0-8.73-1.13,39,39,0,0,0-8.62.78,48.61,48.61,0,0,0-16.32,7,73.11,73.11,0,0,0-7.52,5.55c-2.41,2-4.81,4.24-7,6.41l-.13.13a2.41,2.41,0,0,1-3.87-2.76Z" style="fill:#231f20"/><path d="M871.37,543.79a39.26,39.26,0,0,1,3-4.4c1.06-1.4,2.25-2.69,3.44-4a58.78,58.78,0,0,1,8-6.93,46.59,46.59,0,0,1,20.18-8.24,41.74,41.74,0,0,1,11.22,0,40.68,40.68,0,0,1,10.65,3.1,48.26,48.26,0,0,1,16.91,12.77,2.66,2.66,0,0,1-3.45,4l0,0a76.89,76.89,0,0,0-16.69-8.27,41.44,41.44,0,0,0-8.61-1.82,39.72,39.72,0,0,0-8.65.13A48,48,0,0,0,890.66,536a72.4,72.4,0,0,0-7.87,5c-1.28.93-2.53,1.9-3.77,2.89s-2.48,2.07-3.58,3l-.14.12a2.58,2.58,0,0,1-3.93-3.24Z" style="fill:#231f20"/><path d="M664.86,802.18c.56,7.59-16.33,15-37.73,16.62s-39.21-3.29-39.77-10.88,16.33-15,37.73-16.61S664.3,794.59,664.86,802.18Z" style="fill:#f6d4e2"/><path d="M1016.43,745.71c1,7.54-15.48,15.9-36.77,18.66s-39.32-1.13-40.3-8.68,15.48-15.9,36.76-18.66S1015.45,738.16,1016.43,745.71Z" style="fill:#f6d4e2"/></g></g></svg>