<svg id="L_EAR_ASSET" data-name="L EAR ASSET" xmlns="http://www.w3.org/2000/svg" viewBox="0 0 1440 1440"><g id="Blocky"><g id="Layer_132" data-name="Layer 132"><rect x="416.62" y="576.44" width="29.79" height="59.58" transform="translate(-52.53 41.05) rotate(-5.13)" style="fill:#bbbcbe"/><rect x="382.94" y="549.48" width="29.8" height="29.8" transform="translate(-48.92 37.87) rotate(-5.13)" style="fill:#bbbcbe"/><rect x="204.91" y="565.48" width="29.79" height="29.8" transform="translate(-51.06 22) rotate(-5.13)" style="fill:#bbbcbe"/><rect x="184.57" y="597.53" width="29.8" height="178.75" transform="translate(-60.68 20.61) rotate(-5.13)" style="fill:#bbbcbe"/><rect x="223.58" y="773.2" width="29.79" height="29.79" transform="translate(-69.58 24.51) rotate(-5.13)" style="fill:#bbbcbe"/><rect x="257.25" y="800.14" width="29.79" height="59.58" transform="translate(-73.19 27.69) rotate(-5.13)" style="fill:#bbbcbe"/><rect x="290.8" y="854.21" width="89.38" height="29.8" transform="translate(-76.44 33.52) rotate(-5.13)" style="fill:#bbbcbe"/><rect x="404.27" y="786.87" width="29.8" height="29.79" transform="translate(-70.08 40.73) rotate(-5.13)" style="fill:#bbbcbe"/><rect x="431.29" y="754.52" width="29.79" height="29.8" transform="translate(-67.07 43.02) rotate(-5.13)" style="fill:#bbbcbe"/><rect x="425.95" y="695.17" width="29.79" height="29.8" transform="translate(-61.78 42.31) rotate(-5.13)" style="fill:#bbbcbe"/><rect x="393.62" y="668.18" width="29.79" height="29.79" transform="translate(-59.5 39.3) rotate(-5.13)" style="fill:#bbbcbe"/><rect x="331.55" y="642.5" width="59.59" height="29.79" transform="translate(-57.39 34.98) rotate(-5.13)" style="fill:#bbbcbe"/><rect x="377.28" y="819.21" width="29.79" height="29.79" transform="translate(-73.08 38.45) rotate(-5.13)" style="fill:#bbbcbe"/><rect x="253.3" y="771.86" width="0.01" height="29.79" transform="translate(-69.4 25.83) rotate(-5.13)" style="fill:#bbbcbe"/><rect x="233.01" y="557.54" width="148.95" height="0.01" transform="translate(-48.67 29.76) rotate(-5.13)" style="fill:#bbbcbe"/><rect x="331.55" y="642.5" width="59.57" height="29.79" transform="translate(-57.39 34.98) rotate(-5.13)" style="fill:#bbbcbe"/><rect x="223.58" y="773.2" width="29.79" height="29.79" transform="translate(-69.58 24.51) rotate(-5.13)" style="fill:#bbbcbe"/><polygon points="422.01 666.9 424.68 696.57 395.01 699.24 392.34 669.57 333 674.9 330.33 645.23 389.69 639.9 392.35 669.57 422.01 666.9" style="fill:#bbbcbe"/><polygon points="449.02 634.57 454.35 693.9 424.68 696.57 422.01 666.9 392.35 669.57 389.69 639.9 330.33 645.23 333 674.9 392.34 669.57 395.01 699.24 424.68 696.57 427.35 726.25 457.02 723.58 459.68 753.25 430.01 755.92 432.68 785.6 403 788.26 405.67 817.93 376 820.6 378.67 850.27 289.65 858.27 284.31 798.93 254.64 801.6 251.98 771.92 222.31 774.59 206.31 596.55 235.97 593.89 233.3 564.21 233.31 564.21 233.31 564.22 381.67 550.88 384.33 580.56 414.01 577.89 419.35 637.23 449.02 634.57" style="fill:#f4c1d9"/><polygon points="403.01 788.26 408.34 847.6 378.67 850.27 376 820.6 405.67 817.93 403 788.26 403.01 788.26" style="fill:#bbbcbe"/><rect x="428.62" y="724.85" width="29.79" height="29.79" transform="translate(-64.43 42.66) rotate(-5.13)" style="fill:#bbbcbe"/><rect x="231.68" y="527.81" width="148.96" height="29.8" transform="translate(-47.34 29.58) rotate(-5.13)" style="fill:#bbbcbe"/></g><g id="Layer_133" data-name="Layer 133"><polyline points="414.01 577.89 443.68 575.22 449.01 634.56" style="fill:none;stroke:#231f20;stroke-linecap:round;stroke-linejoin:round;stroke-width:10px"/><polyline points="381.67 550.88 411.35 548.21 414.01 577.88" style="fill:none;stroke:#231f20;stroke-linecap:round;stroke-linejoin:round;stroke-width:10px"/><polyline points="233.31 564.22 230.64 534.53 379.01 521.2 381.67 550.88" style="fill:none;stroke:#231f20;stroke-linecap:round;stroke-linejoin:round;stroke-width:10px"/><polyline points="206.3 596.55 203.63 566.88 233.31 564.21" style="fill:none;stroke:#231f20;stroke-linecap:round;stroke-linejoin:round;stroke-width:10px"/><polyline points="222.3 774.59 192.62 777.25 176.62 599.22 206.3 596.55" style="fill:none;stroke:#231f20;stroke-linecap:round;stroke-linejoin:round;stroke-width:10px"/><polyline points="254.64 801.59 224.97 804.26 222.3 774.59" style="fill:none;stroke:#231f20;stroke-linecap:round;stroke-linejoin:round;stroke-width:10px"/><polyline points="289.64 858.27 259.97 860.93 254.64 801.59" style="fill:none;stroke:#231f20;stroke-linecap:round;stroke-linejoin:round;stroke-width:10px"/><polyline points="378.67 850.27 381.33 879.95 292.31 887.95 289.64 858.27" style="fill:none;stroke:#231f20;stroke-linecap:round;stroke-linejoin:round;stroke-width:10px"/><polyline points="432.68 785.59 435.34 815.26 405.67 817.93" style="fill:none;stroke:#231f20;stroke-linecap:round;stroke-linejoin:round;stroke-width:10px"/><polyline points="459.68 753.25 462.35 782.93 432.68 785.59" style="fill:none;stroke:#231f20;stroke-linecap:round;stroke-linejoin:round;stroke-width:10px"/><polyline points="424.68 696.57 454.35 693.9 457.01 723.58" style="fill:none;stroke:#231f20;stroke-linecap:round;stroke-linejoin:round;stroke-width:10px"/><polyline points="392.34 669.57 422.01 666.91 424.68 696.58" style="fill:none;stroke:#231f20;stroke-linecap:round;stroke-linejoin:round;stroke-width:10px"/><polyline points="330.33 645.24 389.68 639.9 392.35 669.57" style="fill:none;stroke:#231f20;stroke-linecap:round;stroke-linejoin:round;stroke-width:10px"/><polyline points="405.68 817.93 408.34 847.6 378.67 850.27" style="fill:none;stroke:#231f20;stroke-linecap:round;stroke-linejoin:round;stroke-width:10px"/><line x1="457.01" y1="723.58" x2="459.68" y2="753.25" style="fill:none;stroke:#231f20;stroke-linecap:round;stroke-linejoin:round;stroke-width:10px"/></g></g></svg>