<svg id="L_EAR_ASSET" data-name="L EAR ASSET" xmlns="http://www.w3.org/2000/svg" viewBox="0 0 1440 1440"><g id="Dumbo"><g id="Layer_121" data-name="Layer 121"><path d="M468.87,538.24s-32.08-114.85-187.48-91S161.89,661.81,224,721.87s50.28,82.21,55.06,116.61c7.4,53.26,95.08,169.45,196.85,2.27" style="fill:#bbbcbe"/><path d="M472.94,838.75c-101.77,167.18-189.45,51-196.85-2.27-.75-5.42-1.09-10.53-1.38-15.54,9.75,52.82,97.19,160.88,198.19,15.94Z" style="fill:#818385"/><path d="M447.42,499.07c-28.66-22.39-74.14-39.83-144.82-29.23C156.25,491.77,178,659,232.59,730.38q-4-4.12-8.56-8.51C161.89,661.81,126,471,281.39,447.21,374.36,433,423.19,468.34,447.42,499.07Z" style="fill:#e1e1e1"/><path d="M464.67,798.51l0,.75c-71.88,118.07-133.81,36-139-1.6-3.37-24.3,5-39.95-38.89-82.36s-69.22-177.18,40.52-194c52.08-8,84.55,6.09,104.29,23.08C416.76,594.77,400.35,696.78,464.67,798.51Z" style="fill:#f4c1d9"/><path d="M310,716.13c41.34,40,33.45,54.69,36.63,77.58,3.39,24.38,32.07,68.59,71.69,57.55-50.48,31.5-88.65-24.42-92.71-53.6-3.37-24.3,5-39.95-38.89-82.36s-69.22-177.18,40.52-194c52.08-8,84.55,6.09,104.29,23.08l-.09.29c-18.82-10.57-45.6-17-83.28-11.27C244.82,549.24,268.7,676.18,310,716.13Z" style="fill:#b7819a"/></g><g id="Layer_120" data-name="Layer 120"><path d="M442.81,493.52c-25.61-29.23-74-59.71-161.42-46.31C126,471,161.89,661.81,224,721.87s50.28,82.21,55.06,116.61c7.4,53.26,95.08,169.45,196.85,2.27" style="fill:none;stroke:#231f20;stroke-linecap:round;stroke-linejoin:round;stroke-width:10px"/><path d="M434.64,547.15C415.26,529,382.16,512.9,327.28,521.31c-109.75,16.82-84.4,151.57-40.51,194s35.51,58.06,38.89,82.36c5.22,37.62,67.15,119.68,139,1.61" style="fill:none;stroke:#231f20;stroke-linecap:round;stroke-linejoin:round;stroke-width:10px"/></g></g></svg>