<svg id="L_EAR_ASSET" data-name="L EAR ASSET" xmlns="http://www.w3.org/2000/svg" viewBox="0 0 1440 1440"><g id="Floppy"><g id="Layer_114" data-name="Layer 114"><path d="M474.7,846.32c-3.76,10.46-7.48,20.17-11.08,29h0c-9.91,24.24-18.94,41.4-25.66,47.43C409.28,948.47,362.28,882,220.79,745.46s-62.07-182.86,33-279c72.29-73,175.29-20.24,231.3,15.65-3.49,4.66-8,11-13,18.83C435.5,558.17,371.72,695.29,474.7,846.32Z" style="fill:#bbbcbe"/><path d="M242.22,758.84C328.8,842.39,380,899.7,413.27,925.71c-31.79-13-84.74-76.3-192.48-180.25-141.49-136.51-62.07-182.87,33-279,72.29-73,175.29-20.25,231.3,15.65l-.18.23C426.71,449,339,415.46,275.25,479.89,180.15,576,100.73,622.33,242.22,758.84Z" style="fill:#e1e1e1"/><path d="M439.35,856.88c-26.11-23.41-64.08-64.66-122.66-121.19C205.48,628.4,267.89,592,342.63,516.45,381,477.65,430.5,484,472.1,501,435.49,558.17,364.17,614.72,439.35,856.88Z" style="fill:#f4c1d9"/><path d="M472.1,501l-1,1.5c-32-8.42-66-5.13-93.85,26.72C306.92,609.72,248.19,648.56,352.85,763c26.94,29.43,49.22,55,67.86,76.32-24.8-24.3-58.07-59.24-104-103.58C205.48,628.4,267.89,592,342.63,516.45,381,477.65,430.5,484,472.1,501Z" style="fill:#b7819a"/><path d="M475.07,840.12S429.67,905,415.93,898.3,263.12,779.16,263.12,779.16,379,924.48,420.65,927.86,475.07,840.12,475.07,840.12Z" style="fill:#818385"/></g><g id="Layer_111" data-name="Layer 111"><path d="M476.27,842c-4.31,12.12-8.55,23.32-12.65,33.32h0c-9.91,24.24-18.94,41.4-25.66,47.43C409.28,948.47,362.28,882,220.79,745.46s-62.07-182.86,33-279c73.82-74.58,179.69-17.93,234.81,17.92" style="fill:none;stroke:#231f20;stroke-linecap:round;stroke-linejoin:round;stroke-width:10.2629px"/><path d="M439.34,856.88h0c-26.11-23.42-64.08-64.67-122.65-121.18C205.49,628.4,267.89,592,342.64,516.46c38.19-38.58,87.29-32.48,128.75-15.77" style="fill:none;stroke:#231f20;stroke-linecap:round;stroke-linejoin:round;stroke-width:10.2629px"/></g></g></svg>