<svg id="L_EAR_ASSET" data-name="L EAR ASSET" xmlns="http://www.w3.org/2000/svg" viewBox="0 0 1440 1440"><g id="Folded_over" data-name="Folded over"><g id="Layer_126" data-name="Layer 126"><path d="M357.75,625.26c20.18-11.38,36.7-28.83,48-45.47A122.17,122.17,0,0,1,357.75,625.26Z" style="fill:#bbbcbe"/><path d="M515.42,741.85c-53.5,172-168.42,202.32-186.35,203-13.9.55-44.29-81.1-68.53-176.69l10.55-2c-3.74-28.36-6.92-79.58,13.8-104,7.36-8.67,17.21-13.08,30.08-13.49a94.7,94.7,0,0,0,16-1.87l1.37-.28c43.2-9.35,76.65-47.21,91.95-76.83-.53-3.86-1-7.52-1.33-11,.4,3.4.94,6.86,1.63,10.36h0C439.31,645.26,515.42,741.85,515.42,741.85Z" style="fill:#bbbcbe"/><path d="M472.93,835.91c-56.83,89.84-129.87,108.41-143.86,109s-44.42-81.45-68.69-177.3c-5.14-39-6.44-97.5,24.68-120.21-10.34,27.54-8.63,64.93-5,92.52,24.27,95.85,54.76,177.86,68.68,177.31C361.17,916.7,420.1,902,472.93,835.91Z" style="fill:#818385"/><path d="M331,646.83a94.7,94.7,0,0,1-16,1.87c-12.87.41-22.72,4.82-30.08,13.49-20.72,24.38-17.54,75.6-13.8,104l-10.55,2c-.06-.2-.11-.41-.16-.61-6.41-48.65-6.85-127.74,54.26-129.65A84.56,84.56,0,0,0,330.08,636C330.32,639,330.63,642.64,331,646.83Z" style="fill:#bbbcbe"/><path d="M330.08,636a133.67,133.67,0,0,0,27.67-10.73A98.68,98.68,0,0,1,330.08,636Z" style="fill:#bbbcbe"/><path d="M405.78,579.79a122.17,122.17,0,0,1-48,45.47C377.93,613.88,394.45,596.43,405.78,579.79Z" style="fill:#bbbcbe"/><path d="M405.78,579.79A137.55,137.55,0,0,0,417.19,556l-1.36,6.65A139.82,139.82,0,0,1,405.78,579.79Z" style="fill:#bbbcbe"/><path d="M436.54,472c-3.85,19.68-6.43,51.76-3.69,62.56a28.83,28.83,0,0,1-.1,12.81c-1.2,6.09-4,13.6-8.14,21.77-.69-3.5-1.23-7-1.63-10.36a.19.19,0,0,0,0-.08c-.31-3.07-.55-6-.7-8.63v0c2-7.5,1.91-15.92,1.12-24.36l11.2-54.79,2,1.1Z" style="fill:#818385"/><path d="M422.27,550.06c.15,2.67.39,5.56.7,8.63C422.62,555.77,422.38,552.89,422.27,550.06Z" style="fill:#bbbcbe"/><path d="M424.61,569.13h0l-.3.58c-.53-3.86-1-7.52-1.33-11C423.38,562.17,423.92,565.63,424.61,569.13Z" style="fill:#bbbcbe"/><path d="M422.39,537.21a19.3,19.3,0,0,1-.23,8c-4.85,24.6-41.06,79.7-92.08,90.74a84.56,84.56,0,0,1-15.44,1.92c-61.11,1.91-60.67,81-54.26,129.65-7-27.54-13.43-56.22-18.84-84.41-24.24-126.32,190.93-213,190.93-213S417.65,518.6,422.39,537.21Z" style="fill:#bbbcbe"/><path d="M432.47,470.14s-3.83,12.52-7,27.27C377.73,519.53,228.57,597.78,249,704.09c2.9,15.1,6.09,30.33,9.51,45.45.49,6.31,1.16,12.37,1.9,18-7-27.54-13.43-56.22-18.84-84.41C217.3,556.83,432.47,470.14,432.47,470.14Z" style="fill:#e1e1e1"/><path d="M424.31,569.72c-15.3,29.62-48.75,67.48-91.95,76.83l-1.37.28c-.36-4.19-.67-7.84-.91-10.84a98.68,98.68,0,0,0,27.67-10.73,122.17,122.17,0,0,0,48-45.47,139.82,139.82,0,0,0,10.05-17.15,31.68,31.68,0,0,0,6.44-12.58c.11,2.83.35,5.71.7,8.63a.19.19,0,0,1,0,.08C423.33,562.2,423.78,565.86,424.31,569.72Z" style="fill:#bbbcbe"/><path d="M357.75,625.26A98.68,98.68,0,0,1,330.08,636,133.67,133.67,0,0,0,357.75,625.26Z" style="fill:#f4c1d9"/><path d="M415.83,562.64a139.82,139.82,0,0,1-10.05,17.15A137.55,137.55,0,0,0,417.19,556Z" style="fill:#f4c1d9"/><path d="M423,558.69c-.35-2.92-.59-5.8-.7-8.63C422.42,552.73,422.66,555.62,423,558.69Z" style="fill:#f4c1d9"/><path d="M461.87,740.05s-58,108.91-88.54,94.84c-24.48-11.28-37.94-138-42.34-188.06l1.37-.28c43.2-9.35,76.65-47.21,91.95-76.83C432.71,630.94,461.87,740.05,461.87,740.05Z" style="fill:#f4c1d9"/><path d="M424.61,569.13l-.3.59c-15.3,29.62-48.75,67.48-91.95,76.83l-1.37.28a94.7,94.7,0,0,1-16,1.87c-12.87.41-22.72,4.82-30.08,13.49-20.72,24.38-17.54,75.6-13.8,104l-10.55,2c-.06-.2-.11-.41-.16-.61-6.41-48.65-6.85-127.74,54.26-129.65A84.56,84.56,0,0,0,330.08,636a98.68,98.68,0,0,0,27.67-10.73c20.18-11.38,36.7-28.83,48-45.47,8.84-13,14.52-25.48,16.31-34.23,0-.1.05-.21.07-.31,0,1.32,0,2.65.07,4,0,.13,0,.27,0,.41.11,3,.36,6,.72,9a.19.19,0,0,1,0,.08C423.38,562.17,423.92,565.63,424.61,569.13Z" style="fill:#818385"/><path d="M424.31,569.72c-15.3,29.62-48.75,67.48-91.95,76.83l-1.37.28c-.36-4.19-.67-7.84-.91-10.84a133.67,133.67,0,0,0,27.67-10.73,122.17,122.17,0,0,0,48-45.47c13-21.49,16.31-40.73,16.59-42.45a66.31,66.31,0,0,0-.28,8.22c0,1.17.07,2.4.14,3.68,0,.13,0,.27,0,.41.15,2.79.39,5.81.72,9a.19.19,0,0,1,0,.08C423.33,562.2,423.78,565.86,424.31,569.72Z" style="fill:#b7819a"/><path d="M466,740.05S408,849,377.43,834.89c-26.54-12.22-40.12-160.1-43.25-198.9a138,138,0,0,0,19.38-6.75c5.38,56.14,18.58,164.45,41.13,174.82,19.91,9.17,51.45-33.87,71-65C465.88,739.72,466,740.05,466,740.05Z" style="fill:#b7819a"/></g><g id="Layer_127" data-name="Layer 127"><path d="M330.08,636c3.13,38.8,16.72,186.68,43.25,198.9,30.57,14.07,88.54-94.84,88.54-94.84" style="fill:none;stroke:#231f20;stroke-linecap:round;stroke-linejoin:round;stroke-width:10px"/><path d="M484.83,815.56c-58,107.45-140.77,128.72-155.76,129.3-13.93.55-44.42-81.45-68.69-177.3-6.41-48.65-6.85-127.74,54.26-129.65A84.56,84.56,0,0,0,330.08,636c51-11,87.23-66.14,92.08-90.74" style="fill:none;stroke:#231f20;stroke-linecap:round;stroke-linejoin:round;stroke-width:10px"/><path d="M422.39,537.21a19.3,19.3,0,0,1-.23,8c-4.85,24.6-41.06,79.7-92.08,90.74a84.56,84.56,0,0,1-15.44,1.92c-61.11,1.91-60.67,81-54.26,129.65-7-27.54-13.43-56.22-18.84-84.41-24.24-126.32,190.93-213,190.93-213S417.65,518.6,422.39,537.21Z" style="fill:none;stroke:#231f20;stroke-linecap:round;stroke-linejoin:round;stroke-width:10px"/></g></g></svg>