<svg id="L_EAR_ASSET" data-name="L EAR ASSET" xmlns="http://www.w3.org/2000/svg" viewBox="0 0 1440 1440"><g id="Normal"><g id="Layer_53" data-name="Layer 53"><path d="M436.22,522.51c-27.68-15.82-67.59-22.66-106.34,27.46-15.33,19.82-21,39.86-20.58,59.7h0c-1.08,25.48,1,83,33.81,146,25.23,48.52,56.88,73.17,84,84.93,19,8.23,35.74,10.13,46.53,9.46,0,0,0,0,0,0a64.13,64.13,0,0,0,20.91-6.76Z" style="fill:#bbbcbe"/><path d="M506.86,900.57l1.09.7a90.21,90.21,0,0,1-38.22,14.92h0c-15,.94-38.28-1.72-64.68-13.15-37.7-16.34-81.7-50.61-116.77-118-45.54-87.55-48.49-167.52-47-202.94h0c-.63-27.58,7.3-55.44,28.59-83,53.88-69.66,109.35-60.14,147.83-38.15a96.93,96.93,0,0,1,13.63,8.76c1.41-1.42,2.83-2.83,4.28-4.2-1.05,1.08-2.88,3-5.25,5.91l19.28,17.16-15.85,34.66-29.92-8.49c-16.47,35.89-31.59,91.92-24.54,171,4.34,48.68,27.56,112.83,70.18,163.82l0,0s23.3,7.2,45.12-6.16L531,879.59S519.3,895.42,506.86,900.57Z" style="fill:#bbbcbe"/><path d="M427.42,466.83l19.21,20.32a92.63,92.63,0,0,0-11.76-7.38c-38.47-22-93.95-31.51-147.82,38.15-21.29,27.57-29.23,55.43-28.59,83h0c-1.5,35.42,1.46,115.39,47,202.94a316.19,316.19,0,0,0,36.3,55.53c-18.75-18.6-37.11-42.87-53.5-74.42-45.54-87.55-48.5-167.52-47-202.94h0c-.64-27.58,7.29-55.43,28.59-83,53.87-69.66,109.35-60.14,147.82-38.15a90.4,90.4,0,0,1,9.74,5.94Z" style="fill:#e1e1e1"/><path d="M492.34,844.42a64.3,64.3,0,0,1-18.66,5.65h0c-10.78.67-27.56-1.23-46.53-9.46-27.13-11.75-58.78-36.41-84-84.93-32.75-63-34.88-120.52-33.8-146h0c-.46-19.84,5.25-39.88,20.57-59.7,38.77-50.13,78.67-43.28,106.35-27.46l.74,1.63c-5.76,5.39-11.5,14.52-17.25,22.27-15.94,21.51-21.88,43.24-21.4,64.76h0c-1.12,27.63,1.08,90,35.16,158.34C451.22,805.08,472,828.83,492.34,844.42Z" style="fill:#f4c1d9"/><path d="M347.13,561.56c-15.32,19.82-21,39.86-20.57,59.7h0c-1.08,25.48,1.05,83,33.8,146,16.12,31,34.85,52.24,53.36,66.63-23.74-13.59-49.45-37.51-70.62-78.22-32.75-63-34.88-120.52-33.8-146h0c-.46-19.84,5.25-39.88,20.57-59.7,38.77-50.13,78.67-43.28,106.35-27.46l.36,2C410.71,515.63,378.73,520.7,347.13,561.56Z" style="fill:#b7819a"/><path d="M319.88,829.05s114.87,116.87,209.87,48.33c0,0-78.72,115.19-209.87-48.33Z" style="fill:#818385"/></g><g id="Layer_54" data-name="Layer 54"><path d="M435,524.59c-7.75-1.71-14.55-4.25-21.57-6.19a63.4,63.4,0,0,0-21.35-2.13A62.75,62.75,0,0,0,381.56,518a69.16,69.16,0,0,0-10.11,3.61,79.11,79.11,0,0,0-9.51,5.2,90.91,90.91,0,0,0-8.8,6.56,117.55,117.55,0,0,0-15.55,15.9,112.71,112.71,0,0,0-12.45,18.32,87.92,87.92,0,0,0-7.77,20.34,84.34,84.34,0,0,0-1.82,10.71,92,92,0,0,0-.41,10.89,5.5,5.5,0,0,1-.08,1.08h0l.07-.69a281.36,281.36,0,0,0,8.62,77.87,296.86,296.86,0,0,0,28.84,73,219.83,219.83,0,0,0,22,32.23,165.2,165.2,0,0,0,27.92,26.83,133,133,0,0,0,33.64,18.53c3,1.09,6,2.09,9.13,2.94s6.18,1.57,9.3,2.15a94.29,94.29,0,0,0,9.41,1.23c3.14.24,6.26.3,9.33.3l1.43.11a5,5,0,0,0-2.21,0,5.09,5.09,0,0,0-2,.94l2.86-1.06c.58,0,1.41,0,2.14-.05s1.5-.06,2.26-.11c1.51-.09,3-.22,4.51-.38s3-.37,4.42-.65a33.33,33.33,0,0,0,4.27-1.07l.21-.07a2.23,2.23,0,0,1,2.82,1.42,2.27,2.27,0,0,1-.36,2.07A18.06,18.06,0,0,1,489.4,850a28.68,28.68,0,0,1-4.92,2.54,39.55,39.55,0,0,1-5.14,1.68c-.87.21-1.74.4-2.63.57s-1.71.29-2.77.4l2.85-1.06a5,5,0,0,1-2,.95,5.12,5.12,0,0,1-2.24,0l1.43.12a61.1,61.1,0,0,1-10.73.09,104.51,104.51,0,0,1-10.5-1.28c-3.47-.6-6.89-1.37-10.27-2.26s-6.72-2-10-3.13a144.16,144.16,0,0,1-36.64-19.72,176.25,176.25,0,0,1-30.11-28.4,219.91,219.91,0,0,1-23.4-33.88,308.73,308.73,0,0,1-30.22-75.87,300.27,300.27,0,0,1-7.17-40.29,273.3,273.3,0,0,1-1.44-41v0a4.9,4.9,0,0,1,.07-.67v0l-.07,1.08a104.54,104.54,0,0,1,.52-12.38,93.76,93.76,0,0,1,5.89-24,106.67,106.67,0,0,1,5.23-11.2,124.2,124.2,0,0,1,13.89-20A128.52,128.52,0,0,1,346.17,525a102,102,0,0,1,9.95-7.25,88.06,88.06,0,0,1,11-5.86A78.59,78.59,0,0,1,379,507.76a72.65,72.65,0,0,1,12.44-1.92,73.6,73.6,0,0,1,24.76,2.71c8,2.15,15.53,5.89,21.25,11.89a2.49,2.49,0,0,1-2.32,4.16Z" style="fill:#231f20"/><path d="M435.92,465.1c-1.56,1.49-3.1,3-4.62,4.54a96.93,96.93,0,0,0-13.63-8.76c-38.48-22-93.95-31.51-147.83,38.15-21.29,27.57-29.22,55.43-28.59,83h0c-1.49,35.42,1.46,115.39,47,202.94C323.31,852.43,367.31,886.7,405,903c26.4,11.43,49.69,14.09,64.68,13.15h0A90.21,90.21,0,0,0,508,901.27" style="fill:none;stroke:#231f20;stroke-linecap:round;stroke-linejoin:round;stroke-width:10px"/><path d="M447.09,489.77c-.28-.34-.48-.66-.79-1s-.61-.72-1-1.08l-1.06-1.09-1.13-1.07c-1.55-1.42-3.17-2.81-4.83-4.16s-3.38-2.68-5.1-4-3.49-2.6-5.21-3.8a5.14,5.14,0,0,1,5.9-8.41,5.57,5.57,0,0,1,.69.58c1.64,1.64,3.17,3.24,4.71,4.9s3.05,3.32,4.54,5,2.94,3.48,4.35,5.32l1,1.41,1,1.48c.34.49.65,1.06,1,1.58s.61,1.21.91,1.8a2.79,2.79,0,0,1-4.66,3Z" style="fill:#231f20"/><path d="M506.58,896.13a59.88,59.88,0,0,1,5.7-4.36c2-1.39,3.94-2.81,5.84-4.29s3.82-3,5.6-4.52a65.53,65.53,0,0,0,5.11-4.85l.06-.07a2.61,2.61,0,0,1,4.21,3,51,51,0,0,1-4.36,6.58c-1.58,2.07-3.24,4-5,5.93s-3.5,3.74-5.3,5.55a38,38,0,0,1-5.86,5,5,5,0,0,1-6.12-7.89Z" style="fill:#231f20"/></g></g></svg>