<svg id="L_EAR_ASSET" data-name="L EAR ASSET" xmlns="http://www.w3.org/2000/svg" viewBox="0 0 1440 1440"><g id="Small"><g id="Layer_58" data-name="Layer 58"><path d="M402.84,534.51c-13.9-12.8-36.06-22-65.08,1.82-11.48,9.43-17.43,20.26-19.78,31.79h0c-4,14.58-10.36,48.11.26,88.84,8.17,31.37,23.21,49.8,37.33,60.18,9.88,7.26,19.32,10.57,25.64,11.61h0a38.28,38.28,0,0,0,13-1.15Z" style="fill:#bbbcbe"/><path d="M393.74,762.33l.54.55a53.53,53.53,0,0,1-24.06,3.57h0c-8.79-1.44-21.9-6.05-35.65-16.14-19.63-14.42-40.53-40-51.89-83.65-14.76-56.61-5.9-103.22-.37-123.49h0c3.28-16,11.54-31.07,27.49-44.2,40.34-33.14,71.14-20.31,90.47-2.52A56.91,56.91,0,0,1,407,503.3c1-.63,2-1.26,3-1.86-.75.49-2.07,1.38-3.81,2.72l8.87,12.47-13.74,17.93-16.17-8.85c-14.25,18.56-30.39,48.95-36.76,95.58-3.92,28.71,1,68.85,18.92,104v0s12.51,7.24,26.89,2.4l16.23,25.78S401.61,761,393.74,762.33Z" style="fill:#bbbcbe"/><path d="M405.11,501.17l8.42,14.27a55,55,0,0,0-5.82-5.81c-19.33-17.79-50.14-30.62-90.47,2.53-15.95,13.12-24.22,28.17-27.49,44.19h0c-5.54,20.27-14.39,66.88.37,123.49a187.3,187.3,0,0,0,13.64,36.89c-8.38-13.23-15.78-29.68-21.09-50.08-14.76-56.61-5.9-103.22-.36-123.49h0c3.27-16,11.53-31.08,27.48-44.2,40.34-33.15,71.14-20.32,90.47-2.53a53.35,53.35,0,0,1,4.84,4.72Z" style="fill:#e1e1e1"/><path d="M392.77,728a38.12,38.12,0,0,1-11.54.8h0c-6.31-1-15.76-4.35-25.64-11.61-14.12-10.38-29.16-28.81-37.34-60.18-10.61-40.73-4.24-74.26-.25-88.84h0c2.36-11.53,8.3-22.35,19.78-31.79,29-23.85,51.17-14.62,65.08-1.82l.22,1c-4.05,2.35-8.57,6.87-12.92,10.59-12.05,10.32-18.35,22.1-20.92,34.6h0c-4.29,15.82-11.26,52.17-.58,96.15C374.2,699.79,383.08,716.27,392.77,728Z" style="fill:#f4c1d9"/><path d="M346.2,545.31c-11.47,9.43-17.42,20.26-19.78,31.79h0c-4,14.59-10.35,48.12.26,88.85,5.22,20,13.24,34.79,22,45.55-11.93-11-23.63-28.21-30.49-54.53-10.61-40.73-4.24-74.26-.25-88.84h0c2.36-11.53,8.3-22.35,19.78-31.79,29-23.85,51.17-14.62,65.08-1.82l0,1.19C389,527.16,369.86,525.87,346.2,545.31Z" style="fill:#b7819a"/><path d="M295.12,696.31S346.08,779,410,752c0,0-60.7,56.18-114.91-55.64Z" style="fill:#818385"/><path d="M417.34,518.11s-22.24,188.94,2.72,232.17l-23.49,7.63s-16.64-223.36,17-241.28Z" style="fill:#bbbcbe"/></g><g id="Layer_88" data-name="Layer 88"><path d="M401.22,536.27c-4.85-1.25-8.35-3.35-12-5.31a35.42,35.42,0,0,0-11.41-3.78c-7.87-1.22-16,.71-23.44,4.61a68.1,68.1,0,0,0-10.71,7,64.25,64.25,0,0,0-9.25,8.67,50.23,50.23,0,0,0-6.82,10.25,47.37,47.37,0,0,0-3.92,11.62,6.35,6.35,0,0,1-.28,1l0,.06h0l.22-.65a164.85,164.85,0,0,0-5.15,45.46,173.42,173.42,0,0,0,6.9,45.34,128.07,128.07,0,0,0,8.27,21.14l1.28,2.51,1.38,2.46c.89,1.66,1.93,3.21,2.91,4.81a90.46,90.46,0,0,0,6.65,9,77,77,0,0,0,16.45,14.79,65.08,65.08,0,0,0,9.63,5.23A50.52,50.52,0,0,0,377,722.3c1.7.54,3.41,1,5.06,1.42l1.36.43a5.08,5.08,0,0,0-2.15-.49,5,5,0,0,0-2.16.47l3-.39a11.18,11.18,0,0,0,1.1.29c.4.11.81.21,1.22.3l2.48.61,2.45.57c.81.17,1.61.34,2.49.49l.56.09a2.28,2.28,0,0,1,1.27,3.84,11.15,11.15,0,0,1-3.1,2.19,17.2,17.2,0,0,1-3.36,1.17,20.79,20.79,0,0,1-3.38.52c-.56,0-1.12.05-1.69.06s-1.07,0-1.8-.09l3-.39a5.39,5.39,0,0,1-2.18.47,5.13,5.13,0,0,1-2.16-.5l1.36.43a32.28,32.28,0,0,1-6.51-1.35q-3.13-.95-6.12-2.18a76.12,76.12,0,0,1-11.36-5.94,88,88,0,0,1-19.1-16.62,101,101,0,0,1-7.64-10c-1.13-1.76-2.31-3.5-3.33-5.32l-1.58-2.71-1.46-2.76a128.81,128.81,0,0,1-9.26-23,185,185,0,0,1-7.59-48.48,178.41,178.41,0,0,1,1.22-24.56,164.1,164.1,0,0,1,4.69-24.22v0a4.52,4.52,0,0,1,.21-.62h0l-.31,1a58.08,58.08,0,0,1,8.91-21,63.93,63.93,0,0,1,4.69-6,77,77,0,0,1,11-10A80.2,80.2,0,0,1,349.47,522a63.54,63.54,0,0,1,7-3,56.06,56.06,0,0,1,7.43-2,50.16,50.16,0,0,1,7.76-.81,45.46,45.46,0,0,1,7.82.58,45.92,45.92,0,0,1,14.61,5.1c4.5,2.38,8.47,5.82,10.39,10.8a2.67,2.67,0,0,1-3.15,3.54Z" style="fill:#231f20"/><path d="M410.25,501.29c-1.1.65-2.19,1.33-3.27,2a56.91,56.91,0,0,0-6.72-6.86c-19.33-17.79-50.13-30.62-90.47,2.52-16,13.13-24.21,28.18-27.49,44.2h0c-5.53,20.27-14.39,66.88.37,123.49,11.36,43.61,32.26,69.23,51.89,83.65,13.75,10.09,26.86,14.7,35.65,16.14h0a53.53,53.53,0,0,0,24.06-3.57" style="fill:none;stroke:#231f20;stroke-linecap:round;stroke-linejoin:round;stroke-width:10px"/><path d="M412.33,517.29a25.07,25.07,0,0,0-1.81-2.58c-.75-1-1.55-1.9-2.39-2.84s-1.7-1.87-2.58-2.79-1.79-1.85-2.65-2.69a5.18,5.18,0,0,1,7.2-7.45,5.33,5.33,0,0,1,.91,1.18l.05.1c.7,1.25,1.31,2.43,1.93,3.65s1.22,2.45,1.8,3.69,1.14,2.53,1.66,3.86q.39,1,.75,2.07c.12.36.22.77.33,1.15s.19.89.28,1.32a2.78,2.78,0,0,1-5.13,1.93Z" style="fill:#231f20"/><path d="M393.33,757.87a16.8,16.8,0,0,1,3.81-1.65c1.34-.45,2.68-.92,4-1.44s2.64-1,3.9-1.56,2.51-1.13,3.66-1.75l.16-.09a2.64,2.64,0,0,1,3.35,3.93,32,32,0,0,1-3.32,3.61c-1.17,1.09-2.36,2.12-3.59,3.08s-2.48,1.87-3.75,2.77a15,15,0,0,1-4.1,2.22,5,5,0,0,1-4.29-9Z" style="fill:#231f20"/></g></g></svg>