<svg id="Left_Hand" data-name="Left Hand" xmlns="http://www.w3.org/2000/svg" viewBox="0 0 1440 1440"><g id="LH_C" data-name="LH C"><path d="M597.46,1206.53a41.05,41.05,0,0,1-8,4.4c-8.95,3.7-20.14,5.06-33.81,4.52l-1.19,0-.72,0a247.34,247.34,0,0,1-25.45-2.83,31.49,31.49,0,0,1-15.15-6.57c1.26-13.32,11.06-23.47,22.39-22.88,11.68.61,20.56,12.42,19.83,26.37.73-14,10.79-24.78,22.47-24.17C588,1185.82,596.1,1194.92,597.46,1206.53Z" style="fill:#fff"/><path d="M597.47,1206.54a41.6,41.6,0,0,1-8,4.39c-9,3.71-20.15,5.06-33.81,4.53l-1.19-.06-.73,0a247.44,247.44,0,0,1-25.45-2.82,31.46,31.46,0,0,1-15.14-6.58,28.46,28.46,0,0,1,4.29-12.72c-.18,1-.33,1.94-.42,3a31.45,31.45,0,0,0,15.14,6.57c8.36,1.32,16.07,2.24,23.15,2.69a33.42,33.42,0,0,1,.06,4,28.67,28.67,0,0,1,.47-4l1.77.11c.24,0,.48,0,.73,0l1.19,0c13.66.55,24.86-.82,33.81-4.53.89-.36,1.75-.75,2.59-1.17A27.83,27.83,0,0,1,597.47,1206.54Z" style="fill:#a1a3a6"/><path d="M637.28,867.32,636.13,875,623.62,958.8q-6.27-1.2-12.45-2.61a361.73,361.73,0,0,1-70.3-23.73c1.21-3.61,2.32-6.85,3.29-9.67,0,0,1.18-3.57,3.45-9.23.57-1.41,1.21-2.95,1.9-4.6h0c.42-1,.86-2,1.33-3.08h0c.47-1.06,1-2.15,1.47-3.28.17-.37.34-.75.52-1.13h0a6.31,6.31,0,0,1,1.19-1.69l.28-.28c.28-.28.6-.56.94-.84l.36-.28.76-.55c.27-.19.55-.37.84-.55s.91-.55,1.4-.82c.81-.45,1.7-.9,2.65-1.35.38-.18.77-.36,1.17-.53,14.37-6.42,41.14-12.34,58.81-18.7l1.45-.53c2.39-.89,4.58-1.78,6.53-2.69.58-.27,1.15-.55,1.69-.82.36-.18.71-.36,1-.55.51-.27,1-.55,1.45-.83s.89-.56,1.29-.84c.14-.09.27-.19.39-.28s.5-.38.73-.57l.34-.28c.32-.28.62-.57.89-.85A3.47,3.47,0,0,1,637.28,867.32Z" style="fill:#818385"/><path d="M549.51,909c-.69,1.65-1.33,3.19-1.9,4.6C548.17,912.15,548.8,910.6,549.51,909Z" style="fill:#bbbcbe"/><path d="M552.31,902.58c-.51,1.13-1,2.22-1.47,3.28C551.3,904.8,551.79,903.71,552.31,902.58Z" style="fill:#bbbcbe"/><path d="M555.24,898.63c-.34.28-.66.56-.94.84A9.66,9.66,0,0,1,555.24,898.63Z" style="fill:#bbbcbe"/><path d="M623.62,958.8l-15.29,102.42c4.06,23.41,6.88,43.65,8.35,61a265.67,265.67,0,0,1,1,33.24c-1.07,25.81-7.49,42-20.23,51-1.36-11.61-9.44-20.71-19.66-21.24-11.68-.61-21.74,10.22-22.47,24.17.73-14-8.15-25.77-19.83-26.38-11.33-.59-21.13,9.56-22.39,22.89C467,1168.79,519.86,995,540.87,932.46a361.73,361.73,0,0,0,70.3,23.73Q617.35,957.6,623.62,958.8Z" style="fill:#bbbcbe"/><path d="M637.28,867.32,636.13,875,623.62,958.8q-6.27-1.2-12.45-2.61a360.62,360.62,0,0,1-70.3-23.73c1.21-3.61,2.31-6.84,3.29-9.66a230.24,230.24,0,0,1,8.67-21.35C558.47,889.25,626.88,879.61,637.28,867.32Z" style="fill:#818385"/><path d="M637.28,867.32l-1.06,7c-23,9.18-67.79,17.31-72.31,27.08a230.24,230.24,0,0,0-8.67,21.35c-16.66,48.3-71.75,218.75-39.4,273.3a28.86,28.86,0,0,0-2.72,9.87c-48.82-39.31,13.18-231.4,31-283.17a230.24,230.24,0,0,1,8.67-21.35C558.47,889.25,626.88,879.61,637.28,867.32Z" style="fill:#818385"/></g><g id="Left_Hand_Outline" data-name="Left Hand Outline"><path d="M516.25,1202.08a25.6,25.6,0,0,0,8,4.39,29.67,29.67,0,0,0,4.55,1.13c1.72.28,3.55.56,5.32.82,7.13,1,14.25,1.81,21.35,2.12a100.87,100.87,0,0,0,20.85-1c6.73-1.1,13.13-3.25,18.36-7a4.79,4.79,0,0,1,5.52,7.84h0a47.23,47.23,0,0,1-10.8,5.66,64,64,0,0,1-11.46,3,111.34,111.34,0,0,1-22.91,1.21c-7.51-.3-15-1.09-22.31-2.11-1.85-.26-3.65-.53-5.54-.83a39.72,39.72,0,0,1-6.09-1.48,35.57,35.57,0,0,1-11.15-6.05,5,5,0,1,1,6.26-7.8h0Z" style="fill:#231f20"/><path d="M611.12,1060.74a278.39,278.39,0,0,1,8.21,37.31c1,6.29,1.75,12.64,2.44,19s1.24,12.77,1.53,19.21.43,12.92.13,19.45a127.55,127.55,0,0,1-2.23,19.68,69.64,69.64,0,0,1-6.68,19.39,43.58,43.58,0,0,1-14.17,15.83h0a5,5,0,0,1-6.94-1.12,5,5,0,0,1-.91-2.32v-.06a21.4,21.4,0,0,0-5.56-12.32,13.73,13.73,0,0,0-11.25-4.46,15.61,15.61,0,0,0-10.76,6.4,23.46,23.46,0,0,0-4.6,13l-10-.52a23.29,23.29,0,0,0-3.65-14,17.48,17.48,0,0,0-4.87-4.9,13.38,13.38,0,0,0-6.12-2.13,13.22,13.22,0,0,0-6.37,1,16.61,16.61,0,0,0-5.55,4,22.85,22.85,0,0,0-5.69,13.29,5,5,0,0,1-5.45,4.51,5,5,0,0,1-2.66-1.09,44.29,44.29,0,0,1-12.26-16.46,81.42,81.42,0,0,1-5.64-18.72c-2.29-12.64-2.58-25.26-2.16-37.73a369.21,369.21,0,0,1,3.43-37.1c1.71-12.26,3.87-24.43,6.32-36.52,4.92-24.19,11-48.07,17.66-71.75s14.08-47.15,22.11-70.42h0a5,5,0,0,1,9.18-.59h0l-9.2.66c1-2.94,2-5.65,3.15-8.43s2.23-5.5,3.42-8.21c2.38-5.43,4.93-10.78,7.7-16a163.24,163.24,0,0,1,19.74-30,4.81,4.81,0,0,1,7.37,6.19l0,0a131.46,131.46,0,0,0-9.87,13.6q-4.54,7.14-8.48,14.73c-2.63,5-5.07,10.2-7.34,15.43q-1.71,3.93-3.27,7.9c-1,2.63-2.06,5.36-2.93,7.93v0a5,5,0,0,1-9.2.63h0l9.18-.6Q537,959,527,994.3c-6.65,23.49-12.64,47.16-17.49,71-2.41,11.93-4.54,23.91-6.21,35.92a354.41,354.41,0,0,0-3.34,36.08c-.42,12-.1,24,2,35.55a71.83,71.83,0,0,0,4.91,16.4,34.63,34.63,0,0,0,9.43,12.82l-8.12,3.42a32.87,32.87,0,0,1,8.31-19.14,26.64,26.64,0,0,1,8.95-6.4,23.19,23.19,0,0,1,21.87,1.9,27.17,27.17,0,0,1,7.74,7.74,33.18,33.18,0,0,1,5.33,20.12,5,5,0,0,1-10-.5v0a33.48,33.48,0,0,1,6.66-18.56,27.76,27.76,0,0,1,7.66-6.91,23.76,23.76,0,0,1,10.12-3.36,22.86,22.86,0,0,1,10.64,1.55,25.1,25.1,0,0,1,8.72,5.93,31.34,31.34,0,0,1,8.29,18.1l-7.85-3.51h0a35.52,35.52,0,0,0,10.29-12.69,49.89,49.89,0,0,0,3.13-8,72.06,72.06,0,0,0,2.08-8.55,128.2,128.2,0,0,0,1.87-18c.22-6.11.22-12.29,0-18.48s-.64-12.42-1.17-18.65-1.23-12.45-1.86-18.69c-1.31-12.49-2.71-25-3.34-37.7a2.85,2.85,0,0,1,5.58-1Z" style="fill:#231f20"/></g></svg>