<svg id="Head_and_LEft_Ear" data-name="Head and LEft Ear" xmlns="http://www.w3.org/2000/svg" viewBox="0 0 1440 1440"><g id="H_LE_C" data-name="H + LE C"><path d="M1063.92,831q-2.75,3.78-6,7.52c-9.11,10.53-21,20.81-35.38,30.61q-9,6.17-19.31,12s-27.87,22.34-94.64,42.16a665.9,665.9,0,0,1-92,19.92,624.26,624.26,0,0,1-102.81,9.49h-.3c-4.63.17-9.28.24-13.94.24a396.56,396.56,0,0,1-54.49-3.73c-.29,0-.58-.07-.84-.12-2.37-.3-3.6-.51-3.6-.51a376.57,376.57,0,0,1-106.85-32.55l-2.2-1.08q-2.15-1.07-4.26-2.18l-.09-.05c-3.19-1.85-10.54-6.33-13.32-9.8l-1.65,1.15c-80.2-50.59-122.63-148-128.65-215.59-13-145.91,49.46-213.37,56.62-220.58l.4-.4.22-.21,0,0C503.69,407,598.56,364.41,699.59,364.41c67.69,0,130.78,16.94,183.85,46.18q14.8,8.16,28.53,17.55,7.24,5,14.18,10.26c8.15,6.23,16,12.8,23.41,19.67,56.9,52.56,91.71,123.09,91.71,200.63q0,6.49-.33,12.91c0,.06,0,.13,0,.2-.08,1.11-.17,2.47-.23,4,0,.06,0,.12,0,.17a138,138,0,0,0,.5,18.1c1.63,17.5,7.16,41.08,23.38,61.54a1.09,1.09,0,0,0,.15.18c.5.63,1,1.28,1.56,1.91a.18.18,0,0,0,.07.09l.07.09c1.32,1.7,2.55,3.44,3.67,5.21a53.4,53.4,0,0,1,8,21.34c.17,1.28.31,2.56.37,3.84C1079.35,802.52,1074.19,816.92,1063.92,831Z" style="fill:#bbbcbe"/><path d="M1041.1,667.9c-2.65-73.88-36.92-140.9-91.54-191.36-7.43-6.87-15.26-13.44-23.41-19.67q-6.92-5.3-14.18-10.26-13.71-9.37-28.53-17.55c-53.07-29.24-116.16-46.18-183.85-46.18-101,0-195.9,42.58-258.67,102.89l0,0-.22.21-.4.4c-6.32,6.36-55.68,59.63-58.28,172.29C379.21,533.37,433.61,474.65,440.26,468l.4-.4.22-.21,0,0C503.69,407,598.56,364.41,699.59,364.41c67.69,0,130.78,16.94,183.85,46.18q14.8,8.16,28.53,17.55,7.24,5,14.18,10.26c8.15,6.23,16,12.8,23.41,19.67,56.9,52.56,91.71,123.09,91.71,200.63Q1041.27,663.32,1041.1,667.9Z" style="fill:#e1e1e1"/><path d="M1046.8,844.28a205.1,205.1,0,0,1-26.27,21.06q-9,6.17-19.31,12S985.54,890,949.53,904.59l-.41.17c-11.92,4.83-26,9.88-42.54,14.78a665.9,665.9,0,0,1-92,19.92A624.26,624.26,0,0,1,711.81,949h-.3c-4.63.17-9.28.24-13.94.24a396.56,396.56,0,0,1-54.49-3.73c-.29,0-.58-.07-.84-.12-2.37-.3-3.6-.51-3.6-.51a376.57,376.57,0,0,1-106.85-32.55l-2.2-1.08q-2.15-1.07-4.26-2.18l-.09,0c-3.19-1.85-10.54-6.33-13.32-9.8l-1.65,1.15c-.25-.15-.49-.31-.73-.47-52.86-33.63-89.22-87.6-109.47-139.8l13.16-7.56C428.8,794.26,485,865.17,526.48,886.39l.1.07h0l2.88,1.4,3.32,1.57a96.83,96.83,0,0,0,8.76,5.69l.09,0q2.11,1.11,4.26,2.18l2.2,1.08A376.57,376.57,0,0,0,655,931s1.23.21,3.6.51c.26,0,.55.08.84.12a396.56,396.56,0,0,0,54.49,3.73c4.66,0,9.31-.07,13.94-.24h.3a624.26,624.26,0,0,0,102.81-9.49,665.9,665.9,0,0,0,92-19.92c66.77-19.82,94.64-42.16,94.64-42.16q10.28-5.87,19.31-12c1.28-.87,2.53-1.75,3.77-2.64Q1043.79,846.58,1046.8,844.28Z" style="fill:#818385"/><path d="M527.27,912.15c-.95-.45-1.9-.91-2.84-1.38,0,0-.54-.29-1.42-.8Q525.13,911.08,527.27,912.15Z" style="fill:#bbbcbe"/><path d="M1059.58,828.16c-1.82,2.51-3.83,5-6,7.51a148.35,148.35,0,0,1-13,13.16,213.42,213.42,0,0,1-22.4,17.45q-9,6.16-19.3,12s-15,12-49.38,26.27l-.41.17c-11.92,4.83-26,9.88-42.54,14.78a665.9,665.9,0,0,1-92,19.92A624.26,624.26,0,0,1,711.81,949h-.3c-4.63.17-9.28.24-13.94.24a396.56,396.56,0,0,1-54.49-3.73c-.29,0-.58-.07-.84-.12-2.37-.3-3.6-.51-3.6-.51a376.57,376.57,0,0,1-106.85-32.55l-2.2-1.08q-2.15-1.07-4.26-2.18l-.09,0c-3.19-1.85-10.54-6.33-13.32-9.8l-1.65,1.15c-.25-.15-.49-.31-.73-.47,5.77-4.45,9.19-7.38,13.47-11.18.19.09,3.28-2.38,3.47-2.29l.11.06,2.88,1.4,3.32,1.57a376.78,376.78,0,0,0,103.54,31s1.22.21,3.6.51c.26.05.55.08.84.12a396.52,396.52,0,0,0,54.48,3.73c4.66,0,9.32-.07,13.94-.24h.31A625.25,625.25,0,0,0,812.3,915a665.57,665.57,0,0,0,92-19.92c66.78-19.82,94.65-42.17,94.65-42.17q10.27-5.85,19.3-12c14.33-9.79,26.27-20.07,35.38-30.6,2.16-2.5,4.17-5,6-7.52,6.45-8.84,10.88-17.81,13.08-26.77a50.05,50.05,0,0,1,1.12,5.63c.17,1.27.31,2.55.38,3.83C1075,799.68,1069.86,814.07,1059.58,828.16Z" style="fill:#818385"/><path d="M1036.93,655.85q0,6.21-.3,12.33c-3.47-72.66-37.54-138.53-91.41-188.28q-11.15-10.31-23.41-19.67-6.91-5.3-14.17-10.26-13.73-9.37-28.53-17.55C826,403.18,763,386.24,695.25,386.24c-97,0-188.28,39.24-251,95.72-3.44-5.14-9.65-11.08-12-13.27,62.69-62.54,159.61-107.13,263-107.13,67.7,0,130.79,16.94,183.86,46.18q14.8,8.16,28.53,17.55,7.25,5,14.17,10.26,12.24,9.34,23.41,19.67C1002.12,507.78,1036.93,578.32,1036.93,655.85Z" style="fill:#e1e1e1"/><path d="M427.71,467l-.29-.21h0l-.26-.27Z" style="fill:#e1e1e1"/><path d="M522.92,909.92q-7.7-4-15-8.65" style="fill:none"/><path d="M436.54,464.49l-.22.21" style="fill:none"/><polyline points="413.23 752.5 400.07 760.06 399.12 760.61" style="fill:none"/></g><g id="Head_Left_ear_Outline" data-name="Head + Left ear Outline"><path d="M1074.15,785.47c-.06-1.28-.2-2.56-.37-3.84a53.4,53.4,0,0,0-8-21.34c-1.12-1.77-2.35-3.51-3.67-5.21L1062,755a.18.18,0,0,1-.07-.09c-.54-.63-1.06-1.28-1.56-1.91a1.09,1.09,0,0,1-.15-.18c-16.22-20.46-21.75-44-23.38-61.54a138,138,0,0,1-.5-18.1s0-.11,0-.17c.06-1.57.15-2.93.23-4,0-.07,0-.14,0-.2q.33-6.4.33-12.91c0-77.54-34.81-148.07-91.71-200.63-7.43-6.87-15.26-13.44-23.41-19.67q-6.91-5.3-14.18-10.26-13.71-9.37-28.53-17.55C826,378.5,762.94,361.56,695.25,361.56c-101,0-195.9,42.58-258.67,102.89l0,0-.22.21-.4.4c-.81.82-2.32,2.4-4.35,4.77-5.91,6.92-16.21,20.58-26.25,41.64-17,35.72-33.28,92.72-26,174.17,4.28,48.05,27,111.18,68.53,161.83,16.91,20.6,36.93,39.14,60.12,53.76h0c3.94,3,11.78,6.8,15,8.65l.09.05q2.12,1.11,4.26,2.18l2.2,1.08a376.57,376.57,0,0,0,106.85,32.55s1.23.21,3.6.51c.26.05.55.08.84.12a396.56,396.56,0,0,0,54.49,3.73c4.66,0,9.31-.07,13.94-.24h.3A624.26,624.26,0,0,0,812.3,940.4a665.9,665.9,0,0,0,92-19.92c66.77-19.82,94.64-42.16,94.64-42.16q10.27-5.87,19.31-12c14.33-9.8,26.27-20.08,35.38-30.61q3.24-3.75,6-7.52C1069.85,814.07,1075,799.67,1074.15,785.47Z" style="fill:none;stroke:#231f20;stroke-linecap:round;stroke-linejoin:round;stroke-width:10px"/><path d="M523,910c.88.51,1.42.8,1.42.8.94.47,1.89.93,2.84,1.38" style="fill:none;stroke:#231f20;stroke-linecap:round;stroke-linejoin:round;stroke-width:10px"/><path d="M436.54,464.49l-.22.21" style="fill:none;stroke:#231f20;stroke-linecap:round;stroke-linejoin:round;stroke-width:10px"/></g></svg>